ISO-10303-21;
HEADER;

/* File generated by Shapr3D Version 26.70.0.10837 */

FILE_DESCRIPTION(('HOOPS Exchange Step'),'2;1');

FILE_NAME('/Users/aidenlim/Library/Containers/com.shapr3d.shapr/Data/tmp/export/temp_export',
'2026-06-11T20:40:00+08:00',
('aidenlim'),
('Shapr3D Limited'),
'HOOPS Exchange 2025.9',
'Shapr3D',
'Authorized');

FILE_SCHEMA( ('AP242_MANAGED_MODEL_BASED_3D_ENGINEERING_MIM_LF {1 0 10303 442 1 1 4}') );

ENDSEC;

DATA;
#3=(NAMED_UNIT(*)PLANE_ANGLE_UNIT()SI_UNIT($,.RADIAN.));
#4=PLANE_ANGLE_MEASURE_WITH_UNIT(PLANE_ANGLE_MEASURE(0.0174532925),#3);
#5=(CONVERSION_BASED_UNIT('DEGREE',#4)NAMED_UNIT(#6)PLANE_ANGLE_UNIT());
#6=DIMENSIONAL_EXPONENTS(0.,0.,0.,0.,0.,0.,0.);
#7=(NAMED_UNIT(*)SI_UNIT($,.STERADIAN.)SOLID_ANGLE_UNIT());
#8=(LENGTH_UNIT()NAMED_UNIT(*)SI_UNIT(.MILLI.,.METRE.));
#9=UNCERTAINTY_MEASURE_WITH_UNIT(LENGTH_MEASURE(1.000000E-05),#8,'DISTANCE_ACCURACY_VALUE','Maximum Tolerance applied to model');
#10=(GEOMETRIC_REPRESENTATION_CONTEXT(3)GLOBAL_UNCERTAINTY_ASSIGNED_CONTEXT((#9))GLOBAL_UNIT_ASSIGNED_CONTEXT((#8,#5,#7))REPRESENTATION_CONTEXT('','root'));
#12=CARTESIAN_POINT('',(0.,0.,0.));
#13=DIRECTION('',(0.,0.,1.));
#14=DIRECTION('',(1.,0.,0.));
#15=AXIS2_PLACEMENT_3D('',#12,#13,#14);
#27=CARTESIAN_POINT('',(0.,-38.9,-3.));
#28=DIRECTION('',(-0.,1.,0.));
#29=DIRECTION('',(-1.,-0.,0.));
#30=AXIS2_PLACEMENT_3D('',#27,#28,#29);
#31=PLANE('',#30);
#32=CARTESIAN_POINT('',(6.,-38.9,4.));
#33=VERTEX_POINT('',#32);
#34=CARTESIAN_POINT('',(6.,-38.9,10.));
#35=VERTEX_POINT('',#34);
#36=CARTESIAN_POINT('',(6.,-38.9,4.));
#37=DIRECTION('',(0.,0.,1.));
#38=VECTOR('',#37,6.);
#39=LINE('',#36,#38);
#40=EDGE_CURVE('',#33,#35,#39,.T.);
#41=ORIENTED_EDGE('',*,*,#40,.F.);
#42=CARTESIAN_POINT('',(-6.,-38.9,4.));
#43=VERTEX_POINT('',#42);
#44=CARTESIAN_POINT('',(-6.,-38.9,4.));
#45=DIRECTION('',(1.,0.,0.));
#46=VECTOR('',#45,12.);
#47=LINE('',#44,#46);
#48=EDGE_CURVE('',#43,#33,#47,.T.);
#49=ORIENTED_EDGE('',*,*,#48,.F.);
#50=CARTESIAN_POINT('',(-6.,-38.9,10.));
#51=VERTEX_POINT('',#50);
#52=CARTESIAN_POINT('',(-6.,-38.9,10.));
#53=DIRECTION('',(0.,0.,-1.));
#54=VECTOR('',#53,6.);
#55=LINE('',#52,#54);
#56=EDGE_CURVE('',#51,#43,#55,.T.);
#57=ORIENTED_EDGE('',*,*,#56,.F.);
#58=CARTESIAN_POINT('',(-19.7,-38.9,10.));
#59=VERTEX_POINT('',#58);
#60=CARTESIAN_POINT('',(-6.,-38.9,10.));
#61=DIRECTION('',(-1.,-0.,0.));
#62=VECTOR('',#61,13.7);
#63=LINE('',#60,#62);
#64=EDGE_CURVE('',#51,#59,#63,.T.);
#65=ORIENTED_EDGE('',*,*,#64,.T.);
#66=CARTESIAN_POINT('',(-19.7,-38.9,-3.));
#67=VERTEX_POINT('',#66);
#68=CARTESIAN_POINT('',(-19.7,-38.9,-3.));
#69=DIRECTION('',(0.,0.,1.));
#70=VECTOR('',#69,13.);
#71=LINE('',#68,#70);
#72=EDGE_CURVE('',#67,#59,#71,.T.);
#73=ORIENTED_EDGE('',*,*,#72,.F.);
#74=CARTESIAN_POINT('',(19.7,-38.9,-3.));
#75=VERTEX_POINT('',#74);
#76=CARTESIAN_POINT('',(19.7,-38.9,-3.));
#77=DIRECTION('',(-1.,-0.,0.));
#78=VECTOR('',#77,39.4);
#79=LINE('',#76,#78);
#80=EDGE_CURVE('',#75,#67,#79,.T.);
#81=ORIENTED_EDGE('',*,*,#80,.F.);
#82=CARTESIAN_POINT('',(19.7,-38.9,10.));
#83=VERTEX_POINT('',#82);
#84=CARTESIAN_POINT('',(19.7,-38.9,-3.));
#85=DIRECTION('',(0.,0.,1.));
#86=VECTOR('',#85,13.);
#87=LINE('',#84,#86);
#88=EDGE_CURVE('',#75,#83,#87,.T.);
#89=ORIENTED_EDGE('',*,*,#88,.T.);
#90=CARTESIAN_POINT('',(19.7,-38.9,10.));
#91=DIRECTION('',(-1.,-0.,0.));
#92=VECTOR('',#91,13.7);
#93=LINE('',#90,#92);
#94=EDGE_CURVE('',#83,#35,#93,.T.);
#95=ORIENTED_EDGE('',*,*,#94,.T.);
#96=EDGE_LOOP('',(#41,#49,#57,#65,#73,#81,#89,#95));
#97=FACE_BOUND('',#96,.T.);
#98=ADVANCED_FACE('',(#97),#31,.F.);
#99=CARTESIAN_POINT('',(0.,-28.9,10.));
#100=DIRECTION('',(0.,-1.,0.));
#101=DIRECTION('',(1.,0.,0.));
#102=AXIS2_PLACEMENT_3D('',#99,#100,#101);
#103=PLANE('',#102);
#104=CARTESIAN_POINT('',(6.,-28.9,10.));
#105=VERTEX_POINT('',#104);
#106=CARTESIAN_POINT('',(6.,-28.9,4.));
#107=VERTEX_POINT('',#106);
#108=CARTESIAN_POINT('',(6.,-28.9,10.));
#109=DIRECTION('',(0.,0.,-1.));
#110=VECTOR('',#109,6.);
#111=LINE('',#108,#110);
#112=EDGE_CURVE('',#105,#107,#111,.T.);
#113=ORIENTED_EDGE('',*,*,#112,.F.);
#114=CARTESIAN_POINT('',(9.7,-28.9,10.));
#115=VERTEX_POINT('',#114);
#116=CARTESIAN_POINT('',(9.7,-28.9,10.));
#117=DIRECTION('',(-1.,-0.,0.));
#118=VECTOR('',#117,3.7);
#119=LINE('',#116,#118);
#120=EDGE_CURVE('',#115,#105,#119,.T.);
#121=ORIENTED_EDGE('',*,*,#120,.F.);
#122=CARTESIAN_POINT('',(9.7,-28.9,0.));
#123=VERTEX_POINT('',#122);
#124=CARTESIAN_POINT('',(9.7,-28.9,10.));
#125=DIRECTION('',(0.,0.,-1.));
#126=VECTOR('',#125,10.);
#127=LINE('',#124,#126);
#128=EDGE_CURVE('',#115,#123,#127,.T.);
#129=ORIENTED_EDGE('',*,*,#128,.T.);
#130=CARTESIAN_POINT('',(-9.7,-28.9,0.));
#131=VERTEX_POINT('',#130);
#132=CARTESIAN_POINT('',(9.7,-28.9,0.));
#133=DIRECTION('',(-1.,-0.,0.));
#134=VECTOR('',#133,19.4);
#135=LINE('',#132,#134);
#136=EDGE_CURVE('',#123,#131,#135,.T.);
#137=ORIENTED_EDGE('',*,*,#136,.T.);
#138=CARTESIAN_POINT('',(-9.7,-28.9,10.));
#139=VERTEX_POINT('',#138);
#140=CARTESIAN_POINT('',(-9.7,-28.9,10.));
#141=DIRECTION('',(0.,0.,-1.));
#142=VECTOR('',#141,10.);
#143=LINE('',#140,#142);
#144=EDGE_CURVE('',#139,#131,#143,.T.);
#145=ORIENTED_EDGE('',*,*,#144,.F.);
#146=CARTESIAN_POINT('',(-6.,-28.9,10.));
#147=VERTEX_POINT('',#146);
#148=CARTESIAN_POINT('',(-6.,-28.9,10.));
#149=DIRECTION('',(-1.,-0.,0.));
#150=VECTOR('',#149,3.7);
#151=LINE('',#148,#150);
#152=EDGE_CURVE('',#147,#139,#151,.T.);
#153=ORIENTED_EDGE('',*,*,#152,.F.);
#154=CARTESIAN_POINT('',(-6.,-28.9,4.));
#155=VERTEX_POINT('',#154);
#156=CARTESIAN_POINT('',(-6.,-28.9,4.));
#157=DIRECTION('',(0.,0.,1.));
#158=VECTOR('',#157,6.);
#159=LINE('',#156,#158);
#160=EDGE_CURVE('',#155,#147,#159,.T.);
#161=ORIENTED_EDGE('',*,*,#160,.F.);
#162=CARTESIAN_POINT('',(6.,-28.9,4.));
#163=DIRECTION('',(-1.,-0.,-0.));
#164=VECTOR('',#163,12.);
#165=LINE('',#162,#164);
#166=EDGE_CURVE('',#107,#155,#165,.T.);
#167=ORIENTED_EDGE('',*,*,#166,.F.);
#168=EDGE_LOOP('',(#113,#121,#129,#137,#145,#153,#161,#167));
#169=FACE_BOUND('',#168,.T.);
#170=ADVANCED_FACE('',(#169),#103,.F.);
#171=CARTESIAN_POINT('',(0.,0.,10.));
#172=DIRECTION('',(0.,0.,1.));
#173=DIRECTION('',(1.,0.,0.));
#174=AXIS2_PLACEMENT_3D('',#171,#172,#173);
#175=PLANE('',#174);
#176=CARTESIAN_POINT('',(17.05,33.9,10.));
#177=VERTEX_POINT('',#176);
#178=CARTESIAN_POINT('',(14.7,33.9,10.));
#179=DIRECTION('',(0.,0.,1.));
#180=DIRECTION('',(1.,0.,-0.));
#181=AXIS2_PLACEMENT_3D('',#178,#179,#180);
#182=CIRCLE('',#181,2.35);
#183=EDGE_CURVE('',#177,#177,#182,.T.);
#184=ORIENTED_EDGE('',*,*,#183,.F.);
#185=EDGE_LOOP('',(#184));
#186=FACE_BOUND('',#185,.T.);
#187=CARTESIAN_POINT('',(-12.35,-33.982794133,10.));
#188=VERTEX_POINT('',#187);
#189=CARTESIAN_POINT('',(-14.7,-33.982794133,10.));
#190=DIRECTION('',(0.,0.,1.));
#191=DIRECTION('',(1.,0.,-0.));
#192=AXIS2_PLACEMENT_3D('',#189,#190,#191);
#193=CIRCLE('',#192,2.35);
#194=EDGE_CURVE('',#188,#188,#193,.T.);
#195=ORIENTED_EDGE('',*,*,#194,.F.);
#196=EDGE_LOOP('',(#195));
#197=FACE_BOUND('',#196,.T.);
#198=CARTESIAN_POINT('',(17.05,-33.9,10.));
#199=VERTEX_POINT('',#198);
#200=CARTESIAN_POINT('',(14.7,-33.9,10.));
#201=DIRECTION('',(0.,0.,1.));
#202=DIRECTION('',(1.,0.,-0.));
#203=AXIS2_PLACEMENT_3D('',#200,#201,#202);
#204=CIRCLE('',#203,2.35);
#205=EDGE_CURVE('',#199,#199,#204,.T.);
#206=ORIENTED_EDGE('',*,*,#205,.F.);
#207=EDGE_LOOP('',(#206));
#208=FACE_BOUND('',#207,.T.);
#209=CARTESIAN_POINT('',(-12.35,33.9,10.));
#210=VERTEX_POINT('',#209);
#211=CARTESIAN_POINT('',(-14.7,33.9,10.));
#212=DIRECTION('',(0.,0.,1.));
#213=DIRECTION('',(1.,0.,-0.));
#214=AXIS2_PLACEMENT_3D('',#211,#212,#213);
#215=CIRCLE('',#214,2.35);
#216=EDGE_CURVE('',#210,#210,#215,.T.);
#217=ORIENTED_EDGE('',*,*,#216,.F.);
#218=EDGE_LOOP('',(#217));
#219=FACE_BOUND('',#218,.T.);
#220=ORIENTED_EDGE('',*,*,#120,.T.);
#221=CARTESIAN_POINT('',(6.,-28.9,10.));
#222=DIRECTION('',(0.,-1.,0.));
#223=VECTOR('',#222,10.);
#224=LINE('',#221,#223);
#225=EDGE_CURVE('',#105,#35,#224,.T.);
#226=ORIENTED_EDGE('',*,*,#225,.T.);
#227=ORIENTED_EDGE('',*,*,#94,.F.);
#228=CARTESIAN_POINT('',(19.7,38.9,10.));
#229=VERTEX_POINT('',#228);
#230=CARTESIAN_POINT('',(19.7,38.9,10.));
#231=DIRECTION('',(0.,-1.,0.));
#232=VECTOR('',#231,77.8);
#233=LINE('',#230,#232);
#234=EDGE_CURVE('',#229,#83,#233,.T.);
#235=ORIENTED_EDGE('',*,*,#234,.F.);
#236=CARTESIAN_POINT('',(-19.7,38.9,10.));
#237=VERTEX_POINT('',#236);
#238=CARTESIAN_POINT('',(-19.7,38.9,10.));
#239=DIRECTION('',(1.,0.,0.));
#240=VECTOR('',#239,39.4);
#241=LINE('',#238,#240);
#242=EDGE_CURVE('',#237,#229,#241,.T.);
#243=ORIENTED_EDGE('',*,*,#242,.F.);
#244=CARTESIAN_POINT('',(-19.7,-38.9,10.));
#245=DIRECTION('',(-0.,1.,0.));
#246=VECTOR('',#245,77.8);
#247=LINE('',#244,#246);
#248=EDGE_CURVE('',#59,#237,#247,.T.);
#249=ORIENTED_EDGE('',*,*,#248,.F.);
#250=ORIENTED_EDGE('',*,*,#64,.F.);
#251=CARTESIAN_POINT('',(-6.,-28.9,10.));
#252=DIRECTION('',(0.,-1.,0.));
#253=VECTOR('',#252,10.);
#254=LINE('',#251,#253);
#255=EDGE_CURVE('',#147,#51,#254,.T.);
#256=ORIENTED_EDGE('',*,*,#255,.F.);
#257=ORIENTED_EDGE('',*,*,#152,.T.);
#258=CARTESIAN_POINT('',(-9.7,28.9,10.));
#259=VERTEX_POINT('',#258);
#260=CARTESIAN_POINT('',(-9.7,-28.9,10.));
#261=DIRECTION('',(-0.,1.,0.));
#262=VECTOR('',#261,57.8);
#263=LINE('',#260,#262);
#264=EDGE_CURVE('',#139,#259,#263,.T.);
#265=ORIENTED_EDGE('',*,*,#264,.T.);
#266=CARTESIAN_POINT('',(9.7,28.9,10.));
#267=VERTEX_POINT('',#266);
#268=CARTESIAN_POINT('',(-9.7,28.9,10.));
#269=DIRECTION('',(1.,0.,0.));
#270=VECTOR('',#269,19.4);
#271=LINE('',#268,#270);
#272=EDGE_CURVE('',#259,#267,#271,.T.);
#273=ORIENTED_EDGE('',*,*,#272,.T.);
#274=CARTESIAN_POINT('',(9.7,28.9,10.));
#275=DIRECTION('',(0.,-1.,0.));
#276=VECTOR('',#275,57.8);
#277=LINE('',#274,#276);
#278=EDGE_CURVE('',#267,#115,#277,.T.);
#279=ORIENTED_EDGE('',*,*,#278,.T.);
#280=EDGE_LOOP('',(#220,#226,#227,#235,#243,#249,#250,#256,#257,#265,#273,#279));
#281=FACE_BOUND('',#280,.T.);
#282=ADVANCED_FACE('',(#186,#197,#208,#219,#281),#175,.T.);
#283=CARTESIAN_POINT('',(19.7,0.,-3.));
#284=DIRECTION('',(-1.,-0.,0.));
#285=DIRECTION('',(0.,-1.,0.));
#286=AXIS2_PLACEMENT_3D('',#283,#284,#285);
#287=PLANE('',#286);
#288=CARTESIAN_POINT('',(19.7,38.9,-3.));
#289=VERTEX_POINT('',#288);
#290=CARTESIAN_POINT('',(19.7,38.9,-3.));
#291=DIRECTION('',(0.,0.,1.));
#292=VECTOR('',#291,13.);
#293=LINE('',#290,#292);
#294=EDGE_CURVE('',#289,#229,#293,.T.);
#295=ORIENTED_EDGE('',*,*,#294,.T.);
#296=ORIENTED_EDGE('',*,*,#234,.T.);
#297=ORIENTED_EDGE('',*,*,#88,.F.);
#298=CARTESIAN_POINT('',(19.7,38.9,-3.));
#299=DIRECTION('',(0.,-1.,0.));
#300=VECTOR('',#299,77.8);
#301=LINE('',#298,#300);
#302=EDGE_CURVE('',#289,#75,#301,.T.);
#303=ORIENTED_EDGE('',*,*,#302,.F.);
#304=EDGE_LOOP('',(#295,#296,#297,#303));
#305=FACE_BOUND('',#304,.T.);
#306=ADVANCED_FACE('',(#305),#287,.F.);
#307=CARTESIAN_POINT('',(-0.,38.9,-3.));
#308=DIRECTION('',(0.,-1.,0.));
#309=DIRECTION('',(1.,0.,0.));
#310=AXIS2_PLACEMENT_3D('',#307,#308,#309);
#311=PLANE('',#310);
#312=CARTESIAN_POINT('',(-19.7,38.9,-3.));
#313=VERTEX_POINT('',#312);
#314=CARTESIAN_POINT('',(-19.7,38.9,-3.));
#315=DIRECTION('',(0.,0.,1.));
#316=VECTOR('',#315,13.);
#317=LINE('',#314,#316);
#318=EDGE_CURVE('',#313,#237,#317,.T.);
#319=ORIENTED_EDGE('',*,*,#318,.T.);
#320=ORIENTED_EDGE('',*,*,#242,.T.);
#321=ORIENTED_EDGE('',*,*,#294,.F.);
#322=CARTESIAN_POINT('',(-19.7,38.9,-3.));
#323=DIRECTION('',(1.,0.,0.));
#324=VECTOR('',#323,39.4);
#325=LINE('',#322,#324);
#326=EDGE_CURVE('',#313,#289,#325,.T.);
#327=ORIENTED_EDGE('',*,*,#326,.F.);
#328=EDGE_LOOP('',(#319,#320,#321,#327));
#329=FACE_BOUND('',#328,.T.);
#330=ADVANCED_FACE('',(#329),#311,.F.);
#331=CARTESIAN_POINT('',(-19.7,-0.,-3.));
#332=DIRECTION('',(1.,0.,0.));
#333=DIRECTION('',(-0.,1.,0.));
#334=AXIS2_PLACEMENT_3D('',#331,#332,#333);
#335=PLANE('',#334);
#336=ORIENTED_EDGE('',*,*,#72,.T.);
#337=ORIENTED_EDGE('',*,*,#248,.T.);
#338=ORIENTED_EDGE('',*,*,#318,.F.);
#339=CARTESIAN_POINT('',(-19.7,-38.9,-3.));
#340=DIRECTION('',(-0.,1.,0.));
#341=VECTOR('',#340,77.8);
#342=LINE('',#339,#341);
#343=EDGE_CURVE('',#67,#313,#342,.T.);
#344=ORIENTED_EDGE('',*,*,#343,.F.);
#345=EDGE_LOOP('',(#336,#337,#338,#344));
#346=FACE_BOUND('',#345,.T.);
#347=ADVANCED_FACE('',(#346),#335,.F.);
#348=CARTESIAN_POINT('',(0.,0.,-3.));
#349=DIRECTION('',(0.,0.,1.));
#350=DIRECTION('',(1.,0.,0.));
#351=AXIS2_PLACEMENT_3D('',#348,#349,#350);
#352=PLANE('',#351);
#353=ORIENTED_EDGE('',*,*,#302,.T.);
#354=ORIENTED_EDGE('',*,*,#80,.T.);
#355=ORIENTED_EDGE('',*,*,#343,.T.);
#356=ORIENTED_EDGE('',*,*,#326,.T.);
#357=EDGE_LOOP('',(#353,#354,#355,#356));
#358=FACE_BOUND('',#357,.T.);
#359=ADVANCED_FACE('',(#358),#352,.F.);
#360=CARTESIAN_POINT('',(-0.,28.9,10.));
#361=DIRECTION('',(-0.,1.,0.));
#362=DIRECTION('',(-1.,-0.,0.));
#363=AXIS2_PLACEMENT_3D('',#360,#361,#362);
#364=PLANE('',#363);
#365=CARTESIAN_POINT('',(-9.7,28.9,0.));
#366=VERTEX_POINT('',#365);
#367=CARTESIAN_POINT('',(9.7,28.9,0.));
#368=VERTEX_POINT('',#367);
#369=CARTESIAN_POINT('',(-9.7,28.9,0.));
#370=DIRECTION('',(1.,0.,0.));
#371=VECTOR('',#370,19.4);
#372=LINE('',#369,#371);
#373=EDGE_CURVE('',#366,#368,#372,.T.);
#374=ORIENTED_EDGE('',*,*,#373,.T.);
#375=CARTESIAN_POINT('',(9.7,28.9,10.));
#376=DIRECTION('',(0.,0.,-1.));
#377=VECTOR('',#376,10.);
#378=LINE('',#375,#377);
#379=EDGE_CURVE('',#267,#368,#378,.T.);
#380=ORIENTED_EDGE('',*,*,#379,.F.);
#381=ORIENTED_EDGE('',*,*,#272,.F.);
#382=CARTESIAN_POINT('',(-9.7,28.9,10.));
#383=DIRECTION('',(0.,0.,-1.));
#384=VECTOR('',#383,10.);
#385=LINE('',#382,#384);
#386=EDGE_CURVE('',#259,#366,#385,.T.);
#387=ORIENTED_EDGE('',*,*,#386,.T.);
#388=EDGE_LOOP('',(#374,#380,#381,#387));
#389=FACE_BOUND('',#388,.T.);
#390=ADVANCED_FACE('',(#389),#364,.F.);
#391=CARTESIAN_POINT('',(9.7,0.,10.));
#392=DIRECTION('',(1.,0.,0.));
#393=DIRECTION('',(-0.,1.,0.));
#394=AXIS2_PLACEMENT_3D('',#391,#392,#393);
#395=PLANE('',#394);
#396=CARTESIAN_POINT('',(9.7,28.9,0.));
#397=DIRECTION('',(0.,-1.,0.));
#398=VECTOR('',#397,57.8);
#399=LINE('',#396,#398);
#400=EDGE_CURVE('',#368,#123,#399,.T.);
#401=ORIENTED_EDGE('',*,*,#400,.T.);
#402=ORIENTED_EDGE('',*,*,#128,.F.);
#403=ORIENTED_EDGE('',*,*,#278,.F.);
#404=ORIENTED_EDGE('',*,*,#379,.T.);
#405=EDGE_LOOP('',(#401,#402,#403,#404));
#406=FACE_BOUND('',#405,.T.);
#407=ADVANCED_FACE('',(#406),#395,.F.);
#408=CARTESIAN_POINT('',(-9.7,-0.,10.));
#409=DIRECTION('',(-1.,-0.,0.));
#410=DIRECTION('',(0.,-1.,0.));
#411=AXIS2_PLACEMENT_3D('',#408,#409,#410);
#412=PLANE('',#411);
#413=CARTESIAN_POINT('',(-9.7,-28.9,0.));
#414=DIRECTION('',(-0.,1.,0.));
#415=VECTOR('',#414,57.8);
#416=LINE('',#413,#415);
#417=EDGE_CURVE('',#131,#366,#416,.T.);
#418=ORIENTED_EDGE('',*,*,#417,.T.);
#419=ORIENTED_EDGE('',*,*,#386,.F.);
#420=ORIENTED_EDGE('',*,*,#264,.F.);
#421=ORIENTED_EDGE('',*,*,#144,.T.);
#422=EDGE_LOOP('',(#418,#419,#420,#421));
#423=FACE_BOUND('',#422,.T.);
#424=ADVANCED_FACE('',(#423),#412,.F.);
#425=CARTESIAN_POINT('',(0.,0.,0.));
#426=DIRECTION('',(0.,0.,1.));
#427=DIRECTION('',(1.,0.,0.));
#428=AXIS2_PLACEMENT_3D('',#425,#426,#427);
#429=PLANE('',#428);
#430=ORIENTED_EDGE('',*,*,#373,.F.);
#431=ORIENTED_EDGE('',*,*,#417,.F.);
#432=ORIENTED_EDGE('',*,*,#136,.F.);
#433=ORIENTED_EDGE('',*,*,#400,.F.);
#434=EDGE_LOOP('',(#430,#431,#432,#433));
#435=FACE_BOUND('',#434,.T.);
#436=ADVANCED_FACE('',(#435),#429,.T.);
#437=CARTESIAN_POINT('',(-14.7,33.9,6.));
#438=DIRECTION('',(0.,0.,1.));
#439=DIRECTION('',(1.,0.,-0.));
#440=AXIS2_PLACEMENT_3D('',#437,#438,#439);
#441=CYLINDRICAL_SURFACE('',#440,2.35);
#442=CARTESIAN_POINT('',(-12.35,33.9,6.));
#443=VERTEX_POINT('',#442);
#444=CARTESIAN_POINT('',(-12.35,33.9,10.));
#445=DIRECTION('',(-0.,-0.,-1.));
#446=VECTOR('',#445,4.);
#447=LINE('',#444,#446);
#448=EDGE_CURVE('',#210,#443,#447,.T.);
#449=ORIENTED_EDGE('',*,*,#448,.F.);
#450=ORIENTED_EDGE('',*,*,#216,.T.);
#451=ORIENTED_EDGE('',*,*,#448,.T.);
#452=CARTESIAN_POINT('',(-14.7,33.9,6.));
#453=DIRECTION('',(0.,0.,1.));
#454=DIRECTION('',(1.,0.,-0.));
#455=AXIS2_PLACEMENT_3D('',#452,#453,#454);
#456=CIRCLE('',#455,2.35);
#457=EDGE_CURVE('',#443,#443,#456,.T.);
#458=ORIENTED_EDGE('',*,*,#457,.F.);
#459=EDGE_LOOP('',(#449,#450,#451,#458));
#460=FACE_BOUND('',#459,.T.);
#461=ADVANCED_FACE('',(#460),#441,.F.);
#462=CARTESIAN_POINT('',(0.,0.,6.));
#463=DIRECTION('',(0.,0.,1.));
#464=DIRECTION('',(1.,0.,0.));
#465=AXIS2_PLACEMENT_3D('',#462,#463,#464);
#466=PLANE('',#465);
#467=ORIENTED_EDGE('',*,*,#457,.T.);
#468=EDGE_LOOP('',(#467));
#469=FACE_BOUND('',#468,.T.);
#470=ADVANCED_FACE('',(#469),#466,.T.);
#471=CARTESIAN_POINT('',(14.7,-33.9,6.));
#472=DIRECTION('',(0.,0.,1.));
#473=DIRECTION('',(1.,0.,-0.));
#474=AXIS2_PLACEMENT_3D('',#471,#472,#473);
#475=CYLINDRICAL_SURFACE('',#474,2.35);
#476=CARTESIAN_POINT('',(17.05,-33.9,6.));
#477=VERTEX_POINT('',#476);
#478=CARTESIAN_POINT('',(17.05,-33.9,10.));
#479=DIRECTION('',(-0.,-0.,-1.));
#480=VECTOR('',#479,4.);
#481=LINE('',#478,#480);
#482=EDGE_CURVE('',#199,#477,#481,.T.);
#483=ORIENTED_EDGE('',*,*,#482,.F.);
#484=ORIENTED_EDGE('',*,*,#205,.T.);
#485=ORIENTED_EDGE('',*,*,#482,.T.);
#486=CARTESIAN_POINT('',(14.7,-33.9,6.));
#487=DIRECTION('',(0.,0.,1.));
#488=DIRECTION('',(1.,0.,-0.));
#489=AXIS2_PLACEMENT_3D('',#486,#487,#488);
#490=CIRCLE('',#489,2.35);
#491=EDGE_CURVE('',#477,#477,#490,.T.);
#492=ORIENTED_EDGE('',*,*,#491,.F.);
#493=EDGE_LOOP('',(#483,#484,#485,#492));
#494=FACE_BOUND('',#493,.T.);
#495=ADVANCED_FACE('',(#494),#475,.F.);
#496=CARTESIAN_POINT('',(0.,0.,6.));
#497=DIRECTION('',(0.,0.,1.));
#498=DIRECTION('',(1.,0.,0.));
#499=AXIS2_PLACEMENT_3D('',#496,#497,#498);
#500=PLANE('',#499);
#501=ORIENTED_EDGE('',*,*,#491,.T.);
#502=EDGE_LOOP('',(#501));
#503=FACE_BOUND('',#502,.T.);
#504=ADVANCED_FACE('',(#503),#500,.T.);
#505=CARTESIAN_POINT('',(-14.7,-33.982794133,6.));
#506=DIRECTION('',(0.,0.,1.));
#507=DIRECTION('',(1.,0.,-0.));
#508=AXIS2_PLACEMENT_3D('',#505,#506,#507);
#509=CYLINDRICAL_SURFACE('',#508,2.35);
#510=CARTESIAN_POINT('',(-12.35,-33.982794133,6.));
#511=VERTEX_POINT('',#510);
#512=CARTESIAN_POINT('',(-12.35,-33.982794133,10.));
#513=DIRECTION('',(-0.,-0.,-1.));
#514=VECTOR('',#513,4.);
#515=LINE('',#512,#514);
#516=EDGE_CURVE('',#188,#511,#515,.T.);
#517=ORIENTED_EDGE('',*,*,#516,.F.);
#518=ORIENTED_EDGE('',*,*,#194,.T.);
#519=ORIENTED_EDGE('',*,*,#516,.T.);
#520=CARTESIAN_POINT('',(-14.7,-33.982794133,6.));
#521=DIRECTION('',(0.,0.,1.));
#522=DIRECTION('',(1.,0.,-0.));
#523=AXIS2_PLACEMENT_3D('',#520,#521,#522);
#524=CIRCLE('',#523,2.35);
#525=EDGE_CURVE('',#511,#511,#524,.T.);
#526=ORIENTED_EDGE('',*,*,#525,.F.);
#527=EDGE_LOOP('',(#517,#518,#519,#526));
#528=FACE_BOUND('',#527,.T.);
#529=ADVANCED_FACE('',(#528),#509,.F.);
#530=CARTESIAN_POINT('',(0.,0.,6.));
#531=DIRECTION('',(0.,0.,1.));
#532=DIRECTION('',(1.,0.,0.));
#533=AXIS2_PLACEMENT_3D('',#530,#531,#532);
#534=PLANE('',#533);
#535=ORIENTED_EDGE('',*,*,#525,.T.);
#536=EDGE_LOOP('',(#535));
#537=FACE_BOUND('',#536,.T.);
#538=ADVANCED_FACE('',(#537),#534,.T.);
#539=CARTESIAN_POINT('',(14.7,33.9,6.));
#540=DIRECTION('',(0.,0.,1.));
#541=DIRECTION('',(1.,0.,-0.));
#542=AXIS2_PLACEMENT_3D('',#539,#540,#541);
#543=CYLINDRICAL_SURFACE('',#542,2.35);
#544=CARTESIAN_POINT('',(17.05,33.9,6.));
#545=VERTEX_POINT('',#544);
#546=CARTESIAN_POINT('',(17.05,33.9,10.));
#547=DIRECTION('',(-0.,-0.,-1.));
#548=VECTOR('',#547,4.);
#549=LINE('',#546,#548);
#550=EDGE_CURVE('',#177,#545,#549,.T.);
#551=ORIENTED_EDGE('',*,*,#550,.F.);
#552=ORIENTED_EDGE('',*,*,#183,.T.);
#553=ORIENTED_EDGE('',*,*,#550,.T.);
#554=CARTESIAN_POINT('',(14.7,33.9,6.));
#555=DIRECTION('',(0.,0.,1.));
#556=DIRECTION('',(1.,0.,-0.));
#557=AXIS2_PLACEMENT_3D('',#554,#555,#556);
#558=CIRCLE('',#557,2.35);
#559=EDGE_CURVE('',#545,#545,#558,.T.);
#560=ORIENTED_EDGE('',*,*,#559,.F.);
#561=EDGE_LOOP('',(#551,#552,#553,#560));
#562=FACE_BOUND('',#561,.T.);
#563=ADVANCED_FACE('',(#562),#543,.F.);
#564=CARTESIAN_POINT('',(0.,0.,6.));
#565=DIRECTION('',(0.,0.,1.));
#566=DIRECTION('',(1.,0.,0.));
#567=AXIS2_PLACEMENT_3D('',#564,#565,#566);
#568=PLANE('',#567);
#569=ORIENTED_EDGE('',*,*,#559,.T.);
#570=EDGE_LOOP('',(#569));
#571=FACE_BOUND('',#570,.T.);
#572=ADVANCED_FACE('',(#571),#568,.T.);
#573=CARTESIAN_POINT('',(0.,-26.6,4.));
#574=DIRECTION('',(-0.,0.,1.));
#575=DIRECTION('',(1.,0.,0.));
#576=AXIS2_PLACEMENT_3D('',#573,#574,#575);
#577=PLANE('',#576);
#578=ORIENTED_EDGE('',*,*,#48,.T.);
#579=CARTESIAN_POINT('',(6.,-28.9,4.));
#580=DIRECTION('',(0.,-1.,0.));
#581=VECTOR('',#580,10.);
#582=LINE('',#579,#581);
#583=EDGE_CURVE('',#107,#33,#582,.T.);
#584=ORIENTED_EDGE('',*,*,#583,.F.);
#585=ORIENTED_EDGE('',*,*,#166,.T.);
#586=CARTESIAN_POINT('',(-6.,-28.9,4.));
#587=DIRECTION('',(0.,-1.,0.));
#588=VECTOR('',#587,10.);
#589=LINE('',#586,#588);
#590=EDGE_CURVE('',#155,#43,#589,.T.);
#591=ORIENTED_EDGE('',*,*,#590,.T.);
#592=EDGE_LOOP('',(#578,#584,#585,#591));
#593=FACE_BOUND('',#592,.T.);
#594=ADVANCED_FACE('',(#593),#577,.T.);
#595=CARTESIAN_POINT('',(6.,-26.6,7.));
#596=DIRECTION('',(-1.,0.,0.));
#597=DIRECTION('',(0.,0.,1.));
#598=AXIS2_PLACEMENT_3D('',#595,#596,#597);
#599=PLANE('',#598);
#600=ORIENTED_EDGE('',*,*,#40,.T.);
#601=ORIENTED_EDGE('',*,*,#225,.F.);
#602=ORIENTED_EDGE('',*,*,#112,.T.);
#603=ORIENTED_EDGE('',*,*,#583,.T.);
#604=EDGE_LOOP('',(#600,#601,#602,#603));
#605=FACE_BOUND('',#604,.T.);
#606=ADVANCED_FACE('',(#605),#599,.T.);
#607=CARTESIAN_POINT('',(-6.,-26.6,7.));
#608=DIRECTION('',(1.,0.,0.));
#609=DIRECTION('',(0.,0.,-1.));
#610=AXIS2_PLACEMENT_3D('',#607,#608,#609);
#611=PLANE('',#610);
#612=ORIENTED_EDGE('',*,*,#56,.T.);
#613=ORIENTED_EDGE('',*,*,#590,.F.);
#614=ORIENTED_EDGE('',*,*,#160,.T.);
#615=ORIENTED_EDGE('',*,*,#255,.T.);
#616=EDGE_LOOP('',(#612,#613,#614,#615));
#617=FACE_BOUND('',#616,.T.);
#618=ADVANCED_FACE('',(#617),#611,.T.);
#619=CLOSED_SHELL('',(#98,#170,#282,#306,#330,#347,#359,#390,#407,#424,#436,#461,#470,#495,#504,#529,#538,#563,#572,#594,#606,#618));
#620=MANIFOLD_SOLID_BREP('Body 01',#619);
#621=COLOUR_RGB('',0.627451003,0.627451003,0.643137276);
#622=FILL_AREA_STYLE_COLOUR('',#621);
#623=FILL_AREA_STYLE('',(#622));
#624=SURFACE_STYLE_FILL_AREA(#623);
#625=SURFACE_SIDE_STYLE('',(#624));
#626=SURFACE_STYLE_USAGE(.BOTH.,#625);
#627=PRESENTATION_STYLE_ASSIGNMENT((#626));
#26=STYLED_ITEM('',(#627),#620);
#16=SHAPE_REPRESENTATION('root',(#15),#10);
#17=ADVANCED_BREP_SHAPE_REPRESENTATION('root',(#620),#10);
#635=SHAPE_REPRESENTATION_RELATIONSHIP('','',#16,#17);
#636=CARTESIAN_POINT('',(0.,0.,0.));
#637=DIRECTION('',(0.,0.,1.));
#638=DIRECTION('',(1.,0.,0.));
#639=AXIS2_PLACEMENT_3D('',#636,#637,#638);
#641=MAPPED_ITEM('',#640,#639);
#640=REPRESENTATION_MAP(#639,#16);
#642=APPLICATION_CONTEXT('Managed model based 3d engineering');
#643=APPLICATION_PROTOCOL_DEFINITION('international standard','ap242_managed_model_based_3d_engineering',2014,#642);
#644=PRODUCT_CONTEXT('',#642,'mechanical');
#645=PRODUCT_DEFINITION_CONTEXT('part definition',#642,'design');
#24=PRODUCT('root','root','',(#644));
#646=PRODUCT_RELATED_PRODUCT_CATEGORY('part','',(#24));
#647=PRODUCT_DEFINITION_FORMATION_WITH_SPECIFIED_SOURCE('','',#24,.NOT_KNOWN.);
#25=PRODUCT_DEFINITION('design','',#647,#645);
#23=PRODUCT_DEFINITION_SHAPE('','',#25);
#648=SHAPE_DEFINITION_REPRESENTATION(#23,#16);
#11=DRAUGHTING_MODEL('',(#641),#10);
#649=DESCRIPTIVE_REPRESENTATION_ITEM('KEY','/Users/aidenlim/Library/Containers/com.shapr3d.shapr/Data/tmp/476FC545-253F-43BD-8DCD-7AD1A493114C.tmp');
#650=PROPERTY_DEFINITION('KEY','',#25);
#651=REPRESENTATION('',(#649),#10);
#652=PROPERTY_DEFINITION_REPRESENTATION(#650,#651);
#653=GENERAL_PROPERTY('','KEY','');
#654=GENERAL_PROPERTY_ASSOCIATION('','',#653,#650);
#1=MECHANICAL_DESIGN_GEOMETRIC_PRESENTATION_REPRESENTATION('',(#26),#10);
ENDSEC;
END-ISO-10303-21;
