ISO-10303-21;
HEADER;

/* File generated by Shapr3D Version 26.70.0.10837 */

FILE_DESCRIPTION(('HOOPS Exchange Step'),'2;1');

FILE_NAME('/Users/aidenlim/Library/Containers/com.shapr3d.shapr/Data/tmp/export/temp_export',
'2026-06-11T20:40:16+08:00',
('aidenlim'),
('Shapr3D Limited'),
'HOOPS Exchange 2025.9',
'Shapr3D',
'Authorized');

FILE_SCHEMA( ('AP242_MANAGED_MODEL_BASED_3D_ENGINEERING_MIM_LF {1 0 10303 442 1 1 4}') );

ENDSEC;

DATA;
#3=(NAMED_UNIT(*)PLANE_ANGLE_UNIT()SI_UNIT($,.RADIAN.));
#4=PLANE_ANGLE_MEASURE_WITH_UNIT(PLANE_ANGLE_MEASURE(0.0174532925),#3);
#5=(CONVERSION_BASED_UNIT('DEGREE',#4)NAMED_UNIT(#6)PLANE_ANGLE_UNIT());
#6=DIMENSIONAL_EXPONENTS(0.,0.,0.,0.,0.,0.,0.);
#7=(NAMED_UNIT(*)SI_UNIT($,.STERADIAN.)SOLID_ANGLE_UNIT());
#8=(LENGTH_UNIT()NAMED_UNIT(*)SI_UNIT(.MILLI.,.METRE.));
#9=UNCERTAINTY_MEASURE_WITH_UNIT(LENGTH_MEASURE(1.000000E-05),#8,'DISTANCE_ACCURACY_VALUE','Maximum Tolerance applied to model');
#10=(GEOMETRIC_REPRESENTATION_CONTEXT(3)GLOBAL_UNCERTAINTY_ASSIGNED_CONTEXT((#9))GLOBAL_UNIT_ASSIGNED_CONTEXT((#8,#5,#7))REPRESENTATION_CONTEXT('','root'));
#12=CARTESIAN_POINT('',(0.,0.,0.));
#13=DIRECTION('',(0.,0.,1.));
#14=DIRECTION('',(1.,0.,0.));
#15=AXIS2_PLACEMENT_3D('TS3D_PRODUCT_CSYS',#12,#13,#14);
#27=CARTESIAN_POINT('',(19.7,0.,19.1));
#28=DIRECTION('',(-1.,-0.,0.));
#29=DIRECTION('',(0.,-1.,0.));
#30=AXIS2_PLACEMENT_3D('',#27,#28,#29);
#31=PLANE('',#30);
#32=CARTESIAN_POINT('',(19.7,38.9,22.1));
#33=VERTEX_POINT('',#32);
#34=CARTESIAN_POINT('',(19.7,-38.9,22.1));
#35=VERTEX_POINT('',#34);
#36=CARTESIAN_POINT('',(19.7,38.9,22.1));
#37=DIRECTION('',(0.,-1.,0.));
#38=VECTOR('',#37,77.8);
#39=LINE('',#36,#38);
#40=EDGE_CURVE('',#33,#35,#39,.T.);
#41=ORIENTED_EDGE('',*,*,#40,.T.);
#42=CARTESIAN_POINT('',(19.7,-38.9,19.1));
#43=VERTEX_POINT('',#42);
#44=CARTESIAN_POINT('',(19.7,-38.9,19.1));
#45=DIRECTION('',(0.,0.,1.));
#46=VECTOR('',#45,3.);
#47=LINE('',#44,#46);
#48=EDGE_CURVE('',#43,#35,#47,.T.);
#49=ORIENTED_EDGE('',*,*,#48,.F.);
#50=CARTESIAN_POINT('',(19.7,38.9,19.1));
#51=VERTEX_POINT('',#50);
#52=CARTESIAN_POINT('',(19.7,38.9,19.1));
#53=DIRECTION('',(0.,-1.,0.));
#54=VECTOR('',#53,77.8);
#55=LINE('',#52,#54);
#56=EDGE_CURVE('',#51,#43,#55,.T.);
#57=ORIENTED_EDGE('',*,*,#56,.F.);
#58=CARTESIAN_POINT('',(19.7,38.9,19.1));
#59=DIRECTION('',(0.,0.,1.));
#60=VECTOR('',#59,3.);
#61=LINE('',#58,#60);
#62=EDGE_CURVE('',#51,#33,#61,.T.);
#63=ORIENTED_EDGE('',*,*,#62,.T.);
#64=EDGE_LOOP('',(#41,#49,#57,#63));
#65=FACE_BOUND('',#64,.T.);
#66=ADVANCED_FACE('',(#65),#31,.F.);
#67=CARTESIAN_POINT('',(-0.,38.9,19.1));
#68=DIRECTION('',(0.,-1.,0.));
#69=DIRECTION('',(1.,0.,0.));
#70=AXIS2_PLACEMENT_3D('',#67,#68,#69);
#71=PLANE('',#70);
#72=CARTESIAN_POINT('',(-19.7,38.9,22.1));
#73=VERTEX_POINT('',#72);
#74=CARTESIAN_POINT('',(-19.7,38.9,22.1));
#75=DIRECTION('',(1.,0.,0.));
#76=VECTOR('',#75,39.4);
#77=LINE('',#74,#76);
#78=EDGE_CURVE('',#73,#33,#77,.T.);
#79=ORIENTED_EDGE('',*,*,#78,.T.);
#80=ORIENTED_EDGE('',*,*,#62,.F.);
#81=CARTESIAN_POINT('',(-19.7,38.9,19.1));
#82=VERTEX_POINT('',#81);
#83=CARTESIAN_POINT('',(-19.7,38.9,19.1));
#84=DIRECTION('',(1.,0.,0.));
#85=VECTOR('',#84,39.4);
#86=LINE('',#83,#85);
#87=EDGE_CURVE('',#82,#51,#86,.T.);
#88=ORIENTED_EDGE('',*,*,#87,.F.);
#89=CARTESIAN_POINT('',(-19.7,38.9,19.1));
#90=DIRECTION('',(0.,0.,1.));
#91=VECTOR('',#90,3.);
#92=LINE('',#89,#91);
#93=EDGE_CURVE('',#82,#73,#92,.T.);
#94=ORIENTED_EDGE('',*,*,#93,.T.);
#95=EDGE_LOOP('',(#79,#80,#88,#94));
#96=FACE_BOUND('',#95,.T.);
#97=ADVANCED_FACE('',(#96),#71,.F.);
#98=CARTESIAN_POINT('',(-19.7,-0.,19.1));
#99=DIRECTION('',(1.,0.,0.));
#100=DIRECTION('',(-0.,1.,0.));
#101=AXIS2_PLACEMENT_3D('',#98,#99,#100);
#102=PLANE('',#101);
#103=CARTESIAN_POINT('',(-19.7,-38.9,22.1));
#104=VERTEX_POINT('',#103);
#105=CARTESIAN_POINT('',(-19.7,-38.9,22.1));
#106=DIRECTION('',(-0.,1.,0.));
#107=VECTOR('',#106,77.8);
#108=LINE('',#105,#107);
#109=EDGE_CURVE('',#104,#73,#108,.T.);
#110=ORIENTED_EDGE('',*,*,#109,.T.);
#111=ORIENTED_EDGE('',*,*,#93,.F.);
#112=CARTESIAN_POINT('',(-19.7,-38.9,19.1));
#113=VERTEX_POINT('',#112);
#114=CARTESIAN_POINT('',(-19.7,-38.9,19.1));
#115=DIRECTION('',(-0.,1.,0.));
#116=VECTOR('',#115,77.8);
#117=LINE('',#114,#116);
#118=EDGE_CURVE('',#113,#82,#117,.T.);
#119=ORIENTED_EDGE('',*,*,#118,.F.);
#120=CARTESIAN_POINT('',(-19.7,-38.9,19.1));
#121=DIRECTION('',(0.,0.,1.));
#122=VECTOR('',#121,3.);
#123=LINE('',#120,#122);
#124=EDGE_CURVE('',#113,#104,#123,.T.);
#125=ORIENTED_EDGE('',*,*,#124,.T.);
#126=EDGE_LOOP('',(#110,#111,#119,#125));
#127=FACE_BOUND('',#126,.T.);
#128=ADVANCED_FACE('',(#127),#102,.F.);
#129=CARTESIAN_POINT('',(0.,-38.9,19.1));
#130=DIRECTION('',(-0.,1.,0.));
#131=DIRECTION('',(-1.,-0.,0.));
#132=AXIS2_PLACEMENT_3D('',#129,#130,#131);
#133=PLANE('',#132);
#134=CARTESIAN_POINT('',(19.7,-38.9,22.1));
#135=DIRECTION('',(-1.,-0.,0.));
#136=VECTOR('',#135,39.4);
#137=LINE('',#134,#136);
#138=EDGE_CURVE('',#35,#104,#137,.T.);
#139=ORIENTED_EDGE('',*,*,#138,.T.);
#140=ORIENTED_EDGE('',*,*,#124,.F.);
#141=CARTESIAN_POINT('',(19.7,-38.9,19.1));
#142=DIRECTION('',(-1.,-0.,0.));
#143=VECTOR('',#142,39.4);
#144=LINE('',#141,#143);
#145=EDGE_CURVE('',#43,#113,#144,.T.);
#146=ORIENTED_EDGE('',*,*,#145,.F.);
#147=ORIENTED_EDGE('',*,*,#48,.T.);
#148=EDGE_LOOP('',(#139,#140,#146,#147));
#149=FACE_BOUND('',#148,.T.);
#150=ADVANCED_FACE('',(#149),#133,.F.);
#151=CARTESIAN_POINT('',(0.,0.,19.1));
#152=DIRECTION('',(0.,0.,1.));
#153=DIRECTION('',(1.,0.,0.));
#154=AXIS2_PLACEMENT_3D('',#151,#152,#153);
#155=PLANE('',#154);
#156=CARTESIAN_POINT('',(-13.,-33.982794133,19.1));
#157=VERTEX_POINT('',#156);
#158=CARTESIAN_POINT('',(-14.7,-33.982794133,19.1));
#159=DIRECTION('',(0.,0.,1.));
#160=DIRECTION('',(1.,0.,-0.));
#161=AXIS2_PLACEMENT_3D('',#158,#159,#160);
#162=CIRCLE('',#161,1.7);
#163=EDGE_CURVE('',#157,#157,#162,.T.);
#164=ORIENTED_EDGE('',*,*,#163,.T.);
#165=EDGE_LOOP('',(#164));
#166=FACE_BOUND('',#165,.T.);
#167=CARTESIAN_POINT('',(-13.,33.9,19.1));
#168=VERTEX_POINT('',#167);
#169=CARTESIAN_POINT('',(-14.7,33.9,19.1));
#170=DIRECTION('',(0.,0.,1.));
#171=DIRECTION('',(1.,0.,-0.));
#172=AXIS2_PLACEMENT_3D('',#169,#170,#171);
#173=CIRCLE('',#172,1.7);
#174=EDGE_CURVE('',#168,#168,#173,.T.);
#175=ORIENTED_EDGE('',*,*,#174,.T.);
#176=EDGE_LOOP('',(#175));
#177=FACE_BOUND('',#176,.T.);
#178=CARTESIAN_POINT('',(16.4,33.9,19.1));
#179=VERTEX_POINT('',#178);
#180=CARTESIAN_POINT('',(14.7,33.9,19.1));
#181=DIRECTION('',(0.,0.,1.));
#182=DIRECTION('',(1.,0.,-0.));
#183=AXIS2_PLACEMENT_3D('',#180,#181,#182);
#184=CIRCLE('',#183,1.7);
#185=EDGE_CURVE('',#179,#179,#184,.T.);
#186=ORIENTED_EDGE('',*,*,#185,.T.);
#187=EDGE_LOOP('',(#186));
#188=FACE_BOUND('',#187,.T.);
#189=CARTESIAN_POINT('',(16.4,-33.9,19.1));
#190=VERTEX_POINT('',#189);
#191=CARTESIAN_POINT('',(14.7,-33.9,19.1));
#192=DIRECTION('',(0.,0.,1.));
#193=DIRECTION('',(1.,0.,-0.));
#194=AXIS2_PLACEMENT_3D('',#191,#192,#193);
#195=CIRCLE('',#194,1.7);
#196=EDGE_CURVE('',#190,#190,#195,.T.);
#197=ORIENTED_EDGE('',*,*,#196,.T.);
#198=EDGE_LOOP('',(#197));
#199=FACE_BOUND('',#198,.T.);
#200=CARTESIAN_POINT('',(-6.5,-7.025,19.1));
#201=VERTEX_POINT('',#200);
#202=CARTESIAN_POINT('',(6.5,-7.025,19.1));
#203=VERTEX_POINT('',#202);
#204=CARTESIAN_POINT('',(-6.5,-7.025,19.1));
#205=DIRECTION('',(1.,0.,-0.));
#206=VECTOR('',#205,13.);
#207=LINE('',#204,#206);
#208=EDGE_CURVE('',#201,#203,#207,.T.);
#209=ORIENTED_EDGE('',*,*,#208,.T.);
#210=CARTESIAN_POINT('',(7.,-6.525,19.1));
#211=VERTEX_POINT('',#210);
#212=CARTESIAN_POINT('',(6.5,-6.525,19.1));
#213=DIRECTION('',(0.,0.,1.));
#214=DIRECTION('',(1.,0.,-0.));
#215=AXIS2_PLACEMENT_3D('',#212,#213,#214);
#216=CIRCLE('',#215,0.5);
#217=EDGE_CURVE('',#203,#211,#216,.T.);
#218=ORIENTED_EDGE('',*,*,#217,.T.);
#219=CARTESIAN_POINT('',(7.,6.475,19.1));
#220=VERTEX_POINT('',#219);
#221=CARTESIAN_POINT('',(7.,-6.525,19.1));
#222=DIRECTION('',(0.,1.,0.));
#223=VECTOR('',#222,13.);
#224=LINE('',#221,#223);
#225=EDGE_CURVE('',#211,#220,#224,.T.);
#226=ORIENTED_EDGE('',*,*,#225,.T.);
#227=CARTESIAN_POINT('',(6.5,6.975,19.1));
#228=VERTEX_POINT('',#227);
#229=CARTESIAN_POINT('',(6.5,6.475,19.1));
#230=DIRECTION('',(0.,0.,1.));
#231=DIRECTION('',(1.,0.,-0.));
#232=AXIS2_PLACEMENT_3D('',#229,#230,#231);
#233=CIRCLE('',#232,0.5);
#234=EDGE_CURVE('',#220,#228,#233,.T.);
#235=ORIENTED_EDGE('',*,*,#234,.T.);
#236=CARTESIAN_POINT('',(-6.5,6.975,19.1));
#237=VERTEX_POINT('',#236);
#238=CARTESIAN_POINT('',(-6.5,6.975,19.1));
#239=DIRECTION('',(1.,0.,-0.));
#240=VECTOR('',#239,13.);
#241=LINE('',#238,#240);
#242=EDGE_CURVE('',#237,#228,#241,.T.);
#243=ORIENTED_EDGE('',*,*,#242,.F.);
#244=CARTESIAN_POINT('',(-7.,6.475,19.1));
#245=VERTEX_POINT('',#244);
#246=CARTESIAN_POINT('',(-6.5,6.475,19.1));
#247=DIRECTION('',(0.,0.,1.));
#248=DIRECTION('',(1.,0.,-0.));
#249=AXIS2_PLACEMENT_3D('',#246,#247,#248);
#250=CIRCLE('',#249,0.5);
#251=EDGE_CURVE('',#237,#245,#250,.T.);
#252=ORIENTED_EDGE('',*,*,#251,.T.);
#253=CARTESIAN_POINT('',(-7.,-6.525,19.1));
#254=VERTEX_POINT('',#253);
#255=CARTESIAN_POINT('',(-7.,-6.525,19.1));
#256=DIRECTION('',(0.,1.,0.));
#257=VECTOR('',#256,13.);
#258=LINE('',#255,#257);
#259=EDGE_CURVE('',#254,#245,#258,.T.);
#260=ORIENTED_EDGE('',*,*,#259,.F.);
#261=CARTESIAN_POINT('',(-6.5,-6.525,19.1));
#262=DIRECTION('',(0.,0.,1.));
#263=DIRECTION('',(1.,0.,-0.));
#264=AXIS2_PLACEMENT_3D('',#261,#262,#263);
#265=CIRCLE('',#264,0.5);
#266=EDGE_CURVE('',#254,#201,#265,.T.);
#267=ORIENTED_EDGE('',*,*,#266,.T.);
#268=EDGE_LOOP('',(#209,#218,#226,#235,#243,#252,#260,#267));
#269=FACE_BOUND('',#268,.T.);
#270=CARTESIAN_POINT('',(-6.5,-26.075,19.1));
#271=VERTEX_POINT('',#270);
#272=CARTESIAN_POINT('',(6.5,-26.075,19.1));
#273=VERTEX_POINT('',#272);
#274=CARTESIAN_POINT('',(-6.5,-26.075,19.1));
#275=DIRECTION('',(1.,0.,-0.));
#276=VECTOR('',#275,13.);
#277=LINE('',#274,#276);
#278=EDGE_CURVE('',#271,#273,#277,.T.);
#279=ORIENTED_EDGE('',*,*,#278,.T.);
#280=CARTESIAN_POINT('',(7.,-25.575,19.1));
#281=VERTEX_POINT('',#280);
#282=CARTESIAN_POINT('',(6.5,-25.575,19.1));
#283=DIRECTION('',(0.,0.,1.));
#284=DIRECTION('',(1.,0.,-0.));
#285=AXIS2_PLACEMENT_3D('',#282,#283,#284);
#286=CIRCLE('',#285,0.5);
#287=EDGE_CURVE('',#273,#281,#286,.T.);
#288=ORIENTED_EDGE('',*,*,#287,.T.);
#289=CARTESIAN_POINT('',(7.,-12.575,19.1));
#290=VERTEX_POINT('',#289);
#291=CARTESIAN_POINT('',(7.,-25.575,19.1));
#292=DIRECTION('',(0.,1.,0.));
#293=VECTOR('',#292,13.);
#294=LINE('',#291,#293);
#295=EDGE_CURVE('',#281,#290,#294,.T.);
#296=ORIENTED_EDGE('',*,*,#295,.T.);
#297=CARTESIAN_POINT('',(6.5,-12.075,19.1));
#298=VERTEX_POINT('',#297);
#299=CARTESIAN_POINT('',(6.5,-12.575,19.1));
#300=DIRECTION('',(0.,0.,1.));
#301=DIRECTION('',(1.,0.,-0.));
#302=AXIS2_PLACEMENT_3D('',#299,#300,#301);
#303=CIRCLE('',#302,0.5);
#304=EDGE_CURVE('',#290,#298,#303,.T.);
#305=ORIENTED_EDGE('',*,*,#304,.T.);
#306=CARTESIAN_POINT('',(-6.5,-12.075,19.1));
#307=VERTEX_POINT('',#306);
#308=CARTESIAN_POINT('',(-6.5,-12.075,19.1));
#309=DIRECTION('',(1.,0.,-0.));
#310=VECTOR('',#309,13.);
#311=LINE('',#308,#310);
#312=EDGE_CURVE('',#307,#298,#311,.T.);
#313=ORIENTED_EDGE('',*,*,#312,.F.);
#314=CARTESIAN_POINT('',(-7.,-12.575,19.1));
#315=VERTEX_POINT('',#314);
#316=CARTESIAN_POINT('',(-6.5,-12.575,19.1));
#317=DIRECTION('',(0.,0.,1.));
#318=DIRECTION('',(1.,0.,-0.));
#319=AXIS2_PLACEMENT_3D('',#316,#317,#318);
#320=CIRCLE('',#319,0.5);
#321=EDGE_CURVE('',#307,#315,#320,.T.);
#322=ORIENTED_EDGE('',*,*,#321,.T.);
#323=CARTESIAN_POINT('',(-7.,-25.575,19.1));
#324=VERTEX_POINT('',#323);
#325=CARTESIAN_POINT('',(-7.,-25.575,19.1));
#326=DIRECTION('',(0.,1.,0.));
#327=VECTOR('',#326,13.);
#328=LINE('',#325,#327);
#329=EDGE_CURVE('',#324,#315,#328,.T.);
#330=ORIENTED_EDGE('',*,*,#329,.F.);
#331=CARTESIAN_POINT('',(-6.5,-25.575,19.1));
#332=DIRECTION('',(0.,0.,1.));
#333=DIRECTION('',(1.,0.,-0.));
#334=AXIS2_PLACEMENT_3D('',#331,#332,#333);
#335=CIRCLE('',#334,0.5);
#336=EDGE_CURVE('',#324,#271,#335,.T.);
#337=ORIENTED_EDGE('',*,*,#336,.T.);
#338=EDGE_LOOP('',(#279,#288,#296,#305,#313,#322,#330,#337));
#339=FACE_BOUND('',#338,.T.);
#340=CARTESIAN_POINT('',(-6.5,12.025,19.1));
#341=VERTEX_POINT('',#340);
#342=CARTESIAN_POINT('',(6.5,12.025,19.1));
#343=VERTEX_POINT('',#342);
#344=CARTESIAN_POINT('',(-6.5,12.025,19.1));
#345=DIRECTION('',(1.,0.,-0.));
#346=VECTOR('',#345,13.);
#347=LINE('',#344,#346);
#348=EDGE_CURVE('',#341,#343,#347,.T.);
#349=ORIENTED_EDGE('',*,*,#348,.T.);
#350=CARTESIAN_POINT('',(7.,12.525,19.1));
#351=VERTEX_POINT('',#350);
#352=CARTESIAN_POINT('',(6.5,12.525,19.1));
#353=DIRECTION('',(0.,0.,1.));
#354=DIRECTION('',(1.,0.,-0.));
#355=AXIS2_PLACEMENT_3D('',#352,#353,#354);
#356=CIRCLE('',#355,0.5);
#357=EDGE_CURVE('',#343,#351,#356,.T.);
#358=ORIENTED_EDGE('',*,*,#357,.T.);
#359=CARTESIAN_POINT('',(7.,25.525,19.1));
#360=VERTEX_POINT('',#359);
#361=CARTESIAN_POINT('',(7.,12.525,19.1));
#362=DIRECTION('',(0.,1.,0.));
#363=VECTOR('',#362,13.);
#364=LINE('',#361,#363);
#365=EDGE_CURVE('',#351,#360,#364,.T.);
#366=ORIENTED_EDGE('',*,*,#365,.T.);
#367=CARTESIAN_POINT('',(6.5,26.025,19.1));
#368=VERTEX_POINT('',#367);
#369=CARTESIAN_POINT('',(6.5,25.525,19.1));
#370=DIRECTION('',(0.,0.,1.));
#371=DIRECTION('',(1.,0.,-0.));
#372=AXIS2_PLACEMENT_3D('',#369,#370,#371);
#373=CIRCLE('',#372,0.5);
#374=EDGE_CURVE('',#360,#368,#373,.T.);
#375=ORIENTED_EDGE('',*,*,#374,.T.);
#376=CARTESIAN_POINT('',(-6.5,26.025,19.1));
#377=VERTEX_POINT('',#376);
#378=CARTESIAN_POINT('',(-6.5,26.025,19.1));
#379=DIRECTION('',(1.,0.,-0.));
#380=VECTOR('',#379,13.);
#381=LINE('',#378,#380);
#382=EDGE_CURVE('',#377,#368,#381,.T.);
#383=ORIENTED_EDGE('',*,*,#382,.F.);
#384=CARTESIAN_POINT('',(-7.,25.525,19.1));
#385=VERTEX_POINT('',#384);
#386=CARTESIAN_POINT('',(-6.5,25.525,19.1));
#387=DIRECTION('',(0.,0.,1.));
#388=DIRECTION('',(1.,0.,-0.));
#389=AXIS2_PLACEMENT_3D('',#386,#387,#388);
#390=CIRCLE('',#389,0.5);
#391=EDGE_CURVE('',#377,#385,#390,.T.);
#392=ORIENTED_EDGE('',*,*,#391,.T.);
#393=CARTESIAN_POINT('',(-7.,12.525,19.1));
#394=VERTEX_POINT('',#393);
#395=CARTESIAN_POINT('',(-7.,12.525,19.1));
#396=DIRECTION('',(0.,1.,0.));
#397=VECTOR('',#396,13.);
#398=LINE('',#395,#397);
#399=EDGE_CURVE('',#394,#385,#398,.T.);
#400=ORIENTED_EDGE('',*,*,#399,.F.);
#401=CARTESIAN_POINT('',(-6.5,12.525,19.1));
#402=DIRECTION('',(0.,0.,1.));
#403=DIRECTION('',(1.,0.,-0.));
#404=AXIS2_PLACEMENT_3D('',#401,#402,#403);
#405=CIRCLE('',#404,0.5);
#406=EDGE_CURVE('',#394,#341,#405,.T.);
#407=ORIENTED_EDGE('',*,*,#406,.T.);
#408=EDGE_LOOP('',(#349,#358,#366,#375,#383,#392,#400,#407));
#409=FACE_BOUND('',#408,.T.);
#410=ORIENTED_EDGE('',*,*,#56,.T.);
#411=ORIENTED_EDGE('',*,*,#145,.T.);
#412=ORIENTED_EDGE('',*,*,#118,.T.);
#413=ORIENTED_EDGE('',*,*,#87,.T.);
#414=EDGE_LOOP('',(#410,#411,#412,#413));
#415=FACE_BOUND('',#414,.T.);
#416=ADVANCED_FACE('',(#166,#177,#188,#199,#269,#339,#409,#415),#155,.F.);
#417=CARTESIAN_POINT('',(0.,0.,22.1));
#418=DIRECTION('',(0.,0.,1.));
#419=DIRECTION('',(1.,0.,0.));
#420=AXIS2_PLACEMENT_3D('',#417,#418,#419);
#421=PLANE('',#420);
#422=CARTESIAN_POINT('',(-13.,-33.982794133,22.1));
#423=VERTEX_POINT('',#422);
#424=CARTESIAN_POINT('',(-14.7,-33.982794133,22.1));
#425=DIRECTION('',(0.,0.,1.));
#426=DIRECTION('',(1.,0.,-0.));
#427=AXIS2_PLACEMENT_3D('',#424,#425,#426);
#428=CIRCLE('',#427,1.7);
#429=EDGE_CURVE('',#423,#423,#428,.T.);
#430=ORIENTED_EDGE('',*,*,#429,.F.);
#431=EDGE_LOOP('',(#430));
#432=FACE_BOUND('',#431,.T.);
#433=CARTESIAN_POINT('',(-13.,33.9,22.1));
#434=VERTEX_POINT('',#433);
#435=CARTESIAN_POINT('',(-14.7,33.9,22.1));
#436=DIRECTION('',(0.,0.,1.));
#437=DIRECTION('',(1.,0.,-0.));
#438=AXIS2_PLACEMENT_3D('',#435,#436,#437);
#439=CIRCLE('',#438,1.7);
#440=EDGE_CURVE('',#434,#434,#439,.T.);
#441=ORIENTED_EDGE('',*,*,#440,.F.);
#442=EDGE_LOOP('',(#441));
#443=FACE_BOUND('',#442,.T.);
#444=CARTESIAN_POINT('',(16.4,33.9,22.1));
#445=VERTEX_POINT('',#444);
#446=CARTESIAN_POINT('',(14.7,33.9,22.1));
#447=DIRECTION('',(0.,0.,1.));
#448=DIRECTION('',(1.,0.,-0.));
#449=AXIS2_PLACEMENT_3D('',#446,#447,#448);
#450=CIRCLE('',#449,1.7);
#451=EDGE_CURVE('',#445,#445,#450,.T.);
#452=ORIENTED_EDGE('',*,*,#451,.F.);
#453=EDGE_LOOP('',(#452));
#454=FACE_BOUND('',#453,.T.);
#455=CARTESIAN_POINT('',(16.4,-33.9,22.1));
#456=VERTEX_POINT('',#455);
#457=CARTESIAN_POINT('',(14.7,-33.9,22.1));
#458=DIRECTION('',(0.,0.,1.));
#459=DIRECTION('',(1.,0.,-0.));
#460=AXIS2_PLACEMENT_3D('',#457,#458,#459);
#461=CIRCLE('',#460,1.7);
#462=EDGE_CURVE('',#456,#456,#461,.T.);
#463=ORIENTED_EDGE('',*,*,#462,.F.);
#464=EDGE_LOOP('',(#463));
#465=FACE_BOUND('',#464,.T.);
#466=CARTESIAN_POINT('',(6.5,-7.025,22.1));
#467=VERTEX_POINT('',#466);
#468=CARTESIAN_POINT('',(7.,-6.525,22.1));
#469=VERTEX_POINT('',#468);
#470=CARTESIAN_POINT('',(6.5,-6.525,22.1));
#471=DIRECTION('',(0.,0.,1.));
#472=DIRECTION('',(1.,0.,-0.));
#473=AXIS2_PLACEMENT_3D('',#470,#471,#472);
#474=CIRCLE('',#473,0.5);
#475=EDGE_CURVE('',#467,#469,#474,.T.);
#476=ORIENTED_EDGE('',*,*,#475,.F.);
#477=CARTESIAN_POINT('',(-6.5,-7.025,22.1));
#478=VERTEX_POINT('',#477);
#479=CARTESIAN_POINT('',(-6.5,-7.025,22.1));
#480=DIRECTION('',(1.,0.,-0.));
#481=VECTOR('',#480,13.);
#482=LINE('',#479,#481);
#483=EDGE_CURVE('',#478,#467,#482,.T.);
#484=ORIENTED_EDGE('',*,*,#483,.F.);
#485=CARTESIAN_POINT('',(-7.,-6.525,22.1));
#486=VERTEX_POINT('',#485);
#487=CARTESIAN_POINT('',(-6.5,-6.525,22.1));
#488=DIRECTION('',(0.,0.,1.));
#489=DIRECTION('',(1.,0.,-0.));
#490=AXIS2_PLACEMENT_3D('',#487,#488,#489);
#491=CIRCLE('',#490,0.5);
#492=EDGE_CURVE('',#486,#478,#491,.T.);
#493=ORIENTED_EDGE('',*,*,#492,.F.);
#494=CARTESIAN_POINT('',(-7.,6.475,22.1));
#495=VERTEX_POINT('',#494);
#496=CARTESIAN_POINT('',(-7.,-6.525,22.1));
#497=DIRECTION('',(0.,1.,0.));
#498=VECTOR('',#497,13.);
#499=LINE('',#496,#498);
#500=EDGE_CURVE('',#486,#495,#499,.T.);
#501=ORIENTED_EDGE('',*,*,#500,.T.);
#502=CARTESIAN_POINT('',(-6.5,6.975,22.1));
#503=VERTEX_POINT('',#502);
#504=CARTESIAN_POINT('',(-6.5,6.475,22.1));
#505=DIRECTION('',(0.,0.,1.));
#506=DIRECTION('',(1.,0.,-0.));
#507=AXIS2_PLACEMENT_3D('',#504,#505,#506);
#508=CIRCLE('',#507,0.5);
#509=EDGE_CURVE('',#503,#495,#508,.T.);
#510=ORIENTED_EDGE('',*,*,#509,.F.);
#511=CARTESIAN_POINT('',(6.5,6.975,22.1));
#512=VERTEX_POINT('',#511);
#513=CARTESIAN_POINT('',(-6.5,6.975,22.1));
#514=DIRECTION('',(1.,0.,-0.));
#515=VECTOR('',#514,13.);
#516=LINE('',#513,#515);
#517=EDGE_CURVE('',#503,#512,#516,.T.);
#518=ORIENTED_EDGE('',*,*,#517,.T.);
#519=CARTESIAN_POINT('',(7.,6.475,22.1));
#520=VERTEX_POINT('',#519);
#521=CARTESIAN_POINT('',(6.5,6.475,22.1));
#522=DIRECTION('',(0.,0.,1.));
#523=DIRECTION('',(1.,0.,-0.));
#524=AXIS2_PLACEMENT_3D('',#521,#522,#523);
#525=CIRCLE('',#524,0.5);
#526=EDGE_CURVE('',#520,#512,#525,.T.);
#527=ORIENTED_EDGE('',*,*,#526,.F.);
#528=CARTESIAN_POINT('',(7.,-6.525,22.1));
#529=DIRECTION('',(0.,1.,0.));
#530=VECTOR('',#529,13.);
#531=LINE('',#528,#530);
#532=EDGE_CURVE('',#469,#520,#531,.T.);
#533=ORIENTED_EDGE('',*,*,#532,.F.);
#534=EDGE_LOOP('',(#476,#484,#493,#501,#510,#518,#527,#533));
#535=FACE_BOUND('',#534,.T.);
#536=CARTESIAN_POINT('',(6.5,-26.075,22.1));
#537=VERTEX_POINT('',#536);
#538=CARTESIAN_POINT('',(7.,-25.575,22.1));
#539=VERTEX_POINT('',#538);
#540=CARTESIAN_POINT('',(6.5,-25.575,22.1));
#541=DIRECTION('',(0.,0.,1.));
#542=DIRECTION('',(1.,0.,-0.));
#543=AXIS2_PLACEMENT_3D('',#540,#541,#542);
#544=CIRCLE('',#543,0.5);
#545=EDGE_CURVE('',#537,#539,#544,.T.);
#546=ORIENTED_EDGE('',*,*,#545,.F.);
#547=CARTESIAN_POINT('',(-6.5,-26.075,22.1));
#548=VERTEX_POINT('',#547);
#549=CARTESIAN_POINT('',(-6.5,-26.075,22.1));
#550=DIRECTION('',(1.,0.,-0.));
#551=VECTOR('',#550,13.);
#552=LINE('',#549,#551);
#553=EDGE_CURVE('',#548,#537,#552,.T.);
#554=ORIENTED_EDGE('',*,*,#553,.F.);
#555=CARTESIAN_POINT('',(-7.,-25.575,22.1));
#556=VERTEX_POINT('',#555);
#557=CARTESIAN_POINT('',(-6.5,-25.575,22.1));
#558=DIRECTION('',(0.,0.,1.));
#559=DIRECTION('',(1.,0.,-0.));
#560=AXIS2_PLACEMENT_3D('',#557,#558,#559);
#561=CIRCLE('',#560,0.5);
#562=EDGE_CURVE('',#556,#548,#561,.T.);
#563=ORIENTED_EDGE('',*,*,#562,.F.);
#564=CARTESIAN_POINT('',(-7.,-12.575,22.1));
#565=VERTEX_POINT('',#564);
#566=CARTESIAN_POINT('',(-7.,-25.575,22.1));
#567=DIRECTION('',(0.,1.,0.));
#568=VECTOR('',#567,13.);
#569=LINE('',#566,#568);
#570=EDGE_CURVE('',#556,#565,#569,.T.);
#571=ORIENTED_EDGE('',*,*,#570,.T.);
#572=CARTESIAN_POINT('',(-6.5,-12.075,22.1));
#573=VERTEX_POINT('',#572);
#574=CARTESIAN_POINT('',(-6.5,-12.575,22.1));
#575=DIRECTION('',(0.,0.,1.));
#576=DIRECTION('',(1.,0.,-0.));
#577=AXIS2_PLACEMENT_3D('',#574,#575,#576);
#578=CIRCLE('',#577,0.5);
#579=EDGE_CURVE('',#573,#565,#578,.T.);
#580=ORIENTED_EDGE('',*,*,#579,.F.);
#581=CARTESIAN_POINT('',(6.5,-12.075,22.1));
#582=VERTEX_POINT('',#581);
#583=CARTESIAN_POINT('',(-6.5,-12.075,22.1));
#584=DIRECTION('',(1.,0.,-0.));
#585=VECTOR('',#584,13.);
#586=LINE('',#583,#585);
#587=EDGE_CURVE('',#573,#582,#586,.T.);
#588=ORIENTED_EDGE('',*,*,#587,.T.);
#589=CARTESIAN_POINT('',(7.,-12.575,22.1));
#590=VERTEX_POINT('',#589);
#591=CARTESIAN_POINT('',(6.5,-12.575,22.1));
#592=DIRECTION('',(0.,0.,1.));
#593=DIRECTION('',(1.,0.,-0.));
#594=AXIS2_PLACEMENT_3D('',#591,#592,#593);
#595=CIRCLE('',#594,0.5);
#596=EDGE_CURVE('',#590,#582,#595,.T.);
#597=ORIENTED_EDGE('',*,*,#596,.F.);
#598=CARTESIAN_POINT('',(7.,-25.575,22.1));
#599=DIRECTION('',(0.,1.,0.));
#600=VECTOR('',#599,13.);
#601=LINE('',#598,#600);
#602=EDGE_CURVE('',#539,#590,#601,.T.);
#603=ORIENTED_EDGE('',*,*,#602,.F.);
#604=EDGE_LOOP('',(#546,#554,#563,#571,#580,#588,#597,#603));
#605=FACE_BOUND('',#604,.T.);
#606=CARTESIAN_POINT('',(6.5,12.025,22.1));
#607=VERTEX_POINT('',#606);
#608=CARTESIAN_POINT('',(7.,12.525,22.1));
#609=VERTEX_POINT('',#608);
#610=CARTESIAN_POINT('',(6.5,12.525,22.1));
#611=DIRECTION('',(0.,0.,1.));
#612=DIRECTION('',(1.,0.,-0.));
#613=AXIS2_PLACEMENT_3D('',#610,#611,#612);
#614=CIRCLE('',#613,0.5);
#615=EDGE_CURVE('',#607,#609,#614,.T.);
#616=ORIENTED_EDGE('',*,*,#615,.F.);
#617=CARTESIAN_POINT('',(-6.5,12.025,22.1));
#618=VERTEX_POINT('',#617);
#619=CARTESIAN_POINT('',(-6.5,12.025,22.1));
#620=DIRECTION('',(1.,0.,-0.));
#621=VECTOR('',#620,13.);
#622=LINE('',#619,#621);
#623=EDGE_CURVE('',#618,#607,#622,.T.);
#624=ORIENTED_EDGE('',*,*,#623,.F.);
#625=CARTESIAN_POINT('',(-7.,12.525,22.1));
#626=VERTEX_POINT('',#625);
#627=CARTESIAN_POINT('',(-6.5,12.525,22.1));
#628=DIRECTION('',(0.,0.,1.));
#629=DIRECTION('',(1.,0.,-0.));
#630=AXIS2_PLACEMENT_3D('',#627,#628,#629);
#631=CIRCLE('',#630,0.5);
#632=EDGE_CURVE('',#626,#618,#631,.T.);
#633=ORIENTED_EDGE('',*,*,#632,.F.);
#634=CARTESIAN_POINT('',(-7.,25.525,22.1));
#635=VERTEX_POINT('',#634);
#636=CARTESIAN_POINT('',(-7.,12.525,22.1));
#637=DIRECTION('',(0.,1.,0.));
#638=VECTOR('',#637,13.);
#639=LINE('',#636,#638);
#640=EDGE_CURVE('',#626,#635,#639,.T.);
#641=ORIENTED_EDGE('',*,*,#640,.T.);
#642=CARTESIAN_POINT('',(-6.5,26.025,22.1));
#643=VERTEX_POINT('',#642);
#644=CARTESIAN_POINT('',(-6.5,25.525,22.1));
#645=DIRECTION('',(0.,0.,1.));
#646=DIRECTION('',(1.,0.,-0.));
#647=AXIS2_PLACEMENT_3D('',#644,#645,#646);
#648=CIRCLE('',#647,0.5);
#649=EDGE_CURVE('',#643,#635,#648,.T.);
#650=ORIENTED_EDGE('',*,*,#649,.F.);
#651=CARTESIAN_POINT('',(6.5,26.025,22.1));
#652=VERTEX_POINT('',#651);
#653=CARTESIAN_POINT('',(-6.5,26.025,22.1));
#654=DIRECTION('',(1.,0.,-0.));
#655=VECTOR('',#654,13.);
#656=LINE('',#653,#655);
#657=EDGE_CURVE('',#643,#652,#656,.T.);
#658=ORIENTED_EDGE('',*,*,#657,.T.);
#659=CARTESIAN_POINT('',(7.,25.525,22.1));
#660=VERTEX_POINT('',#659);
#661=CARTESIAN_POINT('',(6.5,25.525,22.1));
#662=DIRECTION('',(0.,0.,1.));
#663=DIRECTION('',(1.,0.,-0.));
#664=AXIS2_PLACEMENT_3D('',#661,#662,#663);
#665=CIRCLE('',#664,0.5);
#666=EDGE_CURVE('',#660,#652,#665,.T.);
#667=ORIENTED_EDGE('',*,*,#666,.F.);
#668=CARTESIAN_POINT('',(7.,12.525,22.1));
#669=DIRECTION('',(0.,1.,0.));
#670=VECTOR('',#669,13.);
#671=LINE('',#668,#670);
#672=EDGE_CURVE('',#609,#660,#671,.T.);
#673=ORIENTED_EDGE('',*,*,#672,.F.);
#674=EDGE_LOOP('',(#616,#624,#633,#641,#650,#658,#667,#673));
#675=FACE_BOUND('',#674,.T.);
#676=ORIENTED_EDGE('',*,*,#40,.F.);
#677=ORIENTED_EDGE('',*,*,#78,.F.);
#678=ORIENTED_EDGE('',*,*,#109,.F.);
#679=ORIENTED_EDGE('',*,*,#138,.F.);
#680=EDGE_LOOP('',(#676,#677,#678,#679));
#681=FACE_BOUND('',#680,.T.);
#682=ADVANCED_FACE('',(#432,#443,#454,#465,#535,#605,#675,#681),#421,.T.);
#683=CARTESIAN_POINT('',(6.5,12.525,-9.9));
#684=DIRECTION('',(0.,0.,1.));
#685=DIRECTION('',(1.,0.,-0.));
#686=AXIS2_PLACEMENT_3D('',#683,#684,#685);
#687=CYLINDRICAL_SURFACE('',#686,0.5);
#688=CARTESIAN_POINT('',(6.5,12.025,19.1));
#689=DIRECTION('',(0.,0.,1.));
#690=VECTOR('',#689,3.);
#691=LINE('',#688,#690);
#692=EDGE_CURVE('',#343,#607,#691,.T.);
#693=ORIENTED_EDGE('',*,*,#692,.T.);
#694=ORIENTED_EDGE('',*,*,#615,.T.);
#695=CARTESIAN_POINT('',(7.,12.525,19.1));
#696=DIRECTION('',(0.,0.,1.));
#697=VECTOR('',#696,3.);
#698=LINE('',#695,#697);
#699=EDGE_CURVE('',#351,#609,#698,.T.);
#700=ORIENTED_EDGE('',*,*,#699,.F.);
#701=ORIENTED_EDGE('',*,*,#357,.F.);
#702=EDGE_LOOP('',(#693,#694,#700,#701));
#703=FACE_BOUND('',#702,.T.);
#704=ADVANCED_FACE('',(#703),#687,.F.);
#705=CARTESIAN_POINT('',(7.,19.025,-9.9));
#706=DIRECTION('',(1.,0.,0.));
#707=DIRECTION('',(0.,0.,-1.));
#708=AXIS2_PLACEMENT_3D('',#705,#706,#707);
#709=PLANE('',#708);
#710=ORIENTED_EDGE('',*,*,#699,.T.);
#711=ORIENTED_EDGE('',*,*,#672,.T.);
#712=CARTESIAN_POINT('',(7.,25.525,19.1));
#713=DIRECTION('',(0.,0.,1.));
#714=VECTOR('',#713,3.);
#715=LINE('',#712,#714);
#716=EDGE_CURVE('',#360,#660,#715,.T.);
#717=ORIENTED_EDGE('',*,*,#716,.F.);
#718=ORIENTED_EDGE('',*,*,#365,.F.);
#719=EDGE_LOOP('',(#710,#711,#717,#718));
#720=FACE_BOUND('',#719,.T.);
#721=ADVANCED_FACE('',(#720),#709,.F.);
#722=CARTESIAN_POINT('',(6.5,25.525,-9.9));
#723=DIRECTION('',(0.,0.,1.));
#724=DIRECTION('',(1.,0.,-0.));
#725=AXIS2_PLACEMENT_3D('',#722,#723,#724);
#726=CYLINDRICAL_SURFACE('',#725,0.5);
#727=ORIENTED_EDGE('',*,*,#716,.T.);
#728=ORIENTED_EDGE('',*,*,#666,.T.);
#729=CARTESIAN_POINT('',(6.5,26.025,19.1));
#730=DIRECTION('',(0.,0.,1.));
#731=VECTOR('',#730,3.);
#732=LINE('',#729,#731);
#733=EDGE_CURVE('',#368,#652,#732,.T.);
#734=ORIENTED_EDGE('',*,*,#733,.F.);
#735=ORIENTED_EDGE('',*,*,#374,.F.);
#736=EDGE_LOOP('',(#727,#728,#734,#735));
#737=FACE_BOUND('',#736,.T.);
#738=ADVANCED_FACE('',(#737),#726,.F.);
#739=CARTESIAN_POINT('',(-0.,26.025,-9.9));
#740=DIRECTION('',(0.,-1.,0.));
#741=DIRECTION('',(0.,0.,-1.));
#742=AXIS2_PLACEMENT_3D('',#739,#740,#741);
#743=PLANE('',#742);
#744=ORIENTED_EDGE('',*,*,#382,.T.);
#745=ORIENTED_EDGE('',*,*,#733,.T.);
#746=ORIENTED_EDGE('',*,*,#657,.F.);
#747=CARTESIAN_POINT('',(-6.5,26.025,19.1));
#748=DIRECTION('',(0.,0.,1.));
#749=VECTOR('',#748,3.);
#750=LINE('',#747,#749);
#751=EDGE_CURVE('',#377,#643,#750,.T.);
#752=ORIENTED_EDGE('',*,*,#751,.F.);
#753=EDGE_LOOP('',(#744,#745,#746,#752));
#754=FACE_BOUND('',#753,.T.);
#755=ADVANCED_FACE('',(#754),#743,.T.);
#756=CARTESIAN_POINT('',(-6.5,25.525,-9.9));
#757=DIRECTION('',(0.,0.,1.));
#758=DIRECTION('',(1.,0.,-0.));
#759=AXIS2_PLACEMENT_3D('',#756,#757,#758);
#760=CYLINDRICAL_SURFACE('',#759,0.5);
#761=ORIENTED_EDGE('',*,*,#751,.T.);
#762=ORIENTED_EDGE('',*,*,#649,.T.);
#763=CARTESIAN_POINT('',(-7.,25.525,19.1));
#764=DIRECTION('',(0.,0.,1.));
#765=VECTOR('',#764,3.);
#766=LINE('',#763,#765);
#767=EDGE_CURVE('',#385,#635,#766,.T.);
#768=ORIENTED_EDGE('',*,*,#767,.F.);
#769=ORIENTED_EDGE('',*,*,#391,.F.);
#770=EDGE_LOOP('',(#761,#762,#768,#769));
#771=FACE_BOUND('',#770,.T.);
#772=ADVANCED_FACE('',(#771),#760,.F.);
#773=CARTESIAN_POINT('',(-7.,19.025,-9.9));
#774=DIRECTION('',(1.,0.,0.));
#775=DIRECTION('',(0.,0.,-1.));
#776=AXIS2_PLACEMENT_3D('',#773,#774,#775);
#777=PLANE('',#776);
#778=ORIENTED_EDGE('',*,*,#399,.T.);
#779=ORIENTED_EDGE('',*,*,#767,.T.);
#780=ORIENTED_EDGE('',*,*,#640,.F.);
#781=CARTESIAN_POINT('',(-7.,12.525,19.1));
#782=DIRECTION('',(0.,0.,1.));
#783=VECTOR('',#782,3.);
#784=LINE('',#781,#783);
#785=EDGE_CURVE('',#394,#626,#784,.T.);
#786=ORIENTED_EDGE('',*,*,#785,.F.);
#787=EDGE_LOOP('',(#778,#779,#780,#786));
#788=FACE_BOUND('',#787,.T.);
#789=ADVANCED_FACE('',(#788),#777,.T.);
#790=CARTESIAN_POINT('',(-6.5,12.525,-9.9));
#791=DIRECTION('',(0.,0.,1.));
#792=DIRECTION('',(1.,0.,-0.));
#793=AXIS2_PLACEMENT_3D('',#790,#791,#792);
#794=CYLINDRICAL_SURFACE('',#793,0.5);
#795=ORIENTED_EDGE('',*,*,#785,.T.);
#796=ORIENTED_EDGE('',*,*,#632,.T.);
#797=CARTESIAN_POINT('',(-6.5,12.025,19.1));
#798=DIRECTION('',(0.,0.,1.));
#799=VECTOR('',#798,3.);
#800=LINE('',#797,#799);
#801=EDGE_CURVE('',#341,#618,#800,.T.);
#802=ORIENTED_EDGE('',*,*,#801,.F.);
#803=ORIENTED_EDGE('',*,*,#406,.F.);
#804=EDGE_LOOP('',(#795,#796,#802,#803));
#805=FACE_BOUND('',#804,.T.);
#806=ADVANCED_FACE('',(#805),#794,.F.);
#807=CARTESIAN_POINT('',(-0.,12.025,-9.9));
#808=DIRECTION('',(0.,-1.,0.));
#809=DIRECTION('',(0.,0.,-1.));
#810=AXIS2_PLACEMENT_3D('',#807,#808,#809);
#811=PLANE('',#810);
#812=ORIENTED_EDGE('',*,*,#801,.T.);
#813=ORIENTED_EDGE('',*,*,#623,.T.);
#814=ORIENTED_EDGE('',*,*,#692,.F.);
#815=ORIENTED_EDGE('',*,*,#348,.F.);
#816=EDGE_LOOP('',(#812,#813,#814,#815));
#817=FACE_BOUND('',#816,.T.);
#818=ADVANCED_FACE('',(#817),#811,.F.);
#819=CARTESIAN_POINT('',(6.5,-25.575,-9.9));
#820=DIRECTION('',(0.,0.,1.));
#821=DIRECTION('',(1.,0.,-0.));
#822=AXIS2_PLACEMENT_3D('',#819,#820,#821);
#823=CYLINDRICAL_SURFACE('',#822,0.5);
#824=CARTESIAN_POINT('',(6.5,-26.075,19.1));
#825=DIRECTION('',(0.,0.,1.));
#826=VECTOR('',#825,3.);
#827=LINE('',#824,#826);
#828=EDGE_CURVE('',#273,#537,#827,.T.);
#829=ORIENTED_EDGE('',*,*,#828,.T.);
#830=ORIENTED_EDGE('',*,*,#545,.T.);
#831=CARTESIAN_POINT('',(7.,-25.575,19.1));
#832=DIRECTION('',(0.,0.,1.));
#833=VECTOR('',#832,3.);
#834=LINE('',#831,#833);
#835=EDGE_CURVE('',#281,#539,#834,.T.);
#836=ORIENTED_EDGE('',*,*,#835,.F.);
#837=ORIENTED_EDGE('',*,*,#287,.F.);
#838=EDGE_LOOP('',(#829,#830,#836,#837));
#839=FACE_BOUND('',#838,.T.);
#840=ADVANCED_FACE('',(#839),#823,.F.);
#841=CARTESIAN_POINT('',(7.,-19.075,-9.9));
#842=DIRECTION('',(1.,0.,0.));
#843=DIRECTION('',(0.,0.,-1.));
#844=AXIS2_PLACEMENT_3D('',#841,#842,#843);
#845=PLANE('',#844);
#846=ORIENTED_EDGE('',*,*,#835,.T.);
#847=ORIENTED_EDGE('',*,*,#602,.T.);
#848=CARTESIAN_POINT('',(7.,-12.575,19.1));
#849=DIRECTION('',(0.,0.,1.));
#850=VECTOR('',#849,3.);
#851=LINE('',#848,#850);
#852=EDGE_CURVE('',#290,#590,#851,.T.);
#853=ORIENTED_EDGE('',*,*,#852,.F.);
#854=ORIENTED_EDGE('',*,*,#295,.F.);
#855=EDGE_LOOP('',(#846,#847,#853,#854));
#856=FACE_BOUND('',#855,.T.);
#857=ADVANCED_FACE('',(#856),#845,.F.);
#858=CARTESIAN_POINT('',(6.5,-12.575,-9.9));
#859=DIRECTION('',(0.,0.,1.));
#860=DIRECTION('',(1.,0.,-0.));
#861=AXIS2_PLACEMENT_3D('',#858,#859,#860);
#862=CYLINDRICAL_SURFACE('',#861,0.5);
#863=ORIENTED_EDGE('',*,*,#852,.T.);
#864=ORIENTED_EDGE('',*,*,#596,.T.);
#865=CARTESIAN_POINT('',(6.5,-12.075,19.1));
#866=DIRECTION('',(0.,0.,1.));
#867=VECTOR('',#866,3.);
#868=LINE('',#865,#867);
#869=EDGE_CURVE('',#298,#582,#868,.T.);
#870=ORIENTED_EDGE('',*,*,#869,.F.);
#871=ORIENTED_EDGE('',*,*,#304,.F.);
#872=EDGE_LOOP('',(#863,#864,#870,#871));
#873=FACE_BOUND('',#872,.T.);
#874=ADVANCED_FACE('',(#873),#862,.F.);
#875=CARTESIAN_POINT('',(-0.,-12.075,-9.9));
#876=DIRECTION('',(0.,-1.,0.));
#877=DIRECTION('',(0.,0.,-1.));
#878=AXIS2_PLACEMENT_3D('',#875,#876,#877);
#879=PLANE('',#878);
#880=ORIENTED_EDGE('',*,*,#312,.T.);
#881=ORIENTED_EDGE('',*,*,#869,.T.);
#882=ORIENTED_EDGE('',*,*,#587,.F.);
#883=CARTESIAN_POINT('',(-6.5,-12.075,19.1));
#884=DIRECTION('',(0.,0.,1.));
#885=VECTOR('',#884,3.);
#886=LINE('',#883,#885);
#887=EDGE_CURVE('',#307,#573,#886,.T.);
#888=ORIENTED_EDGE('',*,*,#887,.F.);
#889=EDGE_LOOP('',(#880,#881,#882,#888));
#890=FACE_BOUND('',#889,.T.);
#891=ADVANCED_FACE('',(#890),#879,.T.);
#892=CARTESIAN_POINT('',(-6.5,-12.575,-9.9));
#893=DIRECTION('',(0.,0.,1.));
#894=DIRECTION('',(1.,0.,-0.));
#895=AXIS2_PLACEMENT_3D('',#892,#893,#894);
#896=CYLINDRICAL_SURFACE('',#895,0.5);
#897=ORIENTED_EDGE('',*,*,#887,.T.);
#898=ORIENTED_EDGE('',*,*,#579,.T.);
#899=CARTESIAN_POINT('',(-7.,-12.575,19.1));
#900=DIRECTION('',(0.,0.,1.));
#901=VECTOR('',#900,3.);
#902=LINE('',#899,#901);
#903=EDGE_CURVE('',#315,#565,#902,.T.);
#904=ORIENTED_EDGE('',*,*,#903,.F.);
#905=ORIENTED_EDGE('',*,*,#321,.F.);
#906=EDGE_LOOP('',(#897,#898,#904,#905));
#907=FACE_BOUND('',#906,.T.);
#908=ADVANCED_FACE('',(#907),#896,.F.);
#909=CARTESIAN_POINT('',(-7.,-19.075,-9.9));
#910=DIRECTION('',(1.,0.,0.));
#911=DIRECTION('',(0.,0.,-1.));
#912=AXIS2_PLACEMENT_3D('',#909,#910,#911);
#913=PLANE('',#912);
#914=ORIENTED_EDGE('',*,*,#329,.T.);
#915=ORIENTED_EDGE('',*,*,#903,.T.);
#916=ORIENTED_EDGE('',*,*,#570,.F.);
#917=CARTESIAN_POINT('',(-7.,-25.575,19.1));
#918=DIRECTION('',(0.,0.,1.));
#919=VECTOR('',#918,3.);
#920=LINE('',#917,#919);
#921=EDGE_CURVE('',#324,#556,#920,.T.);
#922=ORIENTED_EDGE('',*,*,#921,.F.);
#923=EDGE_LOOP('',(#914,#915,#916,#922));
#924=FACE_BOUND('',#923,.T.);
#925=ADVANCED_FACE('',(#924),#913,.T.);
#926=CARTESIAN_POINT('',(-6.5,-25.575,-9.9));
#927=DIRECTION('',(0.,0.,1.));
#928=DIRECTION('',(1.,0.,-0.));
#929=AXIS2_PLACEMENT_3D('',#926,#927,#928);
#930=CYLINDRICAL_SURFACE('',#929,0.5);
#931=ORIENTED_EDGE('',*,*,#921,.T.);
#932=ORIENTED_EDGE('',*,*,#562,.T.);
#933=CARTESIAN_POINT('',(-6.5,-26.075,19.1));
#934=DIRECTION('',(0.,0.,1.));
#935=VECTOR('',#934,3.);
#936=LINE('',#933,#935);
#937=EDGE_CURVE('',#271,#548,#936,.T.);
#938=ORIENTED_EDGE('',*,*,#937,.F.);
#939=ORIENTED_EDGE('',*,*,#336,.F.);
#940=EDGE_LOOP('',(#931,#932,#938,#939));
#941=FACE_BOUND('',#940,.T.);
#942=ADVANCED_FACE('',(#941),#930,.F.);
#943=CARTESIAN_POINT('',(-0.,-26.075,-9.9));
#944=DIRECTION('',(0.,-1.,0.));
#945=DIRECTION('',(0.,0.,-1.));
#946=AXIS2_PLACEMENT_3D('',#943,#944,#945);
#947=PLANE('',#946);
#948=ORIENTED_EDGE('',*,*,#937,.T.);
#949=ORIENTED_EDGE('',*,*,#553,.T.);
#950=ORIENTED_EDGE('',*,*,#828,.F.);
#951=ORIENTED_EDGE('',*,*,#278,.F.);
#952=EDGE_LOOP('',(#948,#949,#950,#951));
#953=FACE_BOUND('',#952,.T.);
#954=ADVANCED_FACE('',(#953),#947,.F.);
#955=CARTESIAN_POINT('',(6.5,-6.525,-9.9));
#956=DIRECTION('',(0.,0.,1.));
#957=DIRECTION('',(1.,0.,-0.));
#958=AXIS2_PLACEMENT_3D('',#955,#956,#957);
#959=CYLINDRICAL_SURFACE('',#958,0.5);
#960=CARTESIAN_POINT('',(6.5,-7.025,19.1));
#961=DIRECTION('',(0.,0.,1.));
#962=VECTOR('',#961,3.);
#963=LINE('',#960,#962);
#964=EDGE_CURVE('',#203,#467,#963,.T.);
#965=ORIENTED_EDGE('',*,*,#964,.T.);
#966=ORIENTED_EDGE('',*,*,#475,.T.);
#967=CARTESIAN_POINT('',(7.,-6.525,19.1));
#968=DIRECTION('',(0.,0.,1.));
#969=VECTOR('',#968,3.);
#970=LINE('',#967,#969);
#971=EDGE_CURVE('',#211,#469,#970,.T.);
#972=ORIENTED_EDGE('',*,*,#971,.F.);
#973=ORIENTED_EDGE('',*,*,#217,.F.);
#974=EDGE_LOOP('',(#965,#966,#972,#973));
#975=FACE_BOUND('',#974,.T.);
#976=ADVANCED_FACE('',(#975),#959,.F.);
#977=CARTESIAN_POINT('',(7.,-0.025,-9.9));
#978=DIRECTION('',(1.,0.,0.));
#979=DIRECTION('',(0.,0.,-1.));
#980=AXIS2_PLACEMENT_3D('',#977,#978,#979);
#981=PLANE('',#980);
#982=ORIENTED_EDGE('',*,*,#971,.T.);
#983=ORIENTED_EDGE('',*,*,#532,.T.);
#984=CARTESIAN_POINT('',(7.,6.475,19.1));
#985=DIRECTION('',(0.,0.,1.));
#986=VECTOR('',#985,3.);
#987=LINE('',#984,#986);
#988=EDGE_CURVE('',#220,#520,#987,.T.);
#989=ORIENTED_EDGE('',*,*,#988,.F.);
#990=ORIENTED_EDGE('',*,*,#225,.F.);
#991=EDGE_LOOP('',(#982,#983,#989,#990));
#992=FACE_BOUND('',#991,.T.);
#993=ADVANCED_FACE('',(#992),#981,.F.);
#994=CARTESIAN_POINT('',(6.5,6.475,-9.9));
#995=DIRECTION('',(0.,0.,1.));
#996=DIRECTION('',(1.,0.,-0.));
#997=AXIS2_PLACEMENT_3D('',#994,#995,#996);
#998=CYLINDRICAL_SURFACE('',#997,0.5);
#999=ORIENTED_EDGE('',*,*,#988,.T.);
#1000=ORIENTED_EDGE('',*,*,#526,.T.);
#1001=CARTESIAN_POINT('',(6.5,6.975,19.1));
#1002=DIRECTION('',(0.,0.,1.));
#1003=VECTOR('',#1002,3.);
#1004=LINE('',#1001,#1003);
#1005=EDGE_CURVE('',#228,#512,#1004,.T.);
#1006=ORIENTED_EDGE('',*,*,#1005,.F.);
#1007=ORIENTED_EDGE('',*,*,#234,.F.);
#1008=EDGE_LOOP('',(#999,#1000,#1006,#1007));
#1009=FACE_BOUND('',#1008,.T.);
#1010=ADVANCED_FACE('',(#1009),#998,.F.);
#1011=CARTESIAN_POINT('',(-0.,6.975,-9.9));
#1012=DIRECTION('',(0.,-1.,0.));
#1013=DIRECTION('',(0.,0.,-1.));
#1014=AXIS2_PLACEMENT_3D('',#1011,#1012,#1013);
#1015=PLANE('',#1014);
#1016=ORIENTED_EDGE('',*,*,#242,.T.);
#1017=ORIENTED_EDGE('',*,*,#1005,.T.);
#1018=ORIENTED_EDGE('',*,*,#517,.F.);
#1019=CARTESIAN_POINT('',(-6.5,6.975,19.1));
#1020=DIRECTION('',(0.,0.,1.));
#1021=VECTOR('',#1020,3.);
#1022=LINE('',#1019,#1021);
#1023=EDGE_CURVE('',#237,#503,#1022,.T.);
#1024=ORIENTED_EDGE('',*,*,#1023,.F.);
#1025=EDGE_LOOP('',(#1016,#1017,#1018,#1024));
#1026=FACE_BOUND('',#1025,.T.);
#1027=ADVANCED_FACE('',(#1026),#1015,.T.);
#1028=CARTESIAN_POINT('',(-6.5,6.475,-9.9));
#1029=DIRECTION('',(0.,0.,1.));
#1030=DIRECTION('',(1.,0.,-0.));
#1031=AXIS2_PLACEMENT_3D('',#1028,#1029,#1030);
#1032=CYLINDRICAL_SURFACE('',#1031,0.5);
#1033=ORIENTED_EDGE('',*,*,#1023,.T.);
#1034=ORIENTED_EDGE('',*,*,#509,.T.);
#1035=CARTESIAN_POINT('',(-7.,6.475,19.1));
#1036=DIRECTION('',(0.,0.,1.));
#1037=VECTOR('',#1036,3.);
#1038=LINE('',#1035,#1037);
#1039=EDGE_CURVE('',#245,#495,#1038,.T.);
#1040=ORIENTED_EDGE('',*,*,#1039,.F.);
#1041=ORIENTED_EDGE('',*,*,#251,.F.);
#1042=EDGE_LOOP('',(#1033,#1034,#1040,#1041));
#1043=FACE_BOUND('',#1042,.T.);
#1044=ADVANCED_FACE('',(#1043),#1032,.F.);
#1045=CARTESIAN_POINT('',(-7.,-0.025,-9.9));
#1046=DIRECTION('',(1.,-0.,0.));
#1047=DIRECTION('',(0.,1.,0.));
#1048=AXIS2_PLACEMENT_3D('',#1045,#1046,#1047);
#1049=PLANE('',#1048);
#1050=ORIENTED_EDGE('',*,*,#259,.T.);
#1051=ORIENTED_EDGE('',*,*,#1039,.T.);
#1052=ORIENTED_EDGE('',*,*,#500,.F.);
#1053=CARTESIAN_POINT('',(-7.,-6.525,19.1));
#1054=DIRECTION('',(0.,0.,1.));
#1055=VECTOR('',#1054,3.);
#1056=LINE('',#1053,#1055);
#1057=EDGE_CURVE('',#254,#486,#1056,.T.);
#1058=ORIENTED_EDGE('',*,*,#1057,.F.);
#1059=EDGE_LOOP('',(#1050,#1051,#1052,#1058));
#1060=FACE_BOUND('',#1059,.T.);
#1061=ADVANCED_FACE('',(#1060),#1049,.T.);
#1062=CARTESIAN_POINT('',(-6.5,-6.525,-9.9));
#1063=DIRECTION('',(0.,0.,1.));
#1064=DIRECTION('',(1.,0.,-0.));
#1065=AXIS2_PLACEMENT_3D('',#1062,#1063,#1064);
#1066=CYLINDRICAL_SURFACE('',#1065,0.5);
#1067=ORIENTED_EDGE('',*,*,#1057,.T.);
#1068=ORIENTED_EDGE('',*,*,#492,.T.);
#1069=CARTESIAN_POINT('',(-6.5,-7.025,19.1));
#1070=DIRECTION('',(0.,0.,1.));
#1071=VECTOR('',#1070,3.);
#1072=LINE('',#1069,#1071);
#1073=EDGE_CURVE('',#201,#478,#1072,.T.);
#1074=ORIENTED_EDGE('',*,*,#1073,.F.);
#1075=ORIENTED_EDGE('',*,*,#266,.F.);
#1076=EDGE_LOOP('',(#1067,#1068,#1074,#1075));
#1077=FACE_BOUND('',#1076,.T.);
#1078=ADVANCED_FACE('',(#1077),#1066,.F.);
#1079=CARTESIAN_POINT('',(-0.,-7.025,-9.9));
#1080=DIRECTION('',(0.,-1.,0.));
#1081=DIRECTION('',(0.,0.,-1.));
#1082=AXIS2_PLACEMENT_3D('',#1079,#1080,#1081);
#1083=PLANE('',#1082);
#1084=ORIENTED_EDGE('',*,*,#1073,.T.);
#1085=ORIENTED_EDGE('',*,*,#483,.T.);
#1086=ORIENTED_EDGE('',*,*,#964,.F.);
#1087=ORIENTED_EDGE('',*,*,#208,.F.);
#1088=EDGE_LOOP('',(#1084,#1085,#1086,#1087));
#1089=FACE_BOUND('',#1088,.T.);
#1090=ADVANCED_FACE('',(#1089),#1083,.F.);
#1091=CARTESIAN_POINT('',(14.7,-33.9,18.1));
#1092=DIRECTION('',(0.,0.,1.));
#1093=DIRECTION('',(1.,0.,-0.));
#1094=AXIS2_PLACEMENT_3D('',#1091,#1092,#1093);
#1095=CYLINDRICAL_SURFACE('',#1094,1.7);
#1096=CARTESIAN_POINT('',(16.4,-33.9,22.1));
#1097=DIRECTION('',(-0.,-0.,-1.));
#1098=VECTOR('',#1097,3.);
#1099=LINE('',#1096,#1098);
#1100=EDGE_CURVE('',#456,#190,#1099,.T.);
#1101=ORIENTED_EDGE('',*,*,#1100,.F.);
#1102=ORIENTED_EDGE('',*,*,#462,.T.);
#1103=ORIENTED_EDGE('',*,*,#1100,.T.);
#1104=ORIENTED_EDGE('',*,*,#196,.F.);
#1105=EDGE_LOOP('',(#1101,#1102,#1103,#1104));
#1106=FACE_BOUND('',#1105,.T.);
#1107=ADVANCED_FACE('',(#1106),#1095,.F.);
#1108=CARTESIAN_POINT('',(14.7,33.9,18.1));
#1109=DIRECTION('',(0.,0.,1.));
#1110=DIRECTION('',(1.,0.,-0.));
#1111=AXIS2_PLACEMENT_3D('',#1108,#1109,#1110);
#1112=CYLINDRICAL_SURFACE('',#1111,1.7);
#1113=CARTESIAN_POINT('',(16.4,33.9,22.1));
#1114=DIRECTION('',(-0.,-0.,-1.));
#1115=VECTOR('',#1114,3.);
#1116=LINE('',#1113,#1115);
#1117=EDGE_CURVE('',#445,#179,#1116,.T.);
#1118=ORIENTED_EDGE('',*,*,#1117,.F.);
#1119=ORIENTED_EDGE('',*,*,#451,.T.);
#1120=ORIENTED_EDGE('',*,*,#1117,.T.);
#1121=ORIENTED_EDGE('',*,*,#185,.F.);
#1122=EDGE_LOOP('',(#1118,#1119,#1120,#1121));
#1123=FACE_BOUND('',#1122,.T.);
#1124=ADVANCED_FACE('',(#1123),#1112,.F.);
#1125=CARTESIAN_POINT('',(-14.7,33.9,18.1));
#1126=DIRECTION('',(0.,0.,1.));
#1127=DIRECTION('',(1.,0.,-0.));
#1128=AXIS2_PLACEMENT_3D('',#1125,#1126,#1127);
#1129=CYLINDRICAL_SURFACE('',#1128,1.7);
#1130=CARTESIAN_POINT('',(-13.,33.9,22.1));
#1131=DIRECTION('',(-0.,-0.,-1.));
#1132=VECTOR('',#1131,3.);
#1133=LINE('',#1130,#1132);
#1134=EDGE_CURVE('',#434,#168,#1133,.T.);
#1135=ORIENTED_EDGE('',*,*,#1134,.F.);
#1136=ORIENTED_EDGE('',*,*,#440,.T.);
#1137=ORIENTED_EDGE('',*,*,#1134,.T.);
#1138=ORIENTED_EDGE('',*,*,#174,.F.);
#1139=EDGE_LOOP('',(#1135,#1136,#1137,#1138));
#1140=FACE_BOUND('',#1139,.T.);
#1141=ADVANCED_FACE('',(#1140),#1129,.F.);
#1142=CARTESIAN_POINT('',(-14.7,-33.982794133,18.1));
#1143=DIRECTION('',(0.,0.,1.));
#1144=DIRECTION('',(1.,0.,-0.));
#1145=AXIS2_PLACEMENT_3D('',#1142,#1143,#1144);
#1146=CYLINDRICAL_SURFACE('',#1145,1.7);
#1147=CARTESIAN_POINT('',(-13.,-33.982794133,22.1));
#1148=DIRECTION('',(-0.,-0.,-1.));
#1149=VECTOR('',#1148,3.);
#1150=LINE('',#1147,#1149);
#1151=EDGE_CURVE('',#423,#157,#1150,.T.);
#1152=ORIENTED_EDGE('',*,*,#1151,.F.);
#1153=ORIENTED_EDGE('',*,*,#429,.T.);
#1154=ORIENTED_EDGE('',*,*,#1151,.T.);
#1155=ORIENTED_EDGE('',*,*,#163,.F.);
#1156=EDGE_LOOP('',(#1152,#1153,#1154,#1155));
#1157=FACE_BOUND('',#1156,.T.);
#1158=ADVANCED_FACE('',(#1157),#1146,.F.);
#1159=CLOSED_SHELL('',(#66,#97,#128,#150,#416,#682,#704,#721,#738,#755,#772,#789,#806,#818,#840,#857,#874,#891,#908,#925,#942,#954,#976,#993,#1010,#1027,
#1044,#1061,#1078,#1090,#1107,#1124,#1141,#1158));
#1160=MANIFOLD_SOLID_BREP('Body 02',#1159);
#1161=COLOUR_RGB('',0.627451003,0.627451003,0.643137276);
#1162=FILL_AREA_STYLE_COLOUR('',#1161);
#1163=FILL_AREA_STYLE('',(#1162));
#1164=SURFACE_STYLE_FILL_AREA(#1163);
#1165=SURFACE_SIDE_STYLE('',(#1164));
#1166=SURFACE_STYLE_USAGE(.BOTH.,#1165);
#1167=PRESENTATION_STYLE_ASSIGNMENT((#1166));
#26=STYLED_ITEM('',(#1167),#1160);
#16=SHAPE_REPRESENTATION('root',(#15),#10);
#17=ADVANCED_BREP_SHAPE_REPRESENTATION('root',(#1160),#10);
#1175=SHAPE_REPRESENTATION_RELATIONSHIP('','',#16,#17);
#1176=CARTESIAN_POINT('',(0.,0.,0.));
#1177=DIRECTION('',(0.,0.,1.));
#1178=DIRECTION('',(1.,0.,0.));
#1179=AXIS2_PLACEMENT_3D('',#1176,#1177,#1178);
#1181=MAPPED_ITEM('',#1180,#1179);
#1180=REPRESENTATION_MAP(#1179,#16);
#1182=APPLICATION_CONTEXT('Managed model based 3d engineering');
#1183=APPLICATION_PROTOCOL_DEFINITION('international standard','ap242_managed_model_based_3d_engineering',2014,#1182);
#1184=PRODUCT_CONTEXT('',#1182,'mechanical');
#1185=PRODUCT_DEFINITION_CONTEXT('part definition',#1182,'design');
#24=PRODUCT('root','root','',(#1184));
#1186=PRODUCT_RELATED_PRODUCT_CATEGORY('part','',(#24));
#1187=PRODUCT_DEFINITION_FORMATION_WITH_SPECIFIED_SOURCE('','',#24,.NOT_KNOWN.);
#25=PRODUCT_DEFINITION('design','',#1187,#1185);
#23=PRODUCT_DEFINITION_SHAPE('','',#25);
#1188=SHAPE_DEFINITION_REPRESENTATION(#23,#16);
#11=DRAUGHTING_MODEL('',(#1181),#10);
#1189=DESCRIPTIVE_REPRESENTATION_ITEM('KEY','/Users/aidenlim/Library/Containers/com.shapr3d.shapr/Data/tmp/B402EBE7-E915-4649-BED2-44618DA2929C.tmp');
#1190=PROPERTY_DEFINITION('KEY','',#25);
#1191=REPRESENTATION('',(#1189),#10);
#1192=PROPERTY_DEFINITION_REPRESENTATION(#1190,#1191);
#1193=GENERAL_PROPERTY('','KEY','');
#1194=GENERAL_PROPERTY_ASSOCIATION('','',#1193,#1190);
#1=MECHANICAL_DESIGN_GEOMETRIC_PRESENTATION_REPRESENTATION('',(#26),#10);
ENDSEC;
END-ISO-10303-21;
