ISO-10303-21;
HEADER;

/* File generated by Shapr3D Version 26.70.0.10837 */

FILE_DESCRIPTION(('HOOPS Exchange Step'),'2;1');

FILE_NAME('/Users/aidenlim/Library/Containers/com.shapr3d.shapr/Data/tmp/export/temp_export',
'2026-06-12T07:47:26-16:00',
('aidenlim'),
('Shapr3D Limited'),
'HOOPS Exchange 2025.9',
'Shapr3D',
'Authorized');

FILE_SCHEMA( ('AP242_MANAGED_MODEL_BASED_3D_ENGINEERING_MIM_LF {1 0 10303 442 1 1 4}') );

ENDSEC;

DATA;
#3=(NAMED_UNIT(*)PLANE_ANGLE_UNIT()SI_UNIT($,.RADIAN.));
#4=PLANE_ANGLE_MEASURE_WITH_UNIT(PLANE_ANGLE_MEASURE(0.0174532925),#3);
#5=(CONVERSION_BASED_UNIT('DEGREE',#4)NAMED_UNIT(#6)PLANE_ANGLE_UNIT());
#6=DIMENSIONAL_EXPONENTS(0.,0.,0.,0.,0.,0.,0.);
#7=(NAMED_UNIT(*)SI_UNIT($,.STERADIAN.)SOLID_ANGLE_UNIT());
#8=(LENGTH_UNIT()NAMED_UNIT(*)SI_UNIT(.MILLI.,.METRE.));
#9=UNCERTAINTY_MEASURE_WITH_UNIT(LENGTH_MEASURE(1.000000E-05),#8,'DISTANCE_ACCURACY_VALUE','Maximum Tolerance applied to model');
#10=(GEOMETRIC_REPRESENTATION_CONTEXT(3)GLOBAL_UNCERTAINTY_ASSIGNED_CONTEXT((#9))GLOBAL_UNIT_ASSIGNED_CONTEXT((#8,#5,#7))REPRESENTATION_CONTEXT('','root'));
#12=CARTESIAN_POINT('',(0.,0.,0.));
#13=DIRECTION('',(0.,0.,1.));
#14=DIRECTION('',(1.,0.,0.));
#15=AXIS2_PLACEMENT_3D('',#12,#13,#14);
#27=CARTESIAN_POINT('',(19.7,0.,10.1));
#28=DIRECTION('',(-1.,-0.,0.));
#29=DIRECTION('',(0.,-1.,0.));
#30=AXIS2_PLACEMENT_3D('',#27,#28,#29);
#31=PLANE('',#30);
#32=CARTESIAN_POINT('',(19.7,38.9,13.1));
#33=VERTEX_POINT('',#32);
#34=CARTESIAN_POINT('',(19.7,-38.9,13.1));
#35=VERTEX_POINT('',#34);
#36=CARTESIAN_POINT('',(19.7,38.9,13.1));
#37=DIRECTION('',(0.,-1.,0.));
#38=VECTOR('',#37,77.8);
#39=LINE('',#36,#38);
#40=EDGE_CURVE('',#33,#35,#39,.T.);
#41=ORIENTED_EDGE('',*,*,#40,.T.);
#42=CARTESIAN_POINT('',(19.7,-38.9,10.1));
#43=VERTEX_POINT('',#42);
#44=CARTESIAN_POINT('',(19.7,-38.9,10.1));
#45=DIRECTION('',(0.,0.,1.));
#46=VECTOR('',#45,3.);
#47=LINE('',#44,#46);
#48=EDGE_CURVE('',#43,#35,#47,.T.);
#49=ORIENTED_EDGE('',*,*,#48,.F.);
#50=CARTESIAN_POINT('',(19.7,38.9,10.1));
#51=VERTEX_POINT('',#50);
#52=CARTESIAN_POINT('',(19.7,38.9,10.1));
#53=DIRECTION('',(0.,-1.,0.));
#54=VECTOR('',#53,77.8);
#55=LINE('',#52,#54);
#56=EDGE_CURVE('',#51,#43,#55,.T.);
#57=ORIENTED_EDGE('',*,*,#56,.F.);
#58=CARTESIAN_POINT('',(19.7,38.9,10.1));
#59=DIRECTION('',(0.,0.,1.));
#60=VECTOR('',#59,3.);
#61=LINE('',#58,#60);
#62=EDGE_CURVE('',#51,#33,#61,.T.);
#63=ORIENTED_EDGE('',*,*,#62,.T.);
#64=EDGE_LOOP('',(#41,#49,#57,#63));
#65=FACE_BOUND('',#64,.T.);
#66=ADVANCED_FACE('',(#65),#31,.F.);
#67=CARTESIAN_POINT('',(-0.,38.9,10.1));
#68=DIRECTION('',(0.,-1.,0.));
#69=DIRECTION('',(1.,0.,0.));
#70=AXIS2_PLACEMENT_3D('',#67,#68,#69);
#71=PLANE('',#70);
#72=CARTESIAN_POINT('',(-19.7,38.9,13.1));
#73=VERTEX_POINT('',#72);
#74=CARTESIAN_POINT('',(-19.7,38.9,13.1));
#75=DIRECTION('',(1.,0.,0.));
#76=VECTOR('',#75,39.4);
#77=LINE('',#74,#76);
#78=EDGE_CURVE('',#73,#33,#77,.T.);
#79=ORIENTED_EDGE('',*,*,#78,.T.);
#80=ORIENTED_EDGE('',*,*,#62,.F.);
#81=CARTESIAN_POINT('',(-19.7,38.9,10.1));
#82=VERTEX_POINT('',#81);
#83=CARTESIAN_POINT('',(-19.7,38.9,10.1));
#84=DIRECTION('',(1.,0.,0.));
#85=VECTOR('',#84,39.4);
#86=LINE('',#83,#85);
#87=EDGE_CURVE('',#82,#51,#86,.T.);
#88=ORIENTED_EDGE('',*,*,#87,.F.);
#89=CARTESIAN_POINT('',(-19.7,38.9,10.1));
#90=DIRECTION('',(0.,0.,1.));
#91=VECTOR('',#90,3.);
#92=LINE('',#89,#91);
#93=EDGE_CURVE('',#82,#73,#92,.T.);
#94=ORIENTED_EDGE('',*,*,#93,.T.);
#95=EDGE_LOOP('',(#79,#80,#88,#94));
#96=FACE_BOUND('',#95,.T.);
#97=ADVANCED_FACE('',(#96),#71,.F.);
#98=CARTESIAN_POINT('',(-19.7,-0.,10.1));
#99=DIRECTION('',(1.,0.,0.));
#100=DIRECTION('',(-0.,1.,0.));
#101=AXIS2_PLACEMENT_3D('',#98,#99,#100);
#102=PLANE('',#101);
#103=CARTESIAN_POINT('',(-19.7,-38.9,13.1));
#104=VERTEX_POINT('',#103);
#105=CARTESIAN_POINT('',(-19.7,-38.9,13.1));
#106=DIRECTION('',(-0.,1.,0.));
#107=VECTOR('',#106,77.8);
#108=LINE('',#105,#107);
#109=EDGE_CURVE('',#104,#73,#108,.T.);
#110=ORIENTED_EDGE('',*,*,#109,.T.);
#111=ORIENTED_EDGE('',*,*,#93,.F.);
#112=CARTESIAN_POINT('',(-19.7,-38.9,10.1));
#113=VERTEX_POINT('',#112);
#114=CARTESIAN_POINT('',(-19.7,-38.9,10.1));
#115=DIRECTION('',(-0.,1.,0.));
#116=VECTOR('',#115,77.8);
#117=LINE('',#114,#116);
#118=EDGE_CURVE('',#113,#82,#117,.T.);
#119=ORIENTED_EDGE('',*,*,#118,.F.);
#120=CARTESIAN_POINT('',(-19.7,-38.9,10.1));
#121=DIRECTION('',(0.,0.,1.));
#122=VECTOR('',#121,3.);
#123=LINE('',#120,#122);
#124=EDGE_CURVE('',#113,#104,#123,.T.);
#125=ORIENTED_EDGE('',*,*,#124,.T.);
#126=EDGE_LOOP('',(#110,#111,#119,#125));
#127=FACE_BOUND('',#126,.T.);
#128=ADVANCED_FACE('',(#127),#102,.F.);
#129=CARTESIAN_POINT('',(0.,-38.9,10.1));
#130=DIRECTION('',(-0.,1.,0.));
#131=DIRECTION('',(-1.,-0.,0.));
#132=AXIS2_PLACEMENT_3D('',#129,#130,#131);
#133=PLANE('',#132);
#134=CARTESIAN_POINT('',(19.7,-38.9,13.1));
#135=DIRECTION('',(-1.,-0.,0.));
#136=VECTOR('',#135,39.4);
#137=LINE('',#134,#136);
#138=EDGE_CURVE('',#35,#104,#137,.T.);
#139=ORIENTED_EDGE('',*,*,#138,.T.);
#140=ORIENTED_EDGE('',*,*,#124,.F.);
#141=CARTESIAN_POINT('',(19.7,-38.9,10.1));
#142=DIRECTION('',(-1.,-0.,0.));
#143=VECTOR('',#142,39.4);
#144=LINE('',#141,#143);
#145=EDGE_CURVE('',#43,#113,#144,.T.);
#146=ORIENTED_EDGE('',*,*,#145,.F.);
#147=ORIENTED_EDGE('',*,*,#48,.T.);
#148=EDGE_LOOP('',(#139,#140,#146,#147));
#149=FACE_BOUND('',#148,.T.);
#150=ADVANCED_FACE('',(#149),#133,.F.);
#151=CARTESIAN_POINT('',(0.,0.,10.1));
#152=DIRECTION('',(0.,0.,1.));
#153=DIRECTION('',(1.,0.,0.));
#154=AXIS2_PLACEMENT_3D('',#151,#152,#153);
#155=PLANE('',#154);
#156=CARTESIAN_POINT('',(-13.,-33.982794133,10.1));
#157=VERTEX_POINT('',#156);
#158=CARTESIAN_POINT('',(-14.7,-33.982794133,10.1));
#159=DIRECTION('',(0.,0.,1.));
#160=DIRECTION('',(1.,0.,-0.));
#161=AXIS2_PLACEMENT_3D('',#158,#159,#160);
#162=CIRCLE('',#161,1.7);
#163=EDGE_CURVE('',#157,#157,#162,.T.);
#164=ORIENTED_EDGE('',*,*,#163,.T.);
#165=EDGE_LOOP('',(#164));
#166=FACE_BOUND('',#165,.T.);
#167=CARTESIAN_POINT('',(-13.,33.9,10.1));
#168=VERTEX_POINT('',#167);
#169=CARTESIAN_POINT('',(-14.7,33.9,10.1));
#170=DIRECTION('',(0.,0.,1.));
#171=DIRECTION('',(1.,0.,-0.));
#172=AXIS2_PLACEMENT_3D('',#169,#170,#171);
#173=CIRCLE('',#172,1.7);
#174=EDGE_CURVE('',#168,#168,#173,.T.);
#175=ORIENTED_EDGE('',*,*,#174,.T.);
#176=EDGE_LOOP('',(#175));
#177=FACE_BOUND('',#176,.T.);
#178=CARTESIAN_POINT('',(16.4,33.9,10.1));
#179=VERTEX_POINT('',#178);
#180=CARTESIAN_POINT('',(14.7,33.9,10.1));
#181=DIRECTION('',(0.,0.,1.));
#182=DIRECTION('',(1.,0.,-0.));
#183=AXIS2_PLACEMENT_3D('',#180,#181,#182);
#184=CIRCLE('',#183,1.7);
#185=EDGE_CURVE('',#179,#179,#184,.T.);
#186=ORIENTED_EDGE('',*,*,#185,.T.);
#187=EDGE_LOOP('',(#186));
#188=FACE_BOUND('',#187,.T.);
#189=CARTESIAN_POINT('',(16.4,-33.9,10.1));
#190=VERTEX_POINT('',#189);
#191=CARTESIAN_POINT('',(14.7,-33.9,10.1));
#192=DIRECTION('',(0.,0.,1.));
#193=DIRECTION('',(1.,0.,-0.));
#194=AXIS2_PLACEMENT_3D('',#191,#192,#193);
#195=CIRCLE('',#194,1.7);
#196=EDGE_CURVE('',#190,#190,#195,.T.);
#197=ORIENTED_EDGE('',*,*,#196,.T.);
#198=EDGE_LOOP('',(#197));
#199=FACE_BOUND('',#198,.T.);
#200=CARTESIAN_POINT('',(-6.5,-7.025,10.1));
#201=VERTEX_POINT('',#200);
#202=CARTESIAN_POINT('',(6.5,-7.025,10.1));
#203=VERTEX_POINT('',#202);
#204=CARTESIAN_POINT('',(-6.5,-7.025,10.1));
#205=DIRECTION('',(1.,0.,-0.));
#206=VECTOR('',#205,13.);
#207=LINE('',#204,#206);
#208=EDGE_CURVE('',#201,#203,#207,.T.);
#209=ORIENTED_EDGE('',*,*,#208,.T.);
#210=CARTESIAN_POINT('',(7.,-6.525,10.1));
#211=VERTEX_POINT('',#210);
#212=CARTESIAN_POINT('',(6.5,-6.525,10.1));
#213=DIRECTION('',(0.,0.,1.));
#214=DIRECTION('',(1.,0.,-0.));
#215=AXIS2_PLACEMENT_3D('',#212,#213,#214);
#216=CIRCLE('',#215,0.5);
#217=EDGE_CURVE('',#203,#211,#216,.T.);
#218=ORIENTED_EDGE('',*,*,#217,.T.);
#219=CARTESIAN_POINT('',(7.,6.475,10.1));
#220=VERTEX_POINT('',#219);
#221=CARTESIAN_POINT('',(7.,-6.525,10.1));
#222=DIRECTION('',(0.,1.,0.));
#223=VECTOR('',#222,13.);
#224=LINE('',#221,#223);
#225=EDGE_CURVE('',#211,#220,#224,.T.);
#226=ORIENTED_EDGE('',*,*,#225,.T.);
#227=CARTESIAN_POINT('',(6.5,6.975,10.1));
#228=VERTEX_POINT('',#227);
#229=CARTESIAN_POINT('',(6.5,6.475,10.1));
#230=DIRECTION('',(0.,0.,1.));
#231=DIRECTION('',(1.,0.,-0.));
#232=AXIS2_PLACEMENT_3D('',#229,#230,#231);
#233=CIRCLE('',#232,0.5);
#234=EDGE_CURVE('',#220,#228,#233,.T.);
#235=ORIENTED_EDGE('',*,*,#234,.T.);
#236=CARTESIAN_POINT('',(-6.5,6.975,10.1));
#237=VERTEX_POINT('',#236);
#238=CARTESIAN_POINT('',(-6.5,6.975,10.1));
#239=DIRECTION('',(1.,0.,-0.));
#240=VECTOR('',#239,13.);
#241=LINE('',#238,#240);
#242=EDGE_CURVE('',#237,#228,#241,.T.);
#243=ORIENTED_EDGE('',*,*,#242,.F.);
#244=CARTESIAN_POINT('',(-7.,6.475,10.1));
#245=VERTEX_POINT('',#244);
#246=CARTESIAN_POINT('',(-6.5,6.475,10.1));
#247=DIRECTION('',(0.,0.,1.));
#248=DIRECTION('',(1.,0.,-0.));
#249=AXIS2_PLACEMENT_3D('',#246,#247,#248);
#250=CIRCLE('',#249,0.5);
#251=EDGE_CURVE('',#237,#245,#250,.T.);
#252=ORIENTED_EDGE('',*,*,#251,.T.);
#253=CARTESIAN_POINT('',(-7.,-6.525,10.1));
#254=VERTEX_POINT('',#253);
#255=CARTESIAN_POINT('',(-7.,-6.525,10.1));
#256=DIRECTION('',(0.,1.,0.));
#257=VECTOR('',#256,13.);
#258=LINE('',#255,#257);
#259=EDGE_CURVE('',#254,#245,#258,.T.);
#260=ORIENTED_EDGE('',*,*,#259,.F.);
#261=CARTESIAN_POINT('',(-6.5,-6.525,10.1));
#262=DIRECTION('',(0.,0.,1.));
#263=DIRECTION('',(1.,0.,-0.));
#264=AXIS2_PLACEMENT_3D('',#261,#262,#263);
#265=CIRCLE('',#264,0.5);
#266=EDGE_CURVE('',#254,#201,#265,.T.);
#267=ORIENTED_EDGE('',*,*,#266,.T.);
#268=EDGE_LOOP('',(#209,#218,#226,#235,#243,#252,#260,#267));
#269=FACE_BOUND('',#268,.T.);
#270=CARTESIAN_POINT('',(-6.5,-26.075,10.1));
#271=VERTEX_POINT('',#270);
#272=CARTESIAN_POINT('',(6.5,-26.075,10.1));
#273=VERTEX_POINT('',#272);
#274=CARTESIAN_POINT('',(-6.5,-26.075,10.1));
#275=DIRECTION('',(1.,0.,-0.));
#276=VECTOR('',#275,13.);
#277=LINE('',#274,#276);
#278=EDGE_CURVE('',#271,#273,#277,.T.);
#279=ORIENTED_EDGE('',*,*,#278,.T.);
#280=CARTESIAN_POINT('',(7.,-25.575,10.1));
#281=VERTEX_POINT('',#280);
#282=CARTESIAN_POINT('',(6.5,-25.575,10.1));
#283=DIRECTION('',(0.,0.,1.));
#284=DIRECTION('',(1.,0.,-0.));
#285=AXIS2_PLACEMENT_3D('',#282,#283,#284);
#286=CIRCLE('',#285,0.5);
#287=EDGE_CURVE('',#273,#281,#286,.T.);
#288=ORIENTED_EDGE('',*,*,#287,.T.);
#289=CARTESIAN_POINT('',(7.,-12.575,10.1));
#290=VERTEX_POINT('',#289);
#291=CARTESIAN_POINT('',(7.,-25.575,10.1));
#292=DIRECTION('',(0.,1.,0.));
#293=VECTOR('',#292,13.);
#294=LINE('',#291,#293);
#295=EDGE_CURVE('',#281,#290,#294,.T.);
#296=ORIENTED_EDGE('',*,*,#295,.T.);
#297=CARTESIAN_POINT('',(6.5,-12.075,10.1));
#298=VERTEX_POINT('',#297);
#299=CARTESIAN_POINT('',(6.5,-12.575,10.1));
#300=DIRECTION('',(0.,0.,1.));
#301=DIRECTION('',(1.,0.,-0.));
#302=AXIS2_PLACEMENT_3D('',#299,#300,#301);
#303=CIRCLE('',#302,0.5);
#304=EDGE_CURVE('',#290,#298,#303,.T.);
#305=ORIENTED_EDGE('',*,*,#304,.T.);
#306=CARTESIAN_POINT('',(-6.5,-12.075,10.1));
#307=VERTEX_POINT('',#306);
#308=CARTESIAN_POINT('',(-6.5,-12.075,10.1));
#309=DIRECTION('',(1.,0.,-0.));
#310=VECTOR('',#309,13.);
#311=LINE('',#308,#310);
#312=EDGE_CURVE('',#307,#298,#311,.T.);
#313=ORIENTED_EDGE('',*,*,#312,.F.);
#314=CARTESIAN_POINT('',(-7.,-12.575,10.1));
#315=VERTEX_POINT('',#314);
#316=CARTESIAN_POINT('',(-6.5,-12.575,10.1));
#317=DIRECTION('',(0.,0.,1.));
#318=DIRECTION('',(1.,0.,-0.));
#319=AXIS2_PLACEMENT_3D('',#316,#317,#318);
#320=CIRCLE('',#319,0.5);
#321=EDGE_CURVE('',#307,#315,#320,.T.);
#322=ORIENTED_EDGE('',*,*,#321,.T.);
#323=CARTESIAN_POINT('',(-7.,-25.575,10.1));
#324=VERTEX_POINT('',#323);
#325=CARTESIAN_POINT('',(-7.,-25.575,10.1));
#326=DIRECTION('',(0.,1.,0.));
#327=VECTOR('',#326,13.);
#328=LINE('',#325,#327);
#329=EDGE_CURVE('',#324,#315,#328,.T.);
#330=ORIENTED_EDGE('',*,*,#329,.F.);
#331=CARTESIAN_POINT('',(-6.5,-25.575,10.1));
#332=DIRECTION('',(0.,0.,1.));
#333=DIRECTION('',(1.,0.,-0.));
#334=AXIS2_PLACEMENT_3D('',#331,#332,#333);
#335=CIRCLE('',#334,0.5);
#336=EDGE_CURVE('',#324,#271,#335,.T.);
#337=ORIENTED_EDGE('',*,*,#336,.T.);
#338=EDGE_LOOP('',(#279,#288,#296,#305,#313,#322,#330,#337));
#339=FACE_BOUND('',#338,.T.);
#340=CARTESIAN_POINT('',(-6.5,12.025,10.1));
#341=VERTEX_POINT('',#340);
#342=CARTESIAN_POINT('',(6.5,12.025,10.1));
#343=VERTEX_POINT('',#342);
#344=CARTESIAN_POINT('',(-6.5,12.025,10.1));
#345=DIRECTION('',(1.,0.,-0.));
#346=VECTOR('',#345,13.);
#347=LINE('',#344,#346);
#348=EDGE_CURVE('',#341,#343,#347,.T.);
#349=ORIENTED_EDGE('',*,*,#348,.T.);
#350=CARTESIAN_POINT('',(7.,12.525,10.1));
#351=VERTEX_POINT('',#350);
#352=CARTESIAN_POINT('',(6.5,12.525,10.1));
#353=DIRECTION('',(0.,0.,1.));
#354=DIRECTION('',(1.,0.,-0.));
#355=AXIS2_PLACEMENT_3D('',#352,#353,#354);
#356=CIRCLE('',#355,0.5);
#357=EDGE_CURVE('',#343,#351,#356,.T.);
#358=ORIENTED_EDGE('',*,*,#357,.T.);
#359=CARTESIAN_POINT('',(7.,25.525,10.1));
#360=VERTEX_POINT('',#359);
#361=CARTESIAN_POINT('',(7.,12.525,10.1));
#362=DIRECTION('',(0.,1.,0.));
#363=VECTOR('',#362,13.);
#364=LINE('',#361,#363);
#365=EDGE_CURVE('',#351,#360,#364,.T.);
#366=ORIENTED_EDGE('',*,*,#365,.T.);
#367=CARTESIAN_POINT('',(6.5,26.025,10.1));
#368=VERTEX_POINT('',#367);
#369=CARTESIAN_POINT('',(6.5,25.525,10.1));
#370=DIRECTION('',(0.,0.,1.));
#371=DIRECTION('',(1.,0.,-0.));
#372=AXIS2_PLACEMENT_3D('',#369,#370,#371);
#373=CIRCLE('',#372,0.5);
#374=EDGE_CURVE('',#360,#368,#373,.T.);
#375=ORIENTED_EDGE('',*,*,#374,.T.);
#376=CARTESIAN_POINT('',(-6.5,26.025,10.1));
#377=VERTEX_POINT('',#376);
#378=CARTESIAN_POINT('',(-6.5,26.025,10.1));
#379=DIRECTION('',(1.,0.,-0.));
#380=VECTOR('',#379,13.);
#381=LINE('',#378,#380);
#382=EDGE_CURVE('',#377,#368,#381,.T.);
#383=ORIENTED_EDGE('',*,*,#382,.F.);
#384=CARTESIAN_POINT('',(-7.,25.525,10.1));
#385=VERTEX_POINT('',#384);
#386=CARTESIAN_POINT('',(-6.5,25.525,10.1));
#387=DIRECTION('',(0.,0.,1.));
#388=DIRECTION('',(1.,0.,-0.));
#389=AXIS2_PLACEMENT_3D('',#386,#387,#388);
#390=CIRCLE('',#389,0.5);
#391=EDGE_CURVE('',#377,#385,#390,.T.);
#392=ORIENTED_EDGE('',*,*,#391,.T.);
#393=CARTESIAN_POINT('',(-7.,12.525,10.1));
#394=VERTEX_POINT('',#393);
#395=CARTESIAN_POINT('',(-7.,12.525,10.1));
#396=DIRECTION('',(0.,1.,0.));
#397=VECTOR('',#396,13.);
#398=LINE('',#395,#397);
#399=EDGE_CURVE('',#394,#385,#398,.T.);
#400=ORIENTED_EDGE('',*,*,#399,.F.);
#401=CARTESIAN_POINT('',(-6.5,12.525,10.1));
#402=DIRECTION('',(0.,0.,1.));
#403=DIRECTION('',(1.,0.,-0.));
#404=AXIS2_PLACEMENT_3D('',#401,#402,#403);
#405=CIRCLE('',#404,0.5);
#406=EDGE_CURVE('',#394,#341,#405,.T.);
#407=ORIENTED_EDGE('',*,*,#406,.T.);
#408=EDGE_LOOP('',(#349,#358,#366,#375,#383,#392,#400,#407));
#409=FACE_BOUND('',#408,.T.);
#410=ORIENTED_EDGE('',*,*,#56,.T.);
#411=ORIENTED_EDGE('',*,*,#145,.T.);
#412=ORIENTED_EDGE('',*,*,#118,.T.);
#413=ORIENTED_EDGE('',*,*,#87,.T.);
#414=EDGE_LOOP('',(#410,#411,#412,#413));
#415=FACE_BOUND('',#414,.T.);
#416=ADVANCED_FACE('',(#166,#177,#188,#199,#269,#339,#409,#415),#155,.F.);
#417=CARTESIAN_POINT('',(0.,0.,13.1));
#418=DIRECTION('',(0.,0.,1.));
#419=DIRECTION('',(1.,0.,0.));
#420=AXIS2_PLACEMENT_3D('',#417,#418,#419);
#421=PLANE('',#420);
#422=CARTESIAN_POINT('',(-13.,-33.982794133,13.1));
#423=VERTEX_POINT('',#422);
#424=CARTESIAN_POINT('',(-14.7,-33.982794133,13.1));
#425=DIRECTION('',(0.,0.,1.));
#426=DIRECTION('',(1.,0.,-0.));
#427=AXIS2_PLACEMENT_3D('',#424,#425,#426);
#428=CIRCLE('',#427,1.7);
#429=EDGE_CURVE('',#423,#423,#428,.T.);
#430=ORIENTED_EDGE('',*,*,#429,.F.);
#431=EDGE_LOOP('',(#430));
#432=FACE_BOUND('',#431,.T.);
#433=CARTESIAN_POINT('',(-13.,33.9,13.1));
#434=VERTEX_POINT('',#433);
#435=CARTESIAN_POINT('',(-14.7,33.9,13.1));
#436=DIRECTION('',(0.,0.,1.));
#437=DIRECTION('',(1.,0.,-0.));
#438=AXIS2_PLACEMENT_3D('',#435,#436,#437);
#439=CIRCLE('',#438,1.7);
#440=EDGE_CURVE('',#434,#434,#439,.T.);
#441=ORIENTED_EDGE('',*,*,#440,.F.);
#442=EDGE_LOOP('',(#441));
#443=FACE_BOUND('',#442,.T.);
#444=CARTESIAN_POINT('',(16.4,33.9,13.1));
#445=VERTEX_POINT('',#444);
#446=CARTESIAN_POINT('',(14.7,33.9,13.1));
#447=DIRECTION('',(0.,0.,1.));
#448=DIRECTION('',(1.,0.,-0.));
#449=AXIS2_PLACEMENT_3D('',#446,#447,#448);
#450=CIRCLE('',#449,1.7);
#451=EDGE_CURVE('',#445,#445,#450,.T.);
#452=ORIENTED_EDGE('',*,*,#451,.F.);
#453=EDGE_LOOP('',(#452));
#454=FACE_BOUND('',#453,.T.);
#455=CARTESIAN_POINT('',(16.4,-33.9,13.1));
#456=VERTEX_POINT('',#455);
#457=CARTESIAN_POINT('',(14.7,-33.9,13.1));
#458=DIRECTION('',(0.,0.,1.));
#459=DIRECTION('',(1.,0.,-0.));
#460=AXIS2_PLACEMENT_3D('',#457,#458,#459);
#461=CIRCLE('',#460,1.7);
#462=EDGE_CURVE('',#456,#456,#461,.T.);
#463=ORIENTED_EDGE('',*,*,#462,.F.);
#464=EDGE_LOOP('',(#463));
#465=FACE_BOUND('',#464,.T.);
#466=CARTESIAN_POINT('',(6.5,-7.025,13.1));
#467=VERTEX_POINT('',#466);
#468=CARTESIAN_POINT('',(7.,-6.525,13.1));
#469=VERTEX_POINT('',#468);
#470=CARTESIAN_POINT('',(6.5,-6.525,13.1));
#471=DIRECTION('',(0.,0.,1.));
#472=DIRECTION('',(1.,0.,-0.));
#473=AXIS2_PLACEMENT_3D('',#470,#471,#472);
#474=CIRCLE('',#473,0.5);
#475=EDGE_CURVE('',#467,#469,#474,.T.);
#476=ORIENTED_EDGE('',*,*,#475,.F.);
#477=CARTESIAN_POINT('',(-6.5,-7.025,13.1));
#478=VERTEX_POINT('',#477);
#479=CARTESIAN_POINT('',(-6.5,-7.025,13.1));
#480=DIRECTION('',(1.,0.,-0.));
#481=VECTOR('',#480,13.);
#482=LINE('',#479,#481);
#483=EDGE_CURVE('',#478,#467,#482,.T.);
#484=ORIENTED_EDGE('',*,*,#483,.F.);
#485=CARTESIAN_POINT('',(-7.,-6.525,13.1));
#486=VERTEX_POINT('',#485);
#487=CARTESIAN_POINT('',(-6.5,-6.525,13.1));
#488=DIRECTION('',(0.,0.,1.));
#489=DIRECTION('',(1.,0.,-0.));
#490=AXIS2_PLACEMENT_3D('',#487,#488,#489);
#491=CIRCLE('',#490,0.5);
#492=EDGE_CURVE('',#486,#478,#491,.T.);
#493=ORIENTED_EDGE('',*,*,#492,.F.);
#494=CARTESIAN_POINT('',(-7.,6.475,13.1));
#495=VERTEX_POINT('',#494);
#496=CARTESIAN_POINT('',(-7.,-6.525,13.1));
#497=DIRECTION('',(0.,1.,0.));
#498=VECTOR('',#497,13.);
#499=LINE('',#496,#498);
#500=EDGE_CURVE('',#486,#495,#499,.T.);
#501=ORIENTED_EDGE('',*,*,#500,.T.);
#502=CARTESIAN_POINT('',(-6.5,6.975,13.1));
#503=VERTEX_POINT('',#502);
#504=CARTESIAN_POINT('',(-6.5,6.475,13.1));
#505=DIRECTION('',(0.,0.,1.));
#506=DIRECTION('',(1.,0.,-0.));
#507=AXIS2_PLACEMENT_3D('',#504,#505,#506);
#508=CIRCLE('',#507,0.5);
#509=EDGE_CURVE('',#503,#495,#508,.T.);
#510=ORIENTED_EDGE('',*,*,#509,.F.);
#511=CARTESIAN_POINT('',(6.5,6.975,13.1));
#512=VERTEX_POINT('',#511);
#513=CARTESIAN_POINT('',(-6.5,6.975,13.1));
#514=DIRECTION('',(1.,0.,-0.));
#515=VECTOR('',#514,13.);
#516=LINE('',#513,#515);
#517=EDGE_CURVE('',#503,#512,#516,.T.);
#518=ORIENTED_EDGE('',*,*,#517,.T.);
#519=CARTESIAN_POINT('',(7.,6.475,13.1));
#520=VERTEX_POINT('',#519);
#521=CARTESIAN_POINT('',(6.5,6.475,13.1));
#522=DIRECTION('',(0.,0.,1.));
#523=DIRECTION('',(1.,0.,-0.));
#524=AXIS2_PLACEMENT_3D('',#521,#522,#523);
#525=CIRCLE('',#524,0.5);
#526=EDGE_CURVE('',#520,#512,#525,.T.);
#527=ORIENTED_EDGE('',*,*,#526,.F.);
#528=CARTESIAN_POINT('',(7.,-6.525,13.1));
#529=DIRECTION('',(0.,1.,0.));
#530=VECTOR('',#529,13.);
#531=LINE('',#528,#530);
#532=EDGE_CURVE('',#469,#520,#531,.T.);
#533=ORIENTED_EDGE('',*,*,#532,.F.);
#534=EDGE_LOOP('',(#476,#484,#493,#501,#510,#518,#527,#533));
#535=FACE_BOUND('',#534,.T.);
#536=CARTESIAN_POINT('',(6.5,-26.075,13.1));
#537=VERTEX_POINT('',#536);
#538=CARTESIAN_POINT('',(7.,-25.575,13.1));
#539=VERTEX_POINT('',#538);
#540=CARTESIAN_POINT('',(6.5,-25.575,13.1));
#541=DIRECTION('',(0.,0.,1.));
#542=DIRECTION('',(1.,0.,-0.));
#543=AXIS2_PLACEMENT_3D('',#540,#541,#542);
#544=CIRCLE('',#543,0.5);
#545=EDGE_CURVE('',#537,#539,#544,.T.);
#546=ORIENTED_EDGE('',*,*,#545,.F.);
#547=CARTESIAN_POINT('',(-6.5,-26.075,13.1));
#548=VERTEX_POINT('',#547);
#549=CARTESIAN_POINT('',(-6.5,-26.075,13.1));
#550=DIRECTION('',(1.,0.,-0.));
#551=VECTOR('',#550,13.);
#552=LINE('',#549,#551);
#553=EDGE_CURVE('',#548,#537,#552,.T.);
#554=ORIENTED_EDGE('',*,*,#553,.F.);
#555=CARTESIAN_POINT('',(-7.,-25.575,13.1));
#556=VERTEX_POINT('',#555);
#557=CARTESIAN_POINT('',(-6.5,-25.575,13.1));
#558=DIRECTION('',(0.,0.,1.));
#559=DIRECTION('',(1.,0.,-0.));
#560=AXIS2_PLACEMENT_3D('',#557,#558,#559);
#561=CIRCLE('',#560,0.5);
#562=EDGE_CURVE('',#556,#548,#561,.T.);
#563=ORIENTED_EDGE('',*,*,#562,.F.);
#564=CARTESIAN_POINT('',(-7.,-12.575,13.1));
#565=VERTEX_POINT('',#564);
#566=CARTESIAN_POINT('',(-7.,-25.575,13.1));
#567=DIRECTION('',(0.,1.,0.));
#568=VECTOR('',#567,13.);
#569=LINE('',#566,#568);
#570=EDGE_CURVE('',#556,#565,#569,.T.);
#571=ORIENTED_EDGE('',*,*,#570,.T.);
#572=CARTESIAN_POINT('',(-6.5,-12.075,13.1));
#573=VERTEX_POINT('',#572);
#574=CARTESIAN_POINT('',(-6.5,-12.575,13.1));
#575=DIRECTION('',(0.,0.,1.));
#576=DIRECTION('',(1.,0.,-0.));
#577=AXIS2_PLACEMENT_3D('',#574,#575,#576);
#578=CIRCLE('',#577,0.5);
#579=EDGE_CURVE('',#573,#565,#578,.T.);
#580=ORIENTED_EDGE('',*,*,#579,.F.);
#581=CARTESIAN_POINT('',(6.5,-12.075,13.1));
#582=VERTEX_POINT('',#581);
#583=CARTESIAN_POINT('',(-6.5,-12.075,13.1));
#584=DIRECTION('',(1.,0.,-0.));
#585=VECTOR('',#584,13.);
#586=LINE('',#583,#585);
#587=EDGE_CURVE('',#573,#582,#586,.T.);
#588=ORIENTED_EDGE('',*,*,#587,.T.);
#589=CARTESIAN_POINT('',(7.,-12.575,13.1));
#590=VERTEX_POINT('',#589);
#591=CARTESIAN_POINT('',(6.5,-12.575,13.1));
#592=DIRECTION('',(0.,0.,1.));
#593=DIRECTION('',(1.,0.,-0.));
#594=AXIS2_PLACEMENT_3D('',#591,#592,#593);
#595=CIRCLE('',#594,0.5);
#596=EDGE_CURVE('',#590,#582,#595,.T.);
#597=ORIENTED_EDGE('',*,*,#596,.F.);
#598=CARTESIAN_POINT('',(7.,-25.575,13.1));
#599=DIRECTION('',(0.,1.,0.));
#600=VECTOR('',#599,13.);
#601=LINE('',#598,#600);
#602=EDGE_CURVE('',#539,#590,#601,.T.);
#603=ORIENTED_EDGE('',*,*,#602,.F.);
#604=EDGE_LOOP('',(#546,#554,#563,#571,#580,#588,#597,#603));
#605=FACE_BOUND('',#604,.T.);
#606=CARTESIAN_POINT('',(6.5,12.025,13.1));
#607=VERTEX_POINT('',#606);
#608=CARTESIAN_POINT('',(7.,12.525,13.1));
#609=VERTEX_POINT('',#608);
#610=CARTESIAN_POINT('',(6.5,12.525,13.1));
#611=DIRECTION('',(0.,0.,1.));
#612=DIRECTION('',(1.,0.,-0.));
#613=AXIS2_PLACEMENT_3D('',#610,#611,#612);
#614=CIRCLE('',#613,0.5);
#615=EDGE_CURVE('',#607,#609,#614,.T.);
#616=ORIENTED_EDGE('',*,*,#615,.F.);
#617=CARTESIAN_POINT('',(-6.5,12.025,13.1));
#618=VERTEX_POINT('',#617);
#619=CARTESIAN_POINT('',(-6.5,12.025,13.1));
#620=DIRECTION('',(1.,0.,-0.));
#621=VECTOR('',#620,13.);
#622=LINE('',#619,#621);
#623=EDGE_CURVE('',#618,#607,#622,.T.);
#624=ORIENTED_EDGE('',*,*,#623,.F.);
#625=CARTESIAN_POINT('',(-7.,12.525,13.1));
#626=VERTEX_POINT('',#625);
#627=CARTESIAN_POINT('',(-6.5,12.525,13.1));
#628=DIRECTION('',(0.,0.,1.));
#629=DIRECTION('',(1.,0.,-0.));
#630=AXIS2_PLACEMENT_3D('',#627,#628,#629);
#631=CIRCLE('',#630,0.5);
#632=EDGE_CURVE('',#626,#618,#631,.T.);
#633=ORIENTED_EDGE('',*,*,#632,.F.);
#634=CARTESIAN_POINT('',(-7.,25.525,13.1));
#635=VERTEX_POINT('',#634);
#636=CARTESIAN_POINT('',(-7.,12.525,13.1));
#637=DIRECTION('',(0.,1.,0.));
#638=VECTOR('',#637,13.);
#639=LINE('',#636,#638);
#640=EDGE_CURVE('',#626,#635,#639,.T.);
#641=ORIENTED_EDGE('',*,*,#640,.T.);
#642=CARTESIAN_POINT('',(-6.5,26.025,13.1));
#643=VERTEX_POINT('',#642);
#644=CARTESIAN_POINT('',(-6.5,25.525,13.1));
#645=DIRECTION('',(0.,0.,1.));
#646=DIRECTION('',(1.,0.,-0.));
#647=AXIS2_PLACEMENT_3D('',#644,#645,#646);
#648=CIRCLE('',#647,0.5);
#649=EDGE_CURVE('',#643,#635,#648,.T.);
#650=ORIENTED_EDGE('',*,*,#649,.F.);
#651=CARTESIAN_POINT('',(6.5,26.025,13.1));
#652=VERTEX_POINT('',#651);
#653=CARTESIAN_POINT('',(-6.5,26.025,13.1));
#654=DIRECTION('',(1.,0.,-0.));
#655=VECTOR('',#654,13.);
#656=LINE('',#653,#655);
#657=EDGE_CURVE('',#643,#652,#656,.T.);
#658=ORIENTED_EDGE('',*,*,#657,.T.);
#659=CARTESIAN_POINT('',(7.,25.525,13.1));
#660=VERTEX_POINT('',#659);
#661=CARTESIAN_POINT('',(6.5,25.525,13.1));
#662=DIRECTION('',(0.,0.,1.));
#663=DIRECTION('',(1.,0.,-0.));
#664=AXIS2_PLACEMENT_3D('',#661,#662,#663);
#665=CIRCLE('',#664,0.5);
#666=EDGE_CURVE('',#660,#652,#665,.T.);
#667=ORIENTED_EDGE('',*,*,#666,.F.);
#668=CARTESIAN_POINT('',(7.,12.525,13.1));
#669=DIRECTION('',(0.,1.,0.));
#670=VECTOR('',#669,13.);
#671=LINE('',#668,#670);
#672=EDGE_CURVE('',#609,#660,#671,.T.);
#673=ORIENTED_EDGE('',*,*,#672,.F.);
#674=EDGE_LOOP('',(#616,#624,#633,#641,#650,#658,#667,#673));
#675=FACE_BOUND('',#674,.T.);
#676=ORIENTED_EDGE('',*,*,#40,.F.);
#677=ORIENTED_EDGE('',*,*,#78,.F.);
#678=ORIENTED_EDGE('',*,*,#109,.F.);
#679=ORIENTED_EDGE('',*,*,#138,.F.);
#680=EDGE_LOOP('',(#676,#677,#678,#679));
#681=FACE_BOUND('',#680,.T.);
#682=ADVANCED_FACE('',(#432,#443,#454,#465,#535,#605,#675,#681),#421,.T.);
#683=CARTESIAN_POINT('',(6.5,12.525,-18.9));
#684=DIRECTION('',(0.,0.,1.));
#685=DIRECTION('',(1.,0.,-0.));
#686=AXIS2_PLACEMENT_3D('',#683,#684,#685);
#687=CYLINDRICAL_SURFACE('',#686,0.5);
#688=CARTESIAN_POINT('',(6.5,12.025,10.1));
#689=DIRECTION('',(0.,0.,1.));
#690=VECTOR('',#689,3.);
#691=LINE('',#688,#690);
#692=EDGE_CURVE('',#343,#607,#691,.T.);
#693=ORIENTED_EDGE('',*,*,#692,.T.);
#694=ORIENTED_EDGE('',*,*,#615,.T.);
#695=CARTESIAN_POINT('',(7.,12.525,10.1));
#696=DIRECTION('',(0.,0.,1.));
#697=VECTOR('',#696,3.);
#698=LINE('',#695,#697);
#699=EDGE_CURVE('',#351,#609,#698,.T.);
#700=ORIENTED_EDGE('',*,*,#699,.F.);
#701=ORIENTED_EDGE('',*,*,#357,.F.);
#702=EDGE_LOOP('',(#693,#694,#700,#701));
#703=FACE_BOUND('',#702,.T.);
#704=ADVANCED_FACE('',(#703),#687,.F.);
#705=CARTESIAN_POINT('',(7.,19.025,-18.9));
#706=DIRECTION('',(1.,0.,0.));
#707=DIRECTION('',(0.,0.,-1.));
#708=AXIS2_PLACEMENT_3D('',#705,#706,#707);
#709=PLANE('',#708);
#710=ORIENTED_EDGE('',*,*,#699,.T.);
#711=ORIENTED_EDGE('',*,*,#672,.T.);
#712=CARTESIAN_POINT('',(7.,25.525,10.1));
#713=DIRECTION('',(0.,0.,1.));
#714=VECTOR('',#713,3.);
#715=LINE('',#712,#714);
#716=EDGE_CURVE('',#360,#660,#715,.T.);
#717=ORIENTED_EDGE('',*,*,#716,.F.);
#718=ORIENTED_EDGE('',*,*,#365,.F.);
#719=EDGE_LOOP('',(#710,#711,#717,#718));
#720=FACE_BOUND('',#719,.T.);
#721=ADVANCED_FACE('',(#720),#709,.F.);
#722=CARTESIAN_POINT('',(6.5,25.525,-18.9));
#723=DIRECTION('',(0.,0.,1.));
#724=DIRECTION('',(1.,0.,-0.));
#725=AXIS2_PLACEMENT_3D('',#722,#723,#724);
#726=CYLINDRICAL_SURFACE('',#725,0.5);
#727=ORIENTED_EDGE('',*,*,#716,.T.);
#728=ORIENTED_EDGE('',*,*,#666,.T.);
#729=CARTESIAN_POINT('',(6.5,26.025,10.1));
#730=DIRECTION('',(0.,0.,1.));
#731=VECTOR('',#730,3.);
#732=LINE('',#729,#731);
#733=EDGE_CURVE('',#368,#652,#732,.T.);
#734=ORIENTED_EDGE('',*,*,#733,.F.);
#735=ORIENTED_EDGE('',*,*,#374,.F.);
#736=EDGE_LOOP('',(#727,#728,#734,#735));
#737=FACE_BOUND('',#736,.T.);
#738=ADVANCED_FACE('',(#737),#726,.F.);
#739=CARTESIAN_POINT('',(-0.,26.025,-18.9));
#740=DIRECTION('',(0.,-1.,0.));
#741=DIRECTION('',(0.,0.,-1.));
#742=AXIS2_PLACEMENT_3D('',#739,#740,#741);
#743=PLANE('',#742);
#744=ORIENTED_EDGE('',*,*,#382,.T.);
#745=ORIENTED_EDGE('',*,*,#733,.T.);
#746=ORIENTED_EDGE('',*,*,#657,.F.);
#747=CARTESIAN_POINT('',(-6.5,26.025,10.1));
#748=DIRECTION('',(0.,0.,1.));
#749=VECTOR('',#748,3.);
#750=LINE('',#747,#749);
#751=EDGE_CURVE('',#377,#643,#750,.T.);
#752=ORIENTED_EDGE('',*,*,#751,.F.);
#753=EDGE_LOOP('',(#744,#745,#746,#752));
#754=FACE_BOUND('',#753,.T.);
#755=ADVANCED_FACE('',(#754),#743,.T.);
#756=CARTESIAN_POINT('',(-6.5,25.525,-18.9));
#757=DIRECTION('',(0.,0.,1.));
#758=DIRECTION('',(1.,0.,-0.));
#759=AXIS2_PLACEMENT_3D('',#756,#757,#758);
#760=CYLINDRICAL_SURFACE('',#759,0.5);
#761=ORIENTED_EDGE('',*,*,#751,.T.);
#762=ORIENTED_EDGE('',*,*,#649,.T.);
#763=CARTESIAN_POINT('',(-7.,25.525,10.1));
#764=DIRECTION('',(0.,0.,1.));
#765=VECTOR('',#764,3.);
#766=LINE('',#763,#765);
#767=EDGE_CURVE('',#385,#635,#766,.T.);
#768=ORIENTED_EDGE('',*,*,#767,.F.);
#769=ORIENTED_EDGE('',*,*,#391,.F.);
#770=EDGE_LOOP('',(#761,#762,#768,#769));
#771=FACE_BOUND('',#770,.T.);
#772=ADVANCED_FACE('',(#771),#760,.F.);
#773=CARTESIAN_POINT('',(-7.,19.025,-18.9));
#774=DIRECTION('',(1.,0.,0.));
#775=DIRECTION('',(0.,0.,-1.));
#776=AXIS2_PLACEMENT_3D('',#773,#774,#775);
#777=PLANE('',#776);
#778=ORIENTED_EDGE('',*,*,#399,.T.);
#779=ORIENTED_EDGE('',*,*,#767,.T.);
#780=ORIENTED_EDGE('',*,*,#640,.F.);
#781=CARTESIAN_POINT('',(-7.,12.525,10.1));
#782=DIRECTION('',(0.,0.,1.));
#783=VECTOR('',#782,3.);
#784=LINE('',#781,#783);
#785=EDGE_CURVE('',#394,#626,#784,.T.);
#786=ORIENTED_EDGE('',*,*,#785,.F.);
#787=EDGE_LOOP('',(#778,#779,#780,#786));
#788=FACE_BOUND('',#787,.T.);
#789=ADVANCED_FACE('',(#788),#777,.T.);
#790=CARTESIAN_POINT('',(-6.5,12.525,-18.9));
#791=DIRECTION('',(0.,0.,1.));
#792=DIRECTION('',(1.,0.,-0.));
#793=AXIS2_PLACEMENT_3D('',#790,#791,#792);
#794=CYLINDRICAL_SURFACE('',#793,0.5);
#795=ORIENTED_EDGE('',*,*,#785,.T.);
#796=ORIENTED_EDGE('',*,*,#632,.T.);
#797=CARTESIAN_POINT('',(-6.5,12.025,10.1));
#798=DIRECTION('',(0.,0.,1.));
#799=VECTOR('',#798,3.);
#800=LINE('',#797,#799);
#801=EDGE_CURVE('',#341,#618,#800,.T.);
#802=ORIENTED_EDGE('',*,*,#801,.F.);
#803=ORIENTED_EDGE('',*,*,#406,.F.);
#804=EDGE_LOOP('',(#795,#796,#802,#803));
#805=FACE_BOUND('',#804,.T.);
#806=ADVANCED_FACE('',(#805),#794,.F.);
#807=CARTESIAN_POINT('',(-0.,12.025,-18.9));
#808=DIRECTION('',(0.,-1.,0.));
#809=DIRECTION('',(0.,0.,-1.));
#810=AXIS2_PLACEMENT_3D('',#807,#808,#809);
#811=PLANE('',#810);
#812=ORIENTED_EDGE('',*,*,#801,.T.);
#813=ORIENTED_EDGE('',*,*,#623,.T.);
#814=ORIENTED_EDGE('',*,*,#692,.F.);
#815=ORIENTED_EDGE('',*,*,#348,.F.);
#816=EDGE_LOOP('',(#812,#813,#814,#815));
#817=FACE_BOUND('',#816,.T.);
#818=ADVANCED_FACE('',(#817),#811,.F.);
#819=CARTESIAN_POINT('',(6.5,-25.575,-18.9));
#820=DIRECTION('',(0.,0.,1.));
#821=DIRECTION('',(1.,0.,-0.));
#822=AXIS2_PLACEMENT_3D('',#819,#820,#821);
#823=CYLINDRICAL_SURFACE('',#822,0.5);
#824=CARTESIAN_POINT('',(6.5,-26.075,10.1));
#825=DIRECTION('',(0.,0.,1.));
#826=VECTOR('',#825,3.);
#827=LINE('',#824,#826);
#828=EDGE_CURVE('',#273,#537,#827,.T.);
#829=ORIENTED_EDGE('',*,*,#828,.T.);
#830=ORIENTED_EDGE('',*,*,#545,.T.);
#831=CARTESIAN_POINT('',(7.,-25.575,10.1));
#832=DIRECTION('',(0.,0.,1.));
#833=VECTOR('',#832,3.);
#834=LINE('',#831,#833);
#835=EDGE_CURVE('',#281,#539,#834,.T.);
#836=ORIENTED_EDGE('',*,*,#835,.F.);
#837=ORIENTED_EDGE('',*,*,#287,.F.);
#838=EDGE_LOOP('',(#829,#830,#836,#837));
#839=FACE_BOUND('',#838,.T.);
#840=ADVANCED_FACE('',(#839),#823,.F.);
#841=CARTESIAN_POINT('',(7.,-19.075,-18.9));
#842=DIRECTION('',(1.,0.,0.));
#843=DIRECTION('',(0.,0.,-1.));
#844=AXIS2_PLACEMENT_3D('',#841,#842,#843);
#845=PLANE('',#844);
#846=ORIENTED_EDGE('',*,*,#835,.T.);
#847=ORIENTED_EDGE('',*,*,#602,.T.);
#848=CARTESIAN_POINT('',(7.,-12.575,10.1));
#849=DIRECTION('',(0.,0.,1.));
#850=VECTOR('',#849,3.);
#851=LINE('',#848,#850);
#852=EDGE_CURVE('',#290,#590,#851,.T.);
#853=ORIENTED_EDGE('',*,*,#852,.F.);
#854=ORIENTED_EDGE('',*,*,#295,.F.);
#855=EDGE_LOOP('',(#846,#847,#853,#854));
#856=FACE_BOUND('',#855,.T.);
#857=ADVANCED_FACE('',(#856),#845,.F.);
#858=CARTESIAN_POINT('',(6.5,-12.575,-18.9));
#859=DIRECTION('',(0.,0.,1.));
#860=DIRECTION('',(1.,0.,-0.));
#861=AXIS2_PLACEMENT_3D('',#858,#859,#860);
#862=CYLINDRICAL_SURFACE('',#861,0.5);
#863=ORIENTED_EDGE('',*,*,#852,.T.);
#864=ORIENTED_EDGE('',*,*,#596,.T.);
#865=CARTESIAN_POINT('',(6.5,-12.075,10.1));
#866=DIRECTION('',(0.,0.,1.));
#867=VECTOR('',#866,3.);
#868=LINE('',#865,#867);
#869=EDGE_CURVE('',#298,#582,#868,.T.);
#870=ORIENTED_EDGE('',*,*,#869,.F.);
#871=ORIENTED_EDGE('',*,*,#304,.F.);
#872=EDGE_LOOP('',(#863,#864,#870,#871));
#873=FACE_BOUND('',#872,.T.);
#874=ADVANCED_FACE('',(#873),#862,.F.);
#875=CARTESIAN_POINT('',(-0.,-12.075,-18.9));
#876=DIRECTION('',(0.,-1.,0.));
#877=DIRECTION('',(0.,0.,-1.));
#878=AXIS2_PLACEMENT_3D('',#875,#876,#877);
#879=PLANE('',#878);
#880=ORIENTED_EDGE('',*,*,#312,.T.);
#881=ORIENTED_EDGE('',*,*,#869,.T.);
#882=ORIENTED_EDGE('',*,*,#587,.F.);
#883=CARTESIAN_POINT('',(-6.5,-12.075,10.1));
#884=DIRECTION('',(0.,0.,1.));
#885=VECTOR('',#884,3.);
#886=LINE('',#883,#885);
#887=EDGE_CURVE('',#307,#573,#886,.T.);
#888=ORIENTED_EDGE('',*,*,#887,.F.);
#889=EDGE_LOOP('',(#880,#881,#882,#888));
#890=FACE_BOUND('',#889,.T.);
#891=ADVANCED_FACE('',(#890),#879,.T.);
#892=CARTESIAN_POINT('',(-6.5,-12.575,-18.9));
#893=DIRECTION('',(0.,0.,1.));
#894=DIRECTION('',(1.,0.,-0.));
#895=AXIS2_PLACEMENT_3D('',#892,#893,#894);
#896=CYLINDRICAL_SURFACE('',#895,0.5);
#897=ORIENTED_EDGE('',*,*,#887,.T.);
#898=ORIENTED_EDGE('',*,*,#579,.T.);
#899=CARTESIAN_POINT('',(-7.,-12.575,10.1));
#900=DIRECTION('',(0.,0.,1.));
#901=VECTOR('',#900,3.);
#902=LINE('',#899,#901);
#903=EDGE_CURVE('',#315,#565,#902,.T.);
#904=ORIENTED_EDGE('',*,*,#903,.F.);
#905=ORIENTED_EDGE('',*,*,#321,.F.);
#906=EDGE_LOOP('',(#897,#898,#904,#905));
#907=FACE_BOUND('',#906,.T.);
#908=ADVANCED_FACE('',(#907),#896,.F.);
#909=CARTESIAN_POINT('',(-7.,-19.075,-18.9));
#910=DIRECTION('',(1.,0.,0.));
#911=DIRECTION('',(0.,0.,-1.));
#912=AXIS2_PLACEMENT_3D('',#909,#910,#911);
#913=PLANE('',#912);
#914=ORIENTED_EDGE('',*,*,#329,.T.);
#915=ORIENTED_EDGE('',*,*,#903,.T.);
#916=ORIENTED_EDGE('',*,*,#570,.F.);
#917=CARTESIAN_POINT('',(-7.,-25.575,10.1));
#918=DIRECTION('',(0.,0.,1.));
#919=VECTOR('',#918,3.);
#920=LINE('',#917,#919);
#921=EDGE_CURVE('',#324,#556,#920,.T.);
#922=ORIENTED_EDGE('',*,*,#921,.F.);
#923=EDGE_LOOP('',(#914,#915,#916,#922));
#924=FACE_BOUND('',#923,.T.);
#925=ADVANCED_FACE('',(#924),#913,.T.);
#926=CARTESIAN_POINT('',(-6.5,-25.575,-18.9));
#927=DIRECTION('',(0.,0.,1.));
#928=DIRECTION('',(1.,0.,-0.));
#929=AXIS2_PLACEMENT_3D('',#926,#927,#928);
#930=CYLINDRICAL_SURFACE('',#929,0.5);
#931=ORIENTED_EDGE('',*,*,#921,.T.);
#932=ORIENTED_EDGE('',*,*,#562,.T.);
#933=CARTESIAN_POINT('',(-6.5,-26.075,10.1));
#934=DIRECTION('',(0.,0.,1.));
#935=VECTOR('',#934,3.);
#936=LINE('',#933,#935);
#937=EDGE_CURVE('',#271,#548,#936,.T.);
#938=ORIENTED_EDGE('',*,*,#937,.F.);
#939=ORIENTED_EDGE('',*,*,#336,.F.);
#940=EDGE_LOOP('',(#931,#932,#938,#939));
#941=FACE_BOUND('',#940,.T.);
#942=ADVANCED_FACE('',(#941),#930,.F.);
#943=CARTESIAN_POINT('',(-0.,-26.075,-18.9));
#944=DIRECTION('',(0.,-1.,0.));
#945=DIRECTION('',(0.,0.,-1.));
#946=AXIS2_PLACEMENT_3D('',#943,#944,#945);
#947=PLANE('',#946);
#948=ORIENTED_EDGE('',*,*,#937,.T.);
#949=ORIENTED_EDGE('',*,*,#553,.T.);
#950=ORIENTED_EDGE('',*,*,#828,.F.);
#951=ORIENTED_EDGE('',*,*,#278,.F.);
#952=EDGE_LOOP('',(#948,#949,#950,#951));
#953=FACE_BOUND('',#952,.T.);
#954=ADVANCED_FACE('',(#953),#947,.F.);
#955=CARTESIAN_POINT('',(6.5,-6.525,-18.9));
#956=DIRECTION('',(0.,0.,1.));
#957=DIRECTION('',(1.,0.,-0.));
#958=AXIS2_PLACEMENT_3D('',#955,#956,#957);
#959=CYLINDRICAL_SURFACE('',#958,0.5);
#960=CARTESIAN_POINT('',(6.5,-7.025,10.1));
#961=DIRECTION('',(0.,0.,1.));
#962=VECTOR('',#961,3.);
#963=LINE('',#960,#962);
#964=EDGE_CURVE('',#203,#467,#963,.T.);
#965=ORIENTED_EDGE('',*,*,#964,.T.);
#966=ORIENTED_EDGE('',*,*,#475,.T.);
#967=CARTESIAN_POINT('',(7.,-6.525,10.1));
#968=DIRECTION('',(0.,0.,1.));
#969=VECTOR('',#968,3.);
#970=LINE('',#967,#969);
#971=EDGE_CURVE('',#211,#469,#970,.T.);
#972=ORIENTED_EDGE('',*,*,#971,.F.);
#973=ORIENTED_EDGE('',*,*,#217,.F.);
#974=EDGE_LOOP('',(#965,#966,#972,#973));
#975=FACE_BOUND('',#974,.T.);
#976=ADVANCED_FACE('',(#975),#959,.F.);
#977=CARTESIAN_POINT('',(7.,-0.025,-18.9));
#978=DIRECTION('',(1.,0.,0.));
#979=DIRECTION('',(0.,0.,-1.));
#980=AXIS2_PLACEMENT_3D('',#977,#978,#979);
#981=PLANE('',#980);
#982=ORIENTED_EDGE('',*,*,#971,.T.);
#983=ORIENTED_EDGE('',*,*,#532,.T.);
#984=CARTESIAN_POINT('',(7.,6.475,10.1));
#985=DIRECTION('',(0.,0.,1.));
#986=VECTOR('',#985,3.);
#987=LINE('',#984,#986);
#988=EDGE_CURVE('',#220,#520,#987,.T.);
#989=ORIENTED_EDGE('',*,*,#988,.F.);
#990=ORIENTED_EDGE('',*,*,#225,.F.);
#991=EDGE_LOOP('',(#982,#983,#989,#990));
#992=FACE_BOUND('',#991,.T.);
#993=ADVANCED_FACE('',(#992),#981,.F.);
#994=CARTESIAN_POINT('',(6.5,6.475,-18.9));
#995=DIRECTION('',(0.,0.,1.));
#996=DIRECTION('',(1.,0.,-0.));
#997=AXIS2_PLACEMENT_3D('',#994,#995,#996);
#998=CYLINDRICAL_SURFACE('',#997,0.5);
#999=ORIENTED_EDGE('',*,*,#988,.T.);
#1000=ORIENTED_EDGE('',*,*,#526,.T.);
#1001=CARTESIAN_POINT('',(6.5,6.975,10.1));
#1002=DIRECTION('',(0.,0.,1.));
#1003=VECTOR('',#1002,3.);
#1004=LINE('',#1001,#1003);
#1005=EDGE_CURVE('',#228,#512,#1004,.T.);
#1006=ORIENTED_EDGE('',*,*,#1005,.F.);
#1007=ORIENTED_EDGE('',*,*,#234,.F.);
#1008=EDGE_LOOP('',(#999,#1000,#1006,#1007));
#1009=FACE_BOUND('',#1008,.T.);
#1010=ADVANCED_FACE('',(#1009),#998,.F.);
#1011=CARTESIAN_POINT('',(-0.,6.975,-18.9));
#1012=DIRECTION('',(0.,-1.,0.));
#1013=DIRECTION('',(0.,0.,-1.));
#1014=AXIS2_PLACEMENT_3D('',#1011,#1012,#1013);
#1015=PLANE('',#1014);
#1016=ORIENTED_EDGE('',*,*,#242,.T.);
#1017=ORIENTED_EDGE('',*,*,#1005,.T.);
#1018=ORIENTED_EDGE('',*,*,#517,.F.);
#1019=CARTESIAN_POINT('',(-6.5,6.975,10.1));
#1020=DIRECTION('',(0.,0.,1.));
#1021=VECTOR('',#1020,3.);
#1022=LINE('',#1019,#1021);
#1023=EDGE_CURVE('',#237,#503,#1022,.T.);
#1024=ORIENTED_EDGE('',*,*,#1023,.F.);
#1025=EDGE_LOOP('',(#1016,#1017,#1018,#1024));
#1026=FACE_BOUND('',#1025,.T.);
#1027=ADVANCED_FACE('',(#1026),#1015,.T.);
#1028=CARTESIAN_POINT('',(-6.5,6.475,-18.9));
#1029=DIRECTION('',(0.,0.,1.));
#1030=DIRECTION('',(1.,0.,-0.));
#1031=AXIS2_PLACEMENT_3D('',#1028,#1029,#1030);
#1032=CYLINDRICAL_SURFACE('',#1031,0.5);
#1033=ORIENTED_EDGE('',*,*,#1023,.T.);
#1034=ORIENTED_EDGE('',*,*,#509,.T.);
#1035=CARTESIAN_POINT('',(-7.,6.475,10.1));
#1036=DIRECTION('',(0.,0.,1.));
#1037=VECTOR('',#1036,3.);
#1038=LINE('',#1035,#1037);
#1039=EDGE_CURVE('',#245,#495,#1038,.T.);
#1040=ORIENTED_EDGE('',*,*,#1039,.F.);
#1041=ORIENTED_EDGE('',*,*,#251,.F.);
#1042=EDGE_LOOP('',(#1033,#1034,#1040,#1041));
#1043=FACE_BOUND('',#1042,.T.);
#1044=ADVANCED_FACE('',(#1043),#1032,.F.);
#1045=CARTESIAN_POINT('',(-7.,-0.025,-18.9));
#1046=DIRECTION('',(1.,-0.,0.));
#1047=DIRECTION('',(0.,1.,0.));
#1048=AXIS2_PLACEMENT_3D('',#1045,#1046,#1047);
#1049=PLANE('',#1048);
#1050=ORIENTED_EDGE('',*,*,#259,.T.);
#1051=ORIENTED_EDGE('',*,*,#1039,.T.);
#1052=ORIENTED_EDGE('',*,*,#500,.F.);
#1053=CARTESIAN_POINT('',(-7.,-6.525,10.1));
#1054=DIRECTION('',(0.,0.,1.));
#1055=VECTOR('',#1054,3.);
#1056=LINE('',#1053,#1055);
#1057=EDGE_CURVE('',#254,#486,#1056,.T.);
#1058=ORIENTED_EDGE('',*,*,#1057,.F.);
#1059=EDGE_LOOP('',(#1050,#1051,#1052,#1058));
#1060=FACE_BOUND('',#1059,.T.);
#1061=ADVANCED_FACE('',(#1060),#1049,.T.);
#1062=CARTESIAN_POINT('',(-6.5,-6.525,-18.9));
#1063=DIRECTION('',(0.,0.,1.));
#1064=DIRECTION('',(1.,0.,-0.));
#1065=AXIS2_PLACEMENT_3D('',#1062,#1063,#1064);
#1066=CYLINDRICAL_SURFACE('',#1065,0.5);
#1067=ORIENTED_EDGE('',*,*,#1057,.T.);
#1068=ORIENTED_EDGE('',*,*,#492,.T.);
#1069=CARTESIAN_POINT('',(-6.5,-7.025,10.1));
#1070=DIRECTION('',(0.,0.,1.));
#1071=VECTOR('',#1070,3.);
#1072=LINE('',#1069,#1071);
#1073=EDGE_CURVE('',#201,#478,#1072,.T.);
#1074=ORIENTED_EDGE('',*,*,#1073,.F.);
#1075=ORIENTED_EDGE('',*,*,#266,.F.);
#1076=EDGE_LOOP('',(#1067,#1068,#1074,#1075));
#1077=FACE_BOUND('',#1076,.T.);
#1078=ADVANCED_FACE('',(#1077),#1066,.F.);
#1079=CARTESIAN_POINT('',(-0.,-7.025,-18.9));
#1080=DIRECTION('',(0.,-1.,0.));
#1081=DIRECTION('',(0.,0.,-1.));
#1082=AXIS2_PLACEMENT_3D('',#1079,#1080,#1081);
#1083=PLANE('',#1082);
#1084=ORIENTED_EDGE('',*,*,#1073,.T.);
#1085=ORIENTED_EDGE('',*,*,#483,.T.);
#1086=ORIENTED_EDGE('',*,*,#964,.F.);
#1087=ORIENTED_EDGE('',*,*,#208,.F.);
#1088=EDGE_LOOP('',(#1084,#1085,#1086,#1087));
#1089=FACE_BOUND('',#1088,.T.);
#1090=ADVANCED_FACE('',(#1089),#1083,.F.);
#1091=CARTESIAN_POINT('',(14.7,-33.9,9.1));
#1092=DIRECTION('',(0.,0.,1.));
#1093=DIRECTION('',(1.,0.,-0.));
#1094=AXIS2_PLACEMENT_3D('',#1091,#1092,#1093);
#1095=CYLINDRICAL_SURFACE('',#1094,1.7);
#1096=CARTESIAN_POINT('',(16.4,-33.9,13.1));
#1097=DIRECTION('',(-0.,-0.,-1.));
#1098=VECTOR('',#1097,3.);
#1099=LINE('',#1096,#1098);
#1100=EDGE_CURVE('',#456,#190,#1099,.T.);
#1101=ORIENTED_EDGE('',*,*,#1100,.F.);
#1102=ORIENTED_EDGE('',*,*,#462,.T.);
#1103=ORIENTED_EDGE('',*,*,#1100,.T.);
#1104=ORIENTED_EDGE('',*,*,#196,.F.);
#1105=EDGE_LOOP('',(#1101,#1102,#1103,#1104));
#1106=FACE_BOUND('',#1105,.T.);
#1107=ADVANCED_FACE('',(#1106),#1095,.F.);
#1108=CARTESIAN_POINT('',(14.7,33.9,9.1));
#1109=DIRECTION('',(0.,0.,1.));
#1110=DIRECTION('',(1.,0.,-0.));
#1111=AXIS2_PLACEMENT_3D('',#1108,#1109,#1110);
#1112=CYLINDRICAL_SURFACE('',#1111,1.7);
#1113=CARTESIAN_POINT('',(16.4,33.9,13.1));
#1114=DIRECTION('',(-0.,-0.,-1.));
#1115=VECTOR('',#1114,3.);
#1116=LINE('',#1113,#1115);
#1117=EDGE_CURVE('',#445,#179,#1116,.T.);
#1118=ORIENTED_EDGE('',*,*,#1117,.F.);
#1119=ORIENTED_EDGE('',*,*,#451,.T.);
#1120=ORIENTED_EDGE('',*,*,#1117,.T.);
#1121=ORIENTED_EDGE('',*,*,#185,.F.);
#1122=EDGE_LOOP('',(#1118,#1119,#1120,#1121));
#1123=FACE_BOUND('',#1122,.T.);
#1124=ADVANCED_FACE('',(#1123),#1112,.F.);
#1125=CARTESIAN_POINT('',(-14.7,33.9,9.1));
#1126=DIRECTION('',(0.,0.,1.));
#1127=DIRECTION('',(1.,0.,-0.));
#1128=AXIS2_PLACEMENT_3D('',#1125,#1126,#1127);
#1129=CYLINDRICAL_SURFACE('',#1128,1.7);
#1130=CARTESIAN_POINT('',(-13.,33.9,13.1));
#1131=DIRECTION('',(-0.,-0.,-1.));
#1132=VECTOR('',#1131,3.);
#1133=LINE('',#1130,#1132);
#1134=EDGE_CURVE('',#434,#168,#1133,.T.);
#1135=ORIENTED_EDGE('',*,*,#1134,.F.);
#1136=ORIENTED_EDGE('',*,*,#440,.T.);
#1137=ORIENTED_EDGE('',*,*,#1134,.T.);
#1138=ORIENTED_EDGE('',*,*,#174,.F.);
#1139=EDGE_LOOP('',(#1135,#1136,#1137,#1138));
#1140=FACE_BOUND('',#1139,.T.);
#1141=ADVANCED_FACE('',(#1140),#1129,.F.);
#1142=CARTESIAN_POINT('',(-14.7,-33.982794133,9.1));
#1143=DIRECTION('',(0.,0.,1.));
#1144=DIRECTION('',(1.,0.,-0.));
#1145=AXIS2_PLACEMENT_3D('',#1142,#1143,#1144);
#1146=CYLINDRICAL_SURFACE('',#1145,1.7);
#1147=CARTESIAN_POINT('',(-13.,-33.982794133,13.1));
#1148=DIRECTION('',(-0.,-0.,-1.));
#1149=VECTOR('',#1148,3.);
#1150=LINE('',#1147,#1149);
#1151=EDGE_CURVE('',#423,#157,#1150,.T.);
#1152=ORIENTED_EDGE('',*,*,#1151,.F.);
#1153=ORIENTED_EDGE('',*,*,#429,.T.);
#1154=ORIENTED_EDGE('',*,*,#1151,.T.);
#1155=ORIENTED_EDGE('',*,*,#163,.F.);
#1156=EDGE_LOOP('',(#1152,#1153,#1154,#1155));
#1157=FACE_BOUND('',#1156,.T.);
#1158=ADVANCED_FACE('',(#1157),#1146,.F.);
#1159=CLOSED_SHELL('',(#66,#97,#128,#150,#416,#682,#704,#721,#738,#755,#772,#789,#806,#818,#840,#857,#874,#891,#908,#925,#942,#954,#976,#993,#1010,#1027,
#1044,#1061,#1078,#1090,#1107,#1124,#1141,#1158));
#1160=MANIFOLD_SOLID_BREP('Body 02',#1159);
#1161=COLOUR_RGB('',0.627451003,0.627451003,0.643137276);
#1162=FILL_AREA_STYLE_COLOUR('',#1161);
#1163=FILL_AREA_STYLE('',(#1162));
#1164=SURFACE_STYLE_FILL_AREA(#1163);
#1165=SURFACE_SIDE_STYLE('',(#1164));
#1166=SURFACE_STYLE_USAGE(.BOTH.,#1165);
#1167=PRESENTATION_STYLE_ASSIGNMENT((#1166));
#26=STYLED_ITEM('',(#1167),#1160);
#1169=CARTESIAN_POINT('',(0.,-38.9,-3.));
#1170=DIRECTION('',(-0.,1.,0.));
#1171=DIRECTION('',(-1.,-0.,0.));
#1172=AXIS2_PLACEMENT_3D('',#1169,#1170,#1171);
#1173=PLANE('',#1172);
#1174=CARTESIAN_POINT('',(6.,-38.9,4.));
#1175=VERTEX_POINT('',#1174);
#1176=CARTESIAN_POINT('',(6.,-38.9,10.));
#1177=VERTEX_POINT('',#1176);
#1178=CARTESIAN_POINT('',(6.,-38.9,4.));
#1179=DIRECTION('',(0.,0.,1.));
#1180=VECTOR('',#1179,6.);
#1181=LINE('',#1178,#1180);
#1182=EDGE_CURVE('',#1175,#1177,#1181,.T.);
#1183=ORIENTED_EDGE('',*,*,#1182,.F.);
#1184=CARTESIAN_POINT('',(-6.,-38.9,4.));
#1185=VERTEX_POINT('',#1184);
#1186=CARTESIAN_POINT('',(-6.,-38.9,4.));
#1187=DIRECTION('',(1.,0.,0.));
#1188=VECTOR('',#1187,12.);
#1189=LINE('',#1186,#1188);
#1190=EDGE_CURVE('',#1185,#1175,#1189,.T.);
#1191=ORIENTED_EDGE('',*,*,#1190,.F.);
#1192=CARTESIAN_POINT('',(-6.,-38.9,10.));
#1193=VERTEX_POINT('',#1192);
#1194=CARTESIAN_POINT('',(-6.,-38.9,10.));
#1195=DIRECTION('',(0.,0.,-1.));
#1196=VECTOR('',#1195,6.);
#1197=LINE('',#1194,#1196);
#1198=EDGE_CURVE('',#1193,#1185,#1197,.T.);
#1199=ORIENTED_EDGE('',*,*,#1198,.F.);
#1200=CARTESIAN_POINT('',(-19.7,-38.9,10.));
#1201=VERTEX_POINT('',#1200);
#1202=CARTESIAN_POINT('',(-6.,-38.9,10.));
#1203=DIRECTION('',(-1.,-0.,0.));
#1204=VECTOR('',#1203,13.7);
#1205=LINE('',#1202,#1204);
#1206=EDGE_CURVE('',#1193,#1201,#1205,.T.);
#1207=ORIENTED_EDGE('',*,*,#1206,.T.);
#1208=CARTESIAN_POINT('',(-19.7,-38.9,-3.));
#1209=VERTEX_POINT('',#1208);
#1210=CARTESIAN_POINT('',(-19.7,-38.9,-3.));
#1211=DIRECTION('',(0.,0.,1.));
#1212=VECTOR('',#1211,13.);
#1213=LINE('',#1210,#1212);
#1214=EDGE_CURVE('',#1209,#1201,#1213,.T.);
#1215=ORIENTED_EDGE('',*,*,#1214,.F.);
#1216=CARTESIAN_POINT('',(19.7,-38.9,-3.));
#1217=VERTEX_POINT('',#1216);
#1218=CARTESIAN_POINT('',(19.7,-38.9,-3.));
#1219=DIRECTION('',(-1.,-0.,0.));
#1220=VECTOR('',#1219,39.4);
#1221=LINE('',#1218,#1220);
#1222=EDGE_CURVE('',#1217,#1209,#1221,.T.);
#1223=ORIENTED_EDGE('',*,*,#1222,.F.);
#1224=CARTESIAN_POINT('',(19.7,-38.9,10.));
#1225=VERTEX_POINT('',#1224);
#1226=CARTESIAN_POINT('',(19.7,-38.9,-3.));
#1227=DIRECTION('',(0.,0.,1.));
#1228=VECTOR('',#1227,13.);
#1229=LINE('',#1226,#1228);
#1230=EDGE_CURVE('',#1217,#1225,#1229,.T.);
#1231=ORIENTED_EDGE('',*,*,#1230,.T.);
#1232=CARTESIAN_POINT('',(19.7,-38.9,10.));
#1233=DIRECTION('',(-1.,-0.,0.));
#1234=VECTOR('',#1233,13.7);
#1235=LINE('',#1232,#1234);
#1236=EDGE_CURVE('',#1225,#1177,#1235,.T.);
#1237=ORIENTED_EDGE('',*,*,#1236,.T.);
#1238=EDGE_LOOP('',(#1183,#1191,#1199,#1207,#1215,#1223,#1231,#1237));
#1239=FACE_BOUND('',#1238,.T.);
#1240=ADVANCED_FACE('',(#1239),#1173,.F.);
#1241=CARTESIAN_POINT('',(0.,-28.9,10.));
#1242=DIRECTION('',(0.,-1.,0.));
#1243=DIRECTION('',(1.,0.,0.));
#1244=AXIS2_PLACEMENT_3D('',#1241,#1242,#1243);
#1245=PLANE('',#1244);
#1246=CARTESIAN_POINT('',(6.,-28.9,10.));
#1247=VERTEX_POINT('',#1246);
#1248=CARTESIAN_POINT('',(6.,-28.9,4.));
#1249=VERTEX_POINT('',#1248);
#1250=CARTESIAN_POINT('',(6.,-28.9,10.));
#1251=DIRECTION('',(0.,0.,-1.));
#1252=VECTOR('',#1251,6.);
#1253=LINE('',#1250,#1252);
#1254=EDGE_CURVE('',#1247,#1249,#1253,.T.);
#1255=ORIENTED_EDGE('',*,*,#1254,.F.);
#1256=CARTESIAN_POINT('',(9.7,-28.9,10.));
#1257=VERTEX_POINT('',#1256);
#1258=CARTESIAN_POINT('',(9.7,-28.9,10.));
#1259=DIRECTION('',(-1.,-0.,0.));
#1260=VECTOR('',#1259,3.7);
#1261=LINE('',#1258,#1260);
#1262=EDGE_CURVE('',#1257,#1247,#1261,.T.);
#1263=ORIENTED_EDGE('',*,*,#1262,.F.);
#1264=CARTESIAN_POINT('',(9.7,-28.9,0.));
#1265=VERTEX_POINT('',#1264);
#1266=CARTESIAN_POINT('',(9.7,-28.9,10.));
#1267=DIRECTION('',(0.,0.,-1.));
#1268=VECTOR('',#1267,10.);
#1269=LINE('',#1266,#1268);
#1270=EDGE_CURVE('',#1257,#1265,#1269,.T.);
#1271=ORIENTED_EDGE('',*,*,#1270,.T.);
#1272=CARTESIAN_POINT('',(-9.7,-28.9,0.));
#1273=VERTEX_POINT('',#1272);
#1274=CARTESIAN_POINT('',(9.7,-28.9,0.));
#1275=DIRECTION('',(-1.,-0.,0.));
#1276=VECTOR('',#1275,19.4);
#1277=LINE('',#1274,#1276);
#1278=EDGE_CURVE('',#1265,#1273,#1277,.T.);
#1279=ORIENTED_EDGE('',*,*,#1278,.T.);
#1280=CARTESIAN_POINT('',(-9.7,-28.9,10.));
#1281=VERTEX_POINT('',#1280);
#1282=CARTESIAN_POINT('',(-9.7,-28.9,10.));
#1283=DIRECTION('',(0.,0.,-1.));
#1284=VECTOR('',#1283,10.);
#1285=LINE('',#1282,#1284);
#1286=EDGE_CURVE('',#1281,#1273,#1285,.T.);
#1287=ORIENTED_EDGE('',*,*,#1286,.F.);
#1288=CARTESIAN_POINT('',(-6.,-28.9,10.));
#1289=VERTEX_POINT('',#1288);
#1290=CARTESIAN_POINT('',(-6.,-28.9,10.));
#1291=DIRECTION('',(-1.,-0.,0.));
#1292=VECTOR('',#1291,3.7);
#1293=LINE('',#1290,#1292);
#1294=EDGE_CURVE('',#1289,#1281,#1293,.T.);
#1295=ORIENTED_EDGE('',*,*,#1294,.F.);
#1296=CARTESIAN_POINT('',(-6.,-28.9,4.));
#1297=VERTEX_POINT('',#1296);
#1298=CARTESIAN_POINT('',(-6.,-28.9,4.));
#1299=DIRECTION('',(0.,0.,1.));
#1300=VECTOR('',#1299,6.);
#1301=LINE('',#1298,#1300);
#1302=EDGE_CURVE('',#1297,#1289,#1301,.T.);
#1303=ORIENTED_EDGE('',*,*,#1302,.F.);
#1304=CARTESIAN_POINT('',(6.,-28.9,4.));
#1305=DIRECTION('',(-1.,-0.,-0.));
#1306=VECTOR('',#1305,12.);
#1307=LINE('',#1304,#1306);
#1308=EDGE_CURVE('',#1249,#1297,#1307,.T.);
#1309=ORIENTED_EDGE('',*,*,#1308,.F.);
#1310=EDGE_LOOP('',(#1255,#1263,#1271,#1279,#1287,#1295,#1303,#1309));
#1311=FACE_BOUND('',#1310,.T.);
#1312=ADVANCED_FACE('',(#1311),#1245,.F.);
#1313=CARTESIAN_POINT('',(0.,0.,10.));
#1314=DIRECTION('',(0.,0.,1.));
#1315=DIRECTION('',(1.,0.,0.));
#1316=AXIS2_PLACEMENT_3D('',#1313,#1314,#1315);
#1317=PLANE('',#1316);
#1318=CARTESIAN_POINT('',(17.05,33.9,10.));
#1319=VERTEX_POINT('',#1318);
#1320=CARTESIAN_POINT('',(14.7,33.9,10.));
#1321=DIRECTION('',(0.,0.,1.));
#1322=DIRECTION('',(1.,0.,-0.));
#1323=AXIS2_PLACEMENT_3D('',#1320,#1321,#1322);
#1324=CIRCLE('',#1323,2.35);
#1325=EDGE_CURVE('',#1319,#1319,#1324,.T.);
#1326=ORIENTED_EDGE('',*,*,#1325,.F.);
#1327=EDGE_LOOP('',(#1326));
#1328=FACE_BOUND('',#1327,.T.);
#1329=CARTESIAN_POINT('',(-12.35,-33.982794133,10.));
#1330=VERTEX_POINT('',#1329);
#1331=CARTESIAN_POINT('',(-14.7,-33.982794133,10.));
#1332=DIRECTION('',(0.,0.,1.));
#1333=DIRECTION('',(1.,0.,-0.));
#1334=AXIS2_PLACEMENT_3D('',#1331,#1332,#1333);
#1335=CIRCLE('',#1334,2.35);
#1336=EDGE_CURVE('',#1330,#1330,#1335,.T.);
#1337=ORIENTED_EDGE('',*,*,#1336,.F.);
#1338=EDGE_LOOP('',(#1337));
#1339=FACE_BOUND('',#1338,.T.);
#1340=CARTESIAN_POINT('',(17.05,-33.9,10.));
#1341=VERTEX_POINT('',#1340);
#1342=CARTESIAN_POINT('',(14.7,-33.9,10.));
#1343=DIRECTION('',(0.,0.,1.));
#1344=DIRECTION('',(1.,0.,-0.));
#1345=AXIS2_PLACEMENT_3D('',#1342,#1343,#1344);
#1346=CIRCLE('',#1345,2.35);
#1347=EDGE_CURVE('',#1341,#1341,#1346,.T.);
#1348=ORIENTED_EDGE('',*,*,#1347,.F.);
#1349=EDGE_LOOP('',(#1348));
#1350=FACE_BOUND('',#1349,.T.);
#1351=CARTESIAN_POINT('',(-12.35,33.9,10.));
#1352=VERTEX_POINT('',#1351);
#1353=CARTESIAN_POINT('',(-14.7,33.9,10.));
#1354=DIRECTION('',(0.,0.,1.));
#1355=DIRECTION('',(1.,0.,-0.));
#1356=AXIS2_PLACEMENT_3D('',#1353,#1354,#1355);
#1357=CIRCLE('',#1356,2.35);
#1358=EDGE_CURVE('',#1352,#1352,#1357,.T.);
#1359=ORIENTED_EDGE('',*,*,#1358,.F.);
#1360=EDGE_LOOP('',(#1359));
#1361=FACE_BOUND('',#1360,.T.);
#1362=ORIENTED_EDGE('',*,*,#1262,.T.);
#1363=CARTESIAN_POINT('',(6.,-28.9,10.));
#1364=DIRECTION('',(0.,-1.,0.));
#1365=VECTOR('',#1364,10.);
#1366=LINE('',#1363,#1365);
#1367=EDGE_CURVE('',#1247,#1177,#1366,.T.);
#1368=ORIENTED_EDGE('',*,*,#1367,.T.);
#1369=ORIENTED_EDGE('',*,*,#1236,.F.);
#1370=CARTESIAN_POINT('',(19.7,38.9,10.));
#1371=VERTEX_POINT('',#1370);
#1372=CARTESIAN_POINT('',(19.7,38.9,10.));
#1373=DIRECTION('',(0.,-1.,0.));
#1374=VECTOR('',#1373,77.8);
#1375=LINE('',#1372,#1374);
#1376=EDGE_CURVE('',#1371,#1225,#1375,.T.);
#1377=ORIENTED_EDGE('',*,*,#1376,.F.);
#1378=CARTESIAN_POINT('',(-19.7,38.9,10.));
#1379=VERTEX_POINT('',#1378);
#1380=CARTESIAN_POINT('',(-19.7,38.9,10.));
#1381=DIRECTION('',(1.,0.,0.));
#1382=VECTOR('',#1381,39.4);
#1383=LINE('',#1380,#1382);
#1384=EDGE_CURVE('',#1379,#1371,#1383,.T.);
#1385=ORIENTED_EDGE('',*,*,#1384,.F.);
#1386=CARTESIAN_POINT('',(-19.7,-38.9,10.));
#1387=DIRECTION('',(-0.,1.,0.));
#1388=VECTOR('',#1387,77.8);
#1389=LINE('',#1386,#1388);
#1390=EDGE_CURVE('',#1201,#1379,#1389,.T.);
#1391=ORIENTED_EDGE('',*,*,#1390,.F.);
#1392=ORIENTED_EDGE('',*,*,#1206,.F.);
#1393=CARTESIAN_POINT('',(-6.,-28.9,10.));
#1394=DIRECTION('',(0.,-1.,0.));
#1395=VECTOR('',#1394,10.);
#1396=LINE('',#1393,#1395);
#1397=EDGE_CURVE('',#1289,#1193,#1396,.T.);
#1398=ORIENTED_EDGE('',*,*,#1397,.F.);
#1399=ORIENTED_EDGE('',*,*,#1294,.T.);
#1400=CARTESIAN_POINT('',(-9.7,28.9,10.));
#1401=VERTEX_POINT('',#1400);
#1402=CARTESIAN_POINT('',(-9.7,-28.9,10.));
#1403=DIRECTION('',(-0.,1.,0.));
#1404=VECTOR('',#1403,57.8);
#1405=LINE('',#1402,#1404);
#1406=EDGE_CURVE('',#1281,#1401,#1405,.T.);
#1407=ORIENTED_EDGE('',*,*,#1406,.T.);
#1408=CARTESIAN_POINT('',(9.7,28.9,10.));
#1409=VERTEX_POINT('',#1408);
#1410=CARTESIAN_POINT('',(-9.7,28.9,10.));
#1411=DIRECTION('',(1.,0.,0.));
#1412=VECTOR('',#1411,19.4);
#1413=LINE('',#1410,#1412);
#1414=EDGE_CURVE('',#1401,#1409,#1413,.T.);
#1415=ORIENTED_EDGE('',*,*,#1414,.T.);
#1416=CARTESIAN_POINT('',(9.7,28.9,10.));
#1417=DIRECTION('',(0.,-1.,0.));
#1418=VECTOR('',#1417,57.8);
#1419=LINE('',#1416,#1418);
#1420=EDGE_CURVE('',#1409,#1257,#1419,.T.);
#1421=ORIENTED_EDGE('',*,*,#1420,.T.);
#1422=EDGE_LOOP('',(#1362,#1368,#1369,#1377,#1385,#1391,#1392,#1398,#1399,#1407,#1415,#1421));
#1423=FACE_BOUND('',#1422,.T.);
#1424=ADVANCED_FACE('',(#1328,#1339,#1350,#1361,#1423),#1317,.T.);
#1425=CARTESIAN_POINT('',(19.7,0.,-3.));
#1426=DIRECTION('',(-1.,-0.,0.));
#1427=DIRECTION('',(0.,-1.,0.));
#1428=AXIS2_PLACEMENT_3D('',#1425,#1426,#1427);
#1429=PLANE('',#1428);
#1430=CARTESIAN_POINT('',(19.7,38.9,-3.));
#1431=VERTEX_POINT('',#1430);
#1432=CARTESIAN_POINT('',(19.7,38.9,-3.));
#1433=DIRECTION('',(0.,0.,1.));
#1434=VECTOR('',#1433,13.);
#1435=LINE('',#1432,#1434);
#1436=EDGE_CURVE('',#1431,#1371,#1435,.T.);
#1437=ORIENTED_EDGE('',*,*,#1436,.T.);
#1438=ORIENTED_EDGE('',*,*,#1376,.T.);
#1439=ORIENTED_EDGE('',*,*,#1230,.F.);
#1440=CARTESIAN_POINT('',(19.7,38.9,-3.));
#1441=DIRECTION('',(0.,-1.,0.));
#1442=VECTOR('',#1441,77.8);
#1443=LINE('',#1440,#1442);
#1444=EDGE_CURVE('',#1431,#1217,#1443,.T.);
#1445=ORIENTED_EDGE('',*,*,#1444,.F.);
#1446=EDGE_LOOP('',(#1437,#1438,#1439,#1445));
#1447=FACE_BOUND('',#1446,.T.);
#1448=ADVANCED_FACE('',(#1447),#1429,.F.);
#1449=CARTESIAN_POINT('',(-0.,38.9,-3.));
#1450=DIRECTION('',(0.,-1.,0.));
#1451=DIRECTION('',(1.,0.,0.));
#1452=AXIS2_PLACEMENT_3D('',#1449,#1450,#1451);
#1453=PLANE('',#1452);
#1454=CARTESIAN_POINT('',(-19.7,38.9,-3.));
#1455=VERTEX_POINT('',#1454);
#1456=CARTESIAN_POINT('',(-19.7,38.9,-3.));
#1457=DIRECTION('',(0.,0.,1.));
#1458=VECTOR('',#1457,13.);
#1459=LINE('',#1456,#1458);
#1460=EDGE_CURVE('',#1455,#1379,#1459,.T.);
#1461=ORIENTED_EDGE('',*,*,#1460,.T.);
#1462=ORIENTED_EDGE('',*,*,#1384,.T.);
#1463=ORIENTED_EDGE('',*,*,#1436,.F.);
#1464=CARTESIAN_POINT('',(-19.7,38.9,-3.));
#1465=DIRECTION('',(1.,0.,0.));
#1466=VECTOR('',#1465,39.4);
#1467=LINE('',#1464,#1466);
#1468=EDGE_CURVE('',#1455,#1431,#1467,.T.);
#1469=ORIENTED_EDGE('',*,*,#1468,.F.);
#1470=EDGE_LOOP('',(#1461,#1462,#1463,#1469));
#1471=FACE_BOUND('',#1470,.T.);
#1472=ADVANCED_FACE('',(#1471),#1453,.F.);
#1473=CARTESIAN_POINT('',(-19.7,-0.,-3.));
#1474=DIRECTION('',(1.,0.,0.));
#1475=DIRECTION('',(-0.,1.,0.));
#1476=AXIS2_PLACEMENT_3D('',#1473,#1474,#1475);
#1477=PLANE('',#1476);
#1478=ORIENTED_EDGE('',*,*,#1214,.T.);
#1479=ORIENTED_EDGE('',*,*,#1390,.T.);
#1480=ORIENTED_EDGE('',*,*,#1460,.F.);
#1481=CARTESIAN_POINT('',(-19.7,-38.9,-3.));
#1482=DIRECTION('',(-0.,1.,0.));
#1483=VECTOR('',#1482,77.8);
#1484=LINE('',#1481,#1483);
#1485=EDGE_CURVE('',#1209,#1455,#1484,.T.);
#1486=ORIENTED_EDGE('',*,*,#1485,.F.);
#1487=EDGE_LOOP('',(#1478,#1479,#1480,#1486));
#1488=FACE_BOUND('',#1487,.T.);
#1489=ADVANCED_FACE('',(#1488),#1477,.F.);
#1490=CARTESIAN_POINT('',(0.,0.,-3.));
#1491=DIRECTION('',(0.,0.,1.));
#1492=DIRECTION('',(1.,0.,0.));
#1493=AXIS2_PLACEMENT_3D('',#1490,#1491,#1492);
#1494=PLANE('',#1493);
#1495=ORIENTED_EDGE('',*,*,#1444,.T.);
#1496=ORIENTED_EDGE('',*,*,#1222,.T.);
#1497=ORIENTED_EDGE('',*,*,#1485,.T.);
#1498=ORIENTED_EDGE('',*,*,#1468,.T.);
#1499=EDGE_LOOP('',(#1495,#1496,#1497,#1498));
#1500=FACE_BOUND('',#1499,.T.);
#1501=ADVANCED_FACE('',(#1500),#1494,.F.);
#1502=CARTESIAN_POINT('',(-0.,28.9,10.));
#1503=DIRECTION('',(-0.,1.,0.));
#1504=DIRECTION('',(-1.,-0.,0.));
#1505=AXIS2_PLACEMENT_3D('',#1502,#1503,#1504);
#1506=PLANE('',#1505);
#1507=CARTESIAN_POINT('',(-9.7,28.9,0.));
#1508=VERTEX_POINT('',#1507);
#1509=CARTESIAN_POINT('',(9.7,28.9,0.));
#1510=VERTEX_POINT('',#1509);
#1511=CARTESIAN_POINT('',(-9.7,28.9,0.));
#1512=DIRECTION('',(1.,0.,0.));
#1513=VECTOR('',#1512,19.4);
#1514=LINE('',#1511,#1513);
#1515=EDGE_CURVE('',#1508,#1510,#1514,.T.);
#1516=ORIENTED_EDGE('',*,*,#1515,.T.);
#1517=CARTESIAN_POINT('',(9.7,28.9,10.));
#1518=DIRECTION('',(0.,0.,-1.));
#1519=VECTOR('',#1518,10.);
#1520=LINE('',#1517,#1519);
#1521=EDGE_CURVE('',#1409,#1510,#1520,.T.);
#1522=ORIENTED_EDGE('',*,*,#1521,.F.);
#1523=ORIENTED_EDGE('',*,*,#1414,.F.);
#1524=CARTESIAN_POINT('',(-9.7,28.9,10.));
#1525=DIRECTION('',(0.,0.,-1.));
#1526=VECTOR('',#1525,10.);
#1527=LINE('',#1524,#1526);
#1528=EDGE_CURVE('',#1401,#1508,#1527,.T.);
#1529=ORIENTED_EDGE('',*,*,#1528,.T.);
#1530=EDGE_LOOP('',(#1516,#1522,#1523,#1529));
#1531=FACE_BOUND('',#1530,.T.);
#1532=ADVANCED_FACE('',(#1531),#1506,.F.);
#1533=CARTESIAN_POINT('',(9.7,0.,10.));
#1534=DIRECTION('',(1.,0.,0.));
#1535=DIRECTION('',(-0.,1.,0.));
#1536=AXIS2_PLACEMENT_3D('',#1533,#1534,#1535);
#1537=PLANE('',#1536);
#1538=CARTESIAN_POINT('',(9.7,28.9,0.));
#1539=DIRECTION('',(0.,-1.,0.));
#1540=VECTOR('',#1539,57.8);
#1541=LINE('',#1538,#1540);
#1542=EDGE_CURVE('',#1510,#1265,#1541,.T.);
#1543=ORIENTED_EDGE('',*,*,#1542,.T.);
#1544=ORIENTED_EDGE('',*,*,#1270,.F.);
#1545=ORIENTED_EDGE('',*,*,#1420,.F.);
#1546=ORIENTED_EDGE('',*,*,#1521,.T.);
#1547=EDGE_LOOP('',(#1543,#1544,#1545,#1546));
#1548=FACE_BOUND('',#1547,.T.);
#1549=ADVANCED_FACE('',(#1548),#1537,.F.);
#1550=CARTESIAN_POINT('',(-9.7,-0.,10.));
#1551=DIRECTION('',(-1.,-0.,0.));
#1552=DIRECTION('',(0.,-1.,0.));
#1553=AXIS2_PLACEMENT_3D('',#1550,#1551,#1552);
#1554=PLANE('',#1553);
#1555=CARTESIAN_POINT('',(-9.7,-28.9,0.));
#1556=DIRECTION('',(-0.,1.,0.));
#1557=VECTOR('',#1556,57.8);
#1558=LINE('',#1555,#1557);
#1559=EDGE_CURVE('',#1273,#1508,#1558,.T.);
#1560=ORIENTED_EDGE('',*,*,#1559,.T.);
#1561=ORIENTED_EDGE('',*,*,#1528,.F.);
#1562=ORIENTED_EDGE('',*,*,#1406,.F.);
#1563=ORIENTED_EDGE('',*,*,#1286,.T.);
#1564=EDGE_LOOP('',(#1560,#1561,#1562,#1563));
#1565=FACE_BOUND('',#1564,.T.);
#1566=ADVANCED_FACE('',(#1565),#1554,.F.);
#1567=CARTESIAN_POINT('',(0.,0.,0.));
#1568=DIRECTION('',(0.,0.,1.));
#1569=DIRECTION('',(1.,0.,0.));
#1570=AXIS2_PLACEMENT_3D('',#1567,#1568,#1569);
#1571=PLANE('',#1570);
#1572=ORIENTED_EDGE('',*,*,#1515,.F.);
#1573=ORIENTED_EDGE('',*,*,#1559,.F.);
#1574=ORIENTED_EDGE('',*,*,#1278,.F.);
#1575=ORIENTED_EDGE('',*,*,#1542,.F.);
#1576=EDGE_LOOP('',(#1572,#1573,#1574,#1575));
#1577=FACE_BOUND('',#1576,.T.);
#1578=ADVANCED_FACE('',(#1577),#1571,.T.);
#1579=CARTESIAN_POINT('',(-14.7,33.9,6.));
#1580=DIRECTION('',(0.,0.,1.));
#1581=DIRECTION('',(1.,0.,-0.));
#1582=AXIS2_PLACEMENT_3D('',#1579,#1580,#1581);
#1583=CYLINDRICAL_SURFACE('',#1582,2.35);
#1584=CARTESIAN_POINT('',(-12.35,33.9,6.));
#1585=VERTEX_POINT('',#1584);
#1586=CARTESIAN_POINT('',(-12.35,33.9,10.));
#1587=DIRECTION('',(-0.,-0.,-1.));
#1588=VECTOR('',#1587,4.);
#1589=LINE('',#1586,#1588);
#1590=EDGE_CURVE('',#1352,#1585,#1589,.T.);
#1591=ORIENTED_EDGE('',*,*,#1590,.F.);
#1592=ORIENTED_EDGE('',*,*,#1358,.T.);
#1593=ORIENTED_EDGE('',*,*,#1590,.T.);
#1594=CARTESIAN_POINT('',(-14.7,33.9,6.));
#1595=DIRECTION('',(0.,0.,1.));
#1596=DIRECTION('',(1.,0.,-0.));
#1597=AXIS2_PLACEMENT_3D('',#1594,#1595,#1596);
#1598=CIRCLE('',#1597,2.35);
#1599=EDGE_CURVE('',#1585,#1585,#1598,.T.);
#1600=ORIENTED_EDGE('',*,*,#1599,.F.);
#1601=EDGE_LOOP('',(#1591,#1592,#1593,#1600));
#1602=FACE_BOUND('',#1601,.T.);
#1603=ADVANCED_FACE('',(#1602),#1583,.F.);
#1604=CARTESIAN_POINT('',(0.,0.,6.));
#1605=DIRECTION('',(0.,0.,1.));
#1606=DIRECTION('',(1.,0.,0.));
#1607=AXIS2_PLACEMENT_3D('',#1604,#1605,#1606);
#1608=PLANE('',#1607);
#1609=ORIENTED_EDGE('',*,*,#1599,.T.);
#1610=EDGE_LOOP('',(#1609));
#1611=FACE_BOUND('',#1610,.T.);
#1612=ADVANCED_FACE('',(#1611),#1608,.T.);
#1613=CARTESIAN_POINT('',(14.7,-33.9,6.));
#1614=DIRECTION('',(0.,0.,1.));
#1615=DIRECTION('',(1.,0.,-0.));
#1616=AXIS2_PLACEMENT_3D('',#1613,#1614,#1615);
#1617=CYLINDRICAL_SURFACE('',#1616,2.35);
#1618=CARTESIAN_POINT('',(17.05,-33.9,6.));
#1619=VERTEX_POINT('',#1618);
#1620=CARTESIAN_POINT('',(17.05,-33.9,10.));
#1621=DIRECTION('',(-0.,-0.,-1.));
#1622=VECTOR('',#1621,4.);
#1623=LINE('',#1620,#1622);
#1624=EDGE_CURVE('',#1341,#1619,#1623,.T.);
#1625=ORIENTED_EDGE('',*,*,#1624,.F.);
#1626=ORIENTED_EDGE('',*,*,#1347,.T.);
#1627=ORIENTED_EDGE('',*,*,#1624,.T.);
#1628=CARTESIAN_POINT('',(14.7,-33.9,6.));
#1629=DIRECTION('',(0.,0.,1.));
#1630=DIRECTION('',(1.,0.,-0.));
#1631=AXIS2_PLACEMENT_3D('',#1628,#1629,#1630);
#1632=CIRCLE('',#1631,2.35);
#1633=EDGE_CURVE('',#1619,#1619,#1632,.T.);
#1634=ORIENTED_EDGE('',*,*,#1633,.F.);
#1635=EDGE_LOOP('',(#1625,#1626,#1627,#1634));
#1636=FACE_BOUND('',#1635,.T.);
#1637=ADVANCED_FACE('',(#1636),#1617,.F.);
#1638=CARTESIAN_POINT('',(0.,0.,6.));
#1639=DIRECTION('',(0.,0.,1.));
#1640=DIRECTION('',(1.,0.,0.));
#1641=AXIS2_PLACEMENT_3D('',#1638,#1639,#1640);
#1642=PLANE('',#1641);
#1643=ORIENTED_EDGE('',*,*,#1633,.T.);
#1644=EDGE_LOOP('',(#1643));
#1645=FACE_BOUND('',#1644,.T.);
#1646=ADVANCED_FACE('',(#1645),#1642,.T.);
#1647=CARTESIAN_POINT('',(-14.7,-33.982794133,6.));
#1648=DIRECTION('',(0.,0.,1.));
#1649=DIRECTION('',(1.,0.,-0.));
#1650=AXIS2_PLACEMENT_3D('',#1647,#1648,#1649);
#1651=CYLINDRICAL_SURFACE('',#1650,2.35);
#1652=CARTESIAN_POINT('',(-12.35,-33.982794133,6.));
#1653=VERTEX_POINT('',#1652);
#1654=CARTESIAN_POINT('',(-12.35,-33.982794133,10.));
#1655=DIRECTION('',(-0.,-0.,-1.));
#1656=VECTOR('',#1655,4.);
#1657=LINE('',#1654,#1656);
#1658=EDGE_CURVE('',#1330,#1653,#1657,.T.);
#1659=ORIENTED_EDGE('',*,*,#1658,.F.);
#1660=ORIENTED_EDGE('',*,*,#1336,.T.);
#1661=ORIENTED_EDGE('',*,*,#1658,.T.);
#1662=CARTESIAN_POINT('',(-14.7,-33.982794133,6.));
#1663=DIRECTION('',(0.,0.,1.));
#1664=DIRECTION('',(1.,0.,-0.));
#1665=AXIS2_PLACEMENT_3D('',#1662,#1663,#1664);
#1666=CIRCLE('',#1665,2.35);
#1667=EDGE_CURVE('',#1653,#1653,#1666,.T.);
#1668=ORIENTED_EDGE('',*,*,#1667,.F.);
#1669=EDGE_LOOP('',(#1659,#1660,#1661,#1668));
#1670=FACE_BOUND('',#1669,.T.);
#1671=ADVANCED_FACE('',(#1670),#1651,.F.);
#1672=CARTESIAN_POINT('',(0.,0.,6.));
#1673=DIRECTION('',(0.,0.,1.));
#1674=DIRECTION('',(1.,0.,0.));
#1675=AXIS2_PLACEMENT_3D('',#1672,#1673,#1674);
#1676=PLANE('',#1675);
#1677=ORIENTED_EDGE('',*,*,#1667,.T.);
#1678=EDGE_LOOP('',(#1677));
#1679=FACE_BOUND('',#1678,.T.);
#1680=ADVANCED_FACE('',(#1679),#1676,.T.);
#1681=CARTESIAN_POINT('',(14.7,33.9,6.));
#1682=DIRECTION('',(0.,0.,1.));
#1683=DIRECTION('',(1.,0.,-0.));
#1684=AXIS2_PLACEMENT_3D('',#1681,#1682,#1683);
#1685=CYLINDRICAL_SURFACE('',#1684,2.35);
#1686=CARTESIAN_POINT('',(17.05,33.9,6.));
#1687=VERTEX_POINT('',#1686);
#1688=CARTESIAN_POINT('',(17.05,33.9,10.));
#1689=DIRECTION('',(-0.,-0.,-1.));
#1690=VECTOR('',#1689,4.);
#1691=LINE('',#1688,#1690);
#1692=EDGE_CURVE('',#1319,#1687,#1691,.T.);
#1693=ORIENTED_EDGE('',*,*,#1692,.F.);
#1694=ORIENTED_EDGE('',*,*,#1325,.T.);
#1695=ORIENTED_EDGE('',*,*,#1692,.T.);
#1696=CARTESIAN_POINT('',(14.7,33.9,6.));
#1697=DIRECTION('',(0.,0.,1.));
#1698=DIRECTION('',(1.,0.,-0.));
#1699=AXIS2_PLACEMENT_3D('',#1696,#1697,#1698);
#1700=CIRCLE('',#1699,2.35);
#1701=EDGE_CURVE('',#1687,#1687,#1700,.T.);
#1702=ORIENTED_EDGE('',*,*,#1701,.F.);
#1703=EDGE_LOOP('',(#1693,#1694,#1695,#1702));
#1704=FACE_BOUND('',#1703,.T.);
#1705=ADVANCED_FACE('',(#1704),#1685,.F.);
#1706=CARTESIAN_POINT('',(0.,0.,6.));
#1707=DIRECTION('',(0.,0.,1.));
#1708=DIRECTION('',(1.,0.,0.));
#1709=AXIS2_PLACEMENT_3D('',#1706,#1707,#1708);
#1710=PLANE('',#1709);
#1711=ORIENTED_EDGE('',*,*,#1701,.T.);
#1712=EDGE_LOOP('',(#1711));
#1713=FACE_BOUND('',#1712,.T.);
#1714=ADVANCED_FACE('',(#1713),#1710,.T.);
#1715=CARTESIAN_POINT('',(0.,-26.6,4.));
#1716=DIRECTION('',(-0.,0.,1.));
#1717=DIRECTION('',(1.,0.,0.));
#1718=AXIS2_PLACEMENT_3D('',#1715,#1716,#1717);
#1719=PLANE('',#1718);
#1720=ORIENTED_EDGE('',*,*,#1190,.T.);
#1721=CARTESIAN_POINT('',(6.,-28.9,4.));
#1722=DIRECTION('',(0.,-1.,0.));
#1723=VECTOR('',#1722,10.);
#1724=LINE('',#1721,#1723);
#1725=EDGE_CURVE('',#1249,#1175,#1724,.T.);
#1726=ORIENTED_EDGE('',*,*,#1725,.F.);
#1727=ORIENTED_EDGE('',*,*,#1308,.T.);
#1728=CARTESIAN_POINT('',(-6.,-28.9,4.));
#1729=DIRECTION('',(0.,-1.,0.));
#1730=VECTOR('',#1729,10.);
#1731=LINE('',#1728,#1730);
#1732=EDGE_CURVE('',#1297,#1185,#1731,.T.);
#1733=ORIENTED_EDGE('',*,*,#1732,.T.);
#1734=EDGE_LOOP('',(#1720,#1726,#1727,#1733));
#1735=FACE_BOUND('',#1734,.T.);
#1736=ADVANCED_FACE('',(#1735),#1719,.T.);
#1737=CARTESIAN_POINT('',(6.,-26.6,7.));
#1738=DIRECTION('',(-1.,0.,0.));
#1739=DIRECTION('',(0.,0.,1.));
#1740=AXIS2_PLACEMENT_3D('',#1737,#1738,#1739);
#1741=PLANE('',#1740);
#1742=ORIENTED_EDGE('',*,*,#1182,.T.);
#1743=ORIENTED_EDGE('',*,*,#1367,.F.);
#1744=ORIENTED_EDGE('',*,*,#1254,.T.);
#1745=ORIENTED_EDGE('',*,*,#1725,.T.);
#1746=EDGE_LOOP('',(#1742,#1743,#1744,#1745));
#1747=FACE_BOUND('',#1746,.T.);
#1748=ADVANCED_FACE('',(#1747),#1741,.T.);
#1749=CARTESIAN_POINT('',(-6.,-26.6,7.));
#1750=DIRECTION('',(1.,0.,0.));
#1751=DIRECTION('',(0.,0.,-1.));
#1752=AXIS2_PLACEMENT_3D('',#1749,#1750,#1751);
#1753=PLANE('',#1752);
#1754=ORIENTED_EDGE('',*,*,#1198,.T.);
#1755=ORIENTED_EDGE('',*,*,#1732,.F.);
#1756=ORIENTED_EDGE('',*,*,#1302,.T.);
#1757=ORIENTED_EDGE('',*,*,#1397,.T.);
#1758=EDGE_LOOP('',(#1754,#1755,#1756,#1757));
#1759=FACE_BOUND('',#1758,.T.);
#1760=ADVANCED_FACE('',(#1759),#1753,.T.);
#1761=CLOSED_SHELL('',(#1240,#1312,#1424,#1448,#1472,#1489,#1501,#1532,#1549,#1566,#1578,#1603,#1612,#1637,#1646,#1671,#1680,#1705,#1714,#1736,#1748,#1760));
#1762=MANIFOLD_SOLID_BREP('Body 01',#1761);
#1168=STYLED_ITEM('',(#1167),#1762);
#16=SHAPE_REPRESENTATION('root',(#15),#10);
#17=ADVANCED_BREP_SHAPE_REPRESENTATION('root',(#1160,#1762),#10);
#1770=SHAPE_REPRESENTATION_RELATIONSHIP('','',#16,#17);
#1771=CARTESIAN_POINT('',(0.,0.,0.));
#1772=DIRECTION('',(0.,0.,1.));
#1773=DIRECTION('',(1.,0.,0.));
#1774=AXIS2_PLACEMENT_3D('',#1771,#1772,#1773);
#1776=MAPPED_ITEM('',#1775,#1774);
#1775=REPRESENTATION_MAP(#1774,#16);
#1777=APPLICATION_CONTEXT('Managed model based 3d engineering');
#1778=APPLICATION_PROTOCOL_DEFINITION('international standard','ap242_managed_model_based_3d_engineering',2014,#1777);
#1779=PRODUCT_CONTEXT('',#1777,'mechanical');
#1780=PRODUCT_DEFINITION_CONTEXT('part definition',#1777,'design');
#24=PRODUCT('root','root','',(#1779));
#1781=PRODUCT_RELATED_PRODUCT_CATEGORY('part','',(#24));
#1782=PRODUCT_DEFINITION_FORMATION_WITH_SPECIFIED_SOURCE('','',#24,.NOT_KNOWN.);
#25=PRODUCT_DEFINITION('design','',#1782,#1780);
#23=PRODUCT_DEFINITION_SHAPE('','',#25);
#1783=SHAPE_DEFINITION_REPRESENTATION(#23,#16);
#11=DRAUGHTING_MODEL('',(#1776),#10);
#1784=DESCRIPTIVE_REPRESENTATION_ITEM('KEY','/Users/aidenlim/Library/Containers/com.shapr3d.shapr/Data/tmp/5A064BF0-A87D-4687-AD4B-E12A370A04B4.tmp');
#1785=PROPERTY_DEFINITION('KEY','',#25);
#1786=REPRESENTATION('',(#1784),#10);
#1787=PROPERTY_DEFINITION_REPRESENTATION(#1785,#1786);
#1788=GENERAL_PROPERTY('','KEY','');
#1789=GENERAL_PROPERTY_ASSOCIATION('','',#1788,#1785);
#1=MECHANICAL_DESIGN_GEOMETRIC_PRESENTATION_REPRESENTATION('',(#26,#1168),#10);
ENDSEC;
END-ISO-10303-21;
